<?xml version="1.0" standalone="no"?>
<!DOCTYPE svg PUBLIC "-//W3C//DTD SVG 20010904//EN"
 "http://www.w3.org/TR/2001/REC-SVG-20010904/DTD/svg10.dtd">
<svg version="1.0" xmlns="http://www.w3.org/2000/svg"
 width="300.000000pt" height="300.000000pt" viewBox="0 0 300.000000 300.000000"
 preserveAspectRatio="xMidYMid meet">
<metadata>
Created by potrace 1.10, written by Peter Selinger 2001-2011
</metadata>
<g transform="translate(0.000000,300.000000) scale(0.100000,-0.100000)"
fill="#000000" stroke="none">
<path d="M32 2990 c-12 -5 -22 -14 -22 -19 0 -5 -3 -18 -7 -28 -5 -14 -1 -13
21 7 53 48 54 38 60 -320 5 -256 9 -327 19 -338 20 -20 87 -25 117 -10 l25 14
5 328 c5 301 6 330 23 340 14 8 20 8 27 -4 6 -9 10 -148 10 -330 1 -363 -1
-355 80 -355 85 0 82 -13 87 356 3 178 9 328 13 333 5 5 16 6 24 3 14 -6 16
-45 16 -330 0 -317 0 -324 21 -343 29 -26 99 -26 128 0 21 19 21 26 21 343 0
285 2 324 16 330 8 3 20 1 25 -4 14 -14 12 -796 -2 -844 -16 -53 -77 -129
-134 -167 -28 -19 -54 -41 -60 -50 -6 -11 -11 -346 -13 -905 l-4 -888 -32 -32
c-18 -18 -50 -39 -72 -46 -37 -12 -45 -11 -81 8 -22 11 -52 34 -67 51 l-26 32
0 879 c0 574 -4 887 -10 899 -6 11 -35 35 -65 55 -64 43 -115 115 -141 200
-17 56 -19 58 -22 27 -8 -80 61 -195 152 -252 l55 -35 1 -883 c0 -964 -3 -907
59 -966 50 -48 160 -52 219 -9 15 10 37 39 50 63 l22 44 0 877 0 877 44 26
c60 35 121 107 145 172 19 49 21 82 24 451 2 233 -1 407 -6 420 -13 29 -53 38
-83 18 l-24 -15 0 -330 0 -330 -55 0 -55 0 -2 332 -3 332 -26 15 c-24 13 -29
13 -53 -2 l-26 -17 0 -330 0 -330 -55 0 -55 0 0 329 c0 362 1 354 -62 354 -57
0 -58 -5 -58 -360 l0 -323 -50 0 -50 0 0 323 c0 243 -3 327 -12 339 -17 21
-48 29 -76 18z"/>
<path d="M2901 2983 c-53 -26 -202 -174 -258 -255 -100 -145 -162 -301 -183
-459 -7 -54 -10 -246 -8 -534 4 -526 -3 -492 122 -623 l76 -79 0 -447 c0 -494
-1 -487 64 -544 37 -32 60 -37 141 -32 65 4 122 58 135 129 6 34 5 39 -6 30
-8 -6 -14 -17 -14 -24 0 -30 -59 -92 -104 -109 -46 -18 -47 -18 -94 6 -26 12
-57 38 -69 57 l-23 34 0 455 0 454 -74 77 c-41 42 -85 96 -98 121 l-23 45 -3
455 c-2 304 1 482 8 535 22 148 84 309 167 428 46 67 208 226 256 252 l37 19
21 -23 c11 -12 23 -20 25 -18 7 7 -15 57 -25 57 -5 0 -15 2 -23 5 -7 2 -28 -3
-47 -12z"/>
<path d="M2842 2824 c-51 -40 -157 -183 -200 -270 -76 -152 -91 -221 -103
-469 -14 -275 -3 -755 17 -804 8 -20 50 -72 94 -116 l78 -80 5 -467 c4 -314 9
-473 16 -487 7 -11 25 -28 42 -37 39 -20 77 -6 102 35 16 27 17 128 17 1358 0
1261 -1 1331 -18 1346 -16 15 -20 14 -50 -9z m38 -1344 c-4 -1177 -7 -1342
-20 -1350 -22 -14 -66 -12 -78 3 -8 9 -12 162 -14 485 l-3 471 -92 93 c-68 70
-93 102 -98 128 -3 19 -5 249 -3 510 l4 475 27 88 c31 100 72 187 127 267 41
59 137 170 148 170 4 0 5 -603 2 -1340z"/>
<path d="M1346 2609 c-125 -18 -284 -70 -348 -113 -38 -25 -47 -60 -22 -87 24
-26 50 -24 127 11 131 59 214 75 397 75 140 -1 178 -4 250 -24 160 -43 314
-128 437 -243 67 -62 91 -70 123 -38 35 35 25 60 -47 128 -239 226 -594 338
-917 291z m362 -45 c187 -33 354 -115 520 -254 45 -37 62 -59 62 -76 0 -41
-37 -29 -104 33 -114 106 -249 181 -411 229 -74 22 -117 27 -236 31 -171 6
-262 -8 -404 -64 -108 -42 -140 -46 -140 -18 0 15 18 27 77 53 199 85 408 107
636 66z"/>
<path d="M1330 2314 c-158 -34 -298 -111 -416 -229 -97 -96 -162 -202 -206
-335 -31 -91 -32 -102 -32 -250 0 -147 2 -160 32 -250 80 -242 261 -434 492
-525 170 -67 377 -73 550 -16 259 84 454 279 542 541 31 91 32 102 32 250 0
148 -1 159 -32 250 -97 291 -333 504 -624 564 -93 19 -249 19 -338 0z m370
-42 c298 -78 524 -311 584 -604 108 -521 -301 -996 -829 -964 -117 7 -192 25
-293 72 -304 140 -475 426 -459 763 9 187 57 316 167 455 196 247 526 357 830
278z"/>
<path d="M1425 2244 c-214 -32 -377 -123 -507 -285 -56 -70 -95 -143 -129
-244 -21 -61 -24 -88 -24 -215 0 -127 3 -154 24 -215 88 -259 281 -445 531
-512 88 -24 271 -24 360 0 265 70 472 284 541 558 18 68 21 103 17 198 -9 195
-68 336 -203 479 -98 104 -193 165 -320 205 -80 25 -224 41 -290 31z m245 -50
c246 -55 467 -278 525 -529 21 -88 21 -242 0 -331 -45 -198 -199 -388 -388
-478 -97 -47 -191 -67 -307 -67 -53 0 -127 7 -165 16 -253 58 -472 277 -530
530 -21 88 -21 242 0 330 21 92 74 200 136 277 178 222 447 315 729 252z"/>
<path d="M1462 2024 c-44 -31 -16 -104 40 -104 24 0 58 35 58 60 0 25 -34 60
-58 60 -10 0 -28 -7 -40 -16z m58 -43 c0 -24 -13 -33 -34 -25 -27 10 -20 44 9
44 18 0 25 -5 25 -19z"/>
<path d="M1236 1968 c-126 -69 -231 -211 -261 -355 -20 -93 -19 -129 5 -153
49 -49 94 -12 103 85 13 133 98 261 216 324 58 31 71 45 71 80 0 23 -31 51
-56 51 -10 0 -45 -15 -78 -32z m99 -26 c0 -7 -31 -34 -70 -61 -123 -84 -198
-201 -212 -333 -6 -64 -24 -88 -48 -68 -19 16 -19 58 0 139 30 128 119 248
230 312 50 30 100 35 100 11z"/>
<path d="M108 2203 c-39 -45 55 -192 147 -230 l45 -18 0 -888 c0 -925 0 -930
41 -964 8 -6 26 -14 41 -18 23 -6 34 -1 63 28 l35 35 0 900 0 900 64 36 c68
38 105 79 132 145 13 33 14 47 6 67 l-12 24 -273 0 c-248 0 -275 -2 -289 -17z
m550 -45 c-22 -65 -64 -113 -130 -148 -35 -18 -66 -38 -70 -44 -4 -6 -8 -416
-8 -910 0 -823 -1 -901 -17 -918 -20 -22 -66 -23 -84 -1 -12 13 -15 175 -19
927 l-5 911 -54 27 c-30 15 -67 40 -82 54 -27 25 -69 102 -69 124 0 6 96 10
274 10 l275 0 -11 -32z"/>
<path d="M2229 815 c-136 -140 -298 -238 -479 -286 -71 -19 -111 -23 -245 -24
-203 0 -295 21 -464 106 -104 53 -117 57 -140 46 -18 -9 -27 -21 -29 -44 -4
-37 24 -62 133 -116 245 -121 515 -147 792 -76 183 46 418 193 540 337 56 66
65 98 35 125 -35 31 -58 20 -143 -68z m131 30 c0 -41 -143 -178 -272 -262
-253 -164 -569 -212 -873 -132 -141 36 -315 122 -315 154 0 32 34 26 128 -23
296 -153 632 -157 925 -11 108 55 163 95 279 206 66 64 101 91 112 87 9 -3 16
-12 16 -19z"/>
<path d="M710 790 c-11 -11 -20 -29 -20 -40 0 -27 35 -60 63 -60 29 0 57 29
57 58 0 28 -34 62 -60 62 -11 0 -29 -9 -40 -20z m68 -43 c2 -9 -4 -20 -13 -23
-20 -8 -50 19 -40 36 10 17 49 8 53 -13z"/>
</g>
</svg>
