<?xml version="1.0" standalone="no"?>
<!DOCTYPE svg PUBLIC "-//W3C//DTD SVG 20010904//EN"
 "http://www.w3.org/TR/2001/REC-SVG-20010904/DTD/svg10.dtd">
<svg version="1.0" xmlns="http://www.w3.org/2000/svg"
 width="300.000000pt" height="300.000000pt" viewBox="0 0 300.000000 300.000000"
 preserveAspectRatio="xMidYMid meet">
<metadata>
Created by potrace 1.10, written by Peter Selinger 2001-2011
</metadata>
<g transform="translate(0.000000,300.000000) scale(0.100000,-0.100000)"
fill="#000000" stroke="none">
<path d="M599 2606 c-83 -30 -147 -86 -191 -169 -22 -40 -23 -56 -28 -310 l-5
-267 236 0 237 0 4 78 c7 128 72 225 188 281 l55 26 405 0 405 0 55 -26 c116
-56 181 -153 188 -281 l4 -78 237 0 236 0 -5 267 c-5 255 -6 270 -28 311 -33
63 -84 114 -144 148 l-53 29 -880 2 c-703 2 -887 0 -916 -11z m1803 -46 c58
-21 123 -81 154 -140 17 -31 19 -60 19 -275 l0 -240 -187 -3 -188 -2 -4 22
c-3 13 -8 41 -11 63 -15 95 -78 189 -163 244 -88 56 -129 61 -522 61 -386 0
-428 -5 -515 -56 -84 -49 -159 -159 -171 -251 -3 -21 -7 -48 -10 -61 l-4 -22
-188 2 -187 3 -3 225 c-3 257 2 282 72 358 42 46 81 71 131 83 17 4 411 7 877
8 823 1 849 0 900 -19z"/>
<path d="M1100 2051 c-44 -23 -80 -90 -80 -148 l0 -43 480 0 480 0 0 43 c0 58
-36 125 -80 148 -32 18 -63 19 -400 19 -337 0 -368 -1 -400 -19z m775 -35 c39
-16 55 -42 55 -85 l0 -31 -429 0 c-476 0 -455 -3 -426 66 25 61 39 63 423 64
274 0 349 -3 377 -14z"/>
<path d="M220 1665 c-107 -34 -210 -160 -210 -258 0 -38 1 -40 13 -22 8 11 22
41 32 67 24 64 72 117 136 153 l54 30 1255 0 1255 0 53 -30 c67 -37 96 -70
141 -165 l35 -75 4 39 c5 60 -49 159 -113 208 -94 72 -12 68 -1379 67 -1030 0
-1238 -3 -1276 -14z"/>
<path d="M0 1140 c0 -20 7 -20 1500 -20 1493 0 1500 0 1500 20 0 20 -7 20
-1500 20 -1493 0 -1500 0 -1500 -20z"/>
<path d="M0 920 c0 -20 7 -20 1500 -20 1493 0 1500 0 1500 20 0 20 -7 20
-1500 20 -1493 0 -1500 0 -1500 -20z"/>
<path d="M180 597 c-33 -17 -50 -53 -50 -109 0 -36 -4 -50 -19 -58 -28 -15
-36 -13 -71 16 -37 32 -44 28 -29 -15 13 -37 35 -51 82 -51 56 0 82 37 83 118
l1 67 1323 0 1323 0 1 -67 c1 -56 5 -71 25 -92 26 -28 76 -35 111 -16 17 9 45
69 36 78 -3 2 -21 -8 -40 -23 -59 -45 -96 -15 -96 79 0 31 -6 48 -21 62 -20
18 -59 19 -1328 21 -1035 2 -1311 0 -1331 -10z"/>
</g>
</svg>
