<?xml version="1.0" standalone="no"?>
<!DOCTYPE svg PUBLIC "-//W3C//DTD SVG 20010904//EN"
 "http://www.w3.org/TR/2001/REC-SVG-20010904/DTD/svg10.dtd">
<svg version="1.0" xmlns="http://www.w3.org/2000/svg"
 width="300.000000pt" height="300.000000pt" viewBox="0 0 300.000000 300.000000"
 preserveAspectRatio="xMidYMid meet">
<metadata>
Created by potrace 1.10, written by Peter Selinger 2001-2011
</metadata>
<g transform="translate(0.000000,300.000000) scale(0.100000,-0.100000)"
fill="#000000" stroke="none">
<path d="M1330 2947 c-3 -3 -23 -7 -45 -10 -38 -5 -141 -27 -190 -41 -62 -17
-100 -29 -114 -36 -9 -4 -56 -27 -106 -50 -186 -88 -380 -240 -497 -388 -29
-37 -55 -69 -58 -72 -27 -25 -151 -254 -170 -315 -7 -22 -16 -44 -20 -50 -4
-5 -11 -23 -15 -40 -5 -16 -10 -36 -12 -42 -1 -7 -4 -19 -6 -25 -2 -7 -6 -22
-10 -33 -8 -25 -16 -68 -23 -120 -3 -22 -7 -48 -10 -59 -7 -22 -7 -311 0 -334
3 -10 8 -37 11 -62 10 -78 13 -89 40 -180 1 -3 5 -18 10 -35 4 -16 11 -34 15
-40 4 -5 13 -28 20 -50 7 -22 29 -71 48 -110 154 -300 383 -524 677 -664 50
-24 97 -47 106 -51 9 -5 36 -14 60 -21 60 -17 61 -17 87 -23 13 -3 32 -8 42
-11 24 -8 55 -14 110 -21 25 -3 48 -8 52 -11 10 -6 325 -6 335 0 4 3 28 8 53
11 64 9 102 16 125 23 21 7 31 10 55 16 57 14 76 21 85 27 6 4 28 13 50 20 61
20 292 144 315 169 3 4 28 24 55 46 171 136 308 308 405 510 52 110 66 145 87
220 6 24 34 153 39 180 19 117 19 315 0 445 -11 71 -17 103 -21 109 -2 4 -7
21 -10 37 -3 16 -7 34 -9 39 -2 6 -6 24 -11 40 -4 17 -11 35 -15 40 -4 6 -13
28 -20 50 -20 62 -145 293 -170 315 -3 3 -29 35 -58 72 -137 174 -406 370
-590 429 -20 6 -41 15 -47 19 -5 4 -23 11 -40 15 -16 5 -34 9 -40 11 -13 4
-37 9 -95 23 -25 5 -58 13 -75 17 -35 8 -398 18 -405 11z m300 -27 c52 -7 104
-13 115 -15 11 -3 45 -9 74 -14 58 -11 137 -35 186 -56 17 -8 41 -17 55 -20
28 -8 193 -99 257 -143 50 -33 243 -202 243 -212 0 -4 14 -21 30 -38 17 -18
30 -34 30 -36 0 -2 -10 -7 -22 -10 -13 -3 -34 -15 -48 -26 l-25 -21 40 21 c43
22 85 27 85 10 0 -6 20 -40 45 -77 25 -36 45 -72 45 -79 0 -8 3 -14 8 -14 4 0
13 -14 21 -31 12 -28 11 -32 -10 -55 -12 -13 -28 -24 -36 -24 -7 0 -13 -5 -13
-10 0 -13 31 2 50 24 18 23 27 20 45 -14 l16 -30 -46 0 c-27 0 -45 -5 -45 -11
0 -8 -4 -9 -13 0 -8 6 -18 7 -22 3 -5 -4 -5 -1 -1 6 5 9 -2 24 -20 43 -15 16
-29 36 -30 43 -5 32 -133 205 -207 278 -266 267 -587 398 -960 393 -78 -2
-150 -6 -160 -10 -17 -7 -15 -12 17 -44 20 -21 34 -40 30 -44 -4 -3 1 -13 10
-22 9 -9 16 -24 16 -34 0 -10 3 -40 7 -67 l6 -49 -46 43 c-49 44 -87 53 -130
31 -63 -33 -64 -120 -2 -173 14 -12 25 -24 25 -28 0 -3 -26 -4 -57 -1 -60 5
-62 6 -153 98 -31 31 -40 65 -17 65 9 0 8 3 -2 9 -7 5 -11 14 -7 20 5 7 1 9
-9 5 -23 -9 -29 -48 -12 -80 9 -16 40 -53 69 -81 53 -53 54 -53 133 -59 49 -4
87 -13 98 -22 16 -14 19 -13 42 8 14 13 25 28 25 34 0 6 -5 5 -12 -2 -10 -10
-25 0 -70 45 -32 32 -58 53 -58 48 0 -13 20 -43 20 -30 0 11 70 -66 70 -78 0
-14 -57 32 -90 71 -36 43 -39 88 -10 120 28 29 66 38 98 21 30 -15 112 -96
112 -110 0 -18 -16 -8 -60 37 -47 47 -78 69 -87 61 -3 -3 8 -12 24 -20 16 -9
48 -36 72 -62 42 -46 43 -47 24 -68 -10 -12 -14 -19 -9 -15 5 4 15 0 23 -10
13 -15 13 -15 4 4 -8 17 -6 26 14 44 l25 24 -20 22 c-17 17 -21 36 -23 99 -2
62 -6 80 -21 91 -16 11 -17 14 -4 19 8 3 146 5 307 3 l293 -3 19 -24 c23 -28
25 -64 4 -81 -8 -7 -15 -24 -14 -39 1 -38 -16 -86 -30 -83 -7 1 -10 -1 -7 -6
3 -4 -4 -21 -15 -38 l-19 -29 0 30 c0 17 -4 45 -9 63 -8 27 -5 43 20 98 17 36
28 68 26 70 -2 2 -16 -25 -31 -60 l-28 -64 -34 14 c-29 12 -39 12 -68 0 -41
-17 -56 -42 -55 -88 1 -33 1 -33 9 6 19 101 137 100 156 -1 3 -18 3 -50 -2
-70 -8 -36 -8 -35 -14 28 -6 74 -20 99 -58 99 -47 0 -62 -25 -62 -104 l0 -71
-20 25 c-12 15 -18 18 -14 7 3 -9 -1 -28 -10 -42 -13 -19 -15 -37 -10 -75 6
-47 5 -52 -32 -97 l-39 -47 -8 54 c-12 85 -59 122 -122 96 -36 -16 -59 -47
-52 -74 4 -13 5 -11 6 5 1 25 45 63 72 63 56 0 89 -45 89 -119 -1 -33 -2 -35
-15 -17 -13 18 -14 18 -12 -3 1 -11 5 -21 9 -21 4 0 8 -4 8 -10 0 -5 -7 -10
-15 -10 -8 0 -15 -3 -15 -7 0 -5 -20 -8 -45 -8 l-45 0 0 71 c0 41 5 75 12 82
17 17 48 15 70 -5 10 -9 18 -11 18 -5 0 14 -32 32 -56 32 -37 0 -54 -30 -54
-96 0 -35 -4 -66 -10 -69 -9 -6 -12 7 -13 63 -1 31 -17 28 -17 -4 0 -25 -1
-24 -35 16 -19 23 -36 45 -36 48 -6 27 -3 62 3 62 5 0 4 9 -2 19 -7 14 -7 28
0 47 6 15 8 34 5 43 -13 32 -25 -13 -25 -93 l0 -79 45 -53 c25 -28 45 -57 45
-63 0 -15 -37 -51 -44 -43 -3 3 -6 23 -6 44 0 78 -86 125 -141 78 -21 -17 -22
-21 -9 -30 8 -5 22 -7 30 -4 63 26 80 6 80 -89 0 -69 -1 -72 -24 -73 -17 -1
-36 11 -61 38 -35 37 -39 39 -79 33 -54 -9 -53 -9 -61 -58 -4 -23 -11 -59 -16
-81 l-10 -38 -25 23 c-15 14 -22 29 -18 41 7 23 -4 58 -18 58 -7 0 -6 -5 2
-15 7 -8 9 -26 5 -43 -5 -25 -1 -34 25 -56 17 -14 29 -30 25 -35 -3 -5 -39
-17 -80 -26 -59 -13 -75 -21 -75 -35 0 -10 -7 -23 -15 -30 -7 -6 -17 -32 -21
-56 -3 -24 -9 -44 -13 -44 -4 0 -38 31 -76 70 l-69 70 59 60 c32 32 62 57 67
54 4 -3 8 1 8 8 0 8 16 29 35 48 l35 34 23 -22 c27 -26 33 -27 40 -8 3 8 -1
13 -11 12 -9 0 -21 9 -27 22 -5 12 -14 22 -19 22 -5 0 -20 10 -33 22 -13 12
-23 17 -23 12 0 -5 12 -17 28 -27 l27 -19 -108 -106 -109 -107 -24 30 -24 30
1 -68 c1 -43 6 -66 13 -64 6 2 9 22 7 47 -2 39 -1 43 13 31 9 -8 16 -29 16
-47 0 -27 4 -34 19 -34 25 0 38 -20 20 -31 -8 -5 -69 -9 -137 -9 l-122 0 -11
27 c-6 15 -8 35 -6 45 4 14 -1 18 -19 18 -13 0 -24 -4 -24 -10 0 -5 7 -10 15
-10 8 0 15 -9 15 -20 0 -12 12 -33 26 -47 25 -25 28 -25 125 -20 93 6 99 5 99
-13 0 -17 9 -19 93 -22 103 -3 164 4 135 17 -36 15 -7 72 30 61 19 -6 20 -10
9 -34 -6 -15 -24 -42 -39 -60 -49 -57 -79 -112 -73 -131 3 -10 18 -21 34 -24
25 -5 29 -11 33 -46 3 -36 2 -39 -13 -25 -9 8 -33 13 -57 12 -44 -1 -92 23
-92 47 0 8 -4 15 -10 15 -13 0 -13 -6 0 -31 15 -27 63 -49 110 -49 22 0 40 -5
40 -10 0 -7 -34 -10 -92 -8 -91 3 -93 3 -94 28 -1 13 6 30 15 37 9 7 12 12 6
12 -5 0 -19 -6 -29 -14 -11 -8 -23 -15 -26 -15 -4 0 -8 48 -9 107 -1 60 -5
111 -10 116 -9 9 -186 11 -201 2 -5 -3 -10 -28 -10 -56 0 -27 -5 -49 -10 -49
-7 0 -10 37 -9 101 1 55 -2 103 -5 106 -3 4 -6 -44 -6 -105 0 -97 2 -112 16
-112 11 0 15 -6 11 -20 -8 -29 10 -84 33 -105 16 -14 34 -18 87 -16 39 1 71 7
75 14 4 7 19 12 33 12 20 1 25 -4 25 -22 0 -22 -4 -23 -72 -23 -84 0 -154 -10
-139 -19 5 -4 -11 -27 -38 -54 l-47 -47 -43 39 c-24 22 -40 44 -37 50 4 6 26
8 51 6 24 -3 47 0 50 5 4 6 -21 10 -65 10 -38 0 -79 6 -90 12 -15 10 -22 10
-32 0 -6 -6 -20 -12 -30 -12 -10 0 -18 -4 -18 -10 0 -5 7 -10 15 -10 9 0 15
-10 16 -22 1 -32 5 -54 24 -128 9 -36 18 -73 20 -83 7 -32 134 -282 155 -305
11 -12 20 -25 20 -31 0 -5 11 -19 25 -32 13 -13 25 -30 25 -37 0 -7 4 -10 10
-7 5 3 10 2 10 -3 0 -6 29 -39 65 -74 36 -36 65 -71 65 -79 0 -8 33 -32 72
-53 211 -112 323 -165 349 -167 8 0 28 -9 44 -20 17 -10 45 -26 62 -36 42 -22
42 -33 1 -23 -18 4 -54 13 -79 19 -82 18 -255 99 -351 163 -138 92 -321 278
-386 393 -109 195 -159 330 -178 490 -2 22 -7 46 -10 54 -2 7 -4 57 -4 110 1
53 1 111 0 129 -1 40 5 40 30 0 28 -47 28 -165 0 -198 -11 -13 -20 -28 -20
-34 0 -6 14 5 30 24 27 32 29 42 30 109 0 64 -3 79 -26 108 -27 35 -26 37 17
93 14 19 31 49 37 66 9 27 6 37 -25 82 -18 28 -39 55 -46 59 -9 5 -9 3 0 -8 9
-12 10 -24 2 -50 -75 -247 -57 -575 46 -834 201 -505 703 -837 1240 -821 72 2
159 9 195 16 404 72 739 315 937 680 93 170 149 395 152 609 1 66 6 108 13
112 8 5 6 19 -7 49 -14 31 -28 45 -57 57 -21 8 -38 21 -38 28 0 37 -186 47
-273 15 -64 -24 -95 -54 -102 -100 l-6 -35 15 27 c31 52 150 90 261 82 75 -6
164 -48 185 -87 14 -26 13 -29 -4 -43 -11 -8 -32 -14 -48 -14 l-28 0 0 -82 c0
-98 -16 -237 -34 -298 l-13 -43 -89 2 c-101 3 -195 20 -297 56 -39 13 -73 23
-75 21 -8 -8 57 -44 108 -59 84 -25 146 -36 247 -41 72 -4 94 -2 103 9 7 8 20
15 30 15 16 0 16 -5 -4 -70 -18 -59 -24 -70 -43 -70 -17 0 -31 -17 -65 -82
-23 -45 -66 -115 -95 -155 -48 -68 -53 -79 -53 -129 0 -30 -3 -54 -6 -54 -3 0
-17 9 -31 20 l-25 20 -55 -50 c-29 -27 -72 -62 -93 -77 -25 -18 -38 -34 -35
-44 4 -11 -16 -29 -65 -61 -58 -38 -72 -43 -79 -31 -7 14 -17 12 -72 -10 -103
-40 -152 -55 -254 -76 -53 -11 -102 -24 -109 -30 -26 -21 -150 -43 -216 -38
-76 6 -168 38 -210 73 -18 15 -43 26 -62 26 -18 0 -37 4 -43 8 -5 5 -85 46
-176 92 -182 93 -215 113 -201 122 5 3 -30 45 -78 93 -48 49 -113 127 -143
174 -58 88 -127 223 -127 247 0 7 -7 15 -15 18 -8 4 -12 10 -9 15 3 5 -4 42
-15 82 -11 40 -23 96 -27 125 -6 48 -5 52 14 52 11 0 23 -8 27 -19 3 -10 30
-42 60 -70 l54 -51 72 70 72 70 189 0 189 0 -27 -35 c-24 -32 -54 -47 -54 -27
0 5 -15 19 -32 31 -28 20 -26 17 10 -20 38 -39 44 -42 53 -26 5 9 14 17 20 17
5 0 4 -9 -3 -20 -7 -11 -17 -20 -23 -20 -6 0 -44 -33 -84 -74 -41 -41 -79 -72
-86 -70 -7 3 -21 -6 -32 -20 -16 -20 -23 -22 -33 -13 -10 10 -12 9 -7 -4 3
-11 -14 -35 -52 -73 -66 -65 -81 -71 -45 -19 32 47 38 72 25 107 -17 42 -13
51 12 30 l22 -19 -18 22 c-11 12 -25 19 -33 16 -16 -6 -18 -19 -5 -27 16 -10
19 -60 6 -91 -14 -33 -63 -83 -52 -53 3 9 1 32 -5 52 -9 29 -8 39 4 53 30 36
30 47 0 19 -19 -18 -35 -25 -43 -20 -7 4 -37 12 -66 18 l-53 11 40 45 c55 64
50 74 -9 16 -62 -61 -57 -81 22 -91 30 -4 59 -10 65 -13 5 -4 18 -43 27 -87 9
-44 17 -81 19 -82 1 -2 50 46 109 105 94 96 108 106 124 95 16 -12 5 -26 -119
-151 l-137 -137 25 -29 c14 -15 28 -26 31 -22 3 3 -2 15 -12 26 -17 19 -15 22
81 120 54 55 102 100 106 100 4 0 -4 -17 -18 -37 -13 -20 -39 -65 -56 -100
-17 -35 -47 -77 -66 -94 l-35 -31 37 -36 c30 -31 38 -34 46 -22 7 11 4 20 -14
35 l-24 20 99 170 c71 120 118 188 160 231 35 36 61 70 62 85 1 13 7 32 13 43
16 26 46 8 69 -43 10 -23 23 -41 28 -41 6 0 7 -3 4 -7 -4 -3 1 -15 10 -26 10
-11 12 -17 6 -13 -13 7 -54 -10 -51 -22 1 -4 -16 -34 -38 -68 -49 -75 -228
-413 -222 -419 3 -3 11 7 19 22 11 22 232 412 267 473 8 13 12 13 26 1 9 -7
16 -11 16 -8 0 3 15 -7 32 -24 49 -44 58 -35 11 13 -46 48 -98 130 -108 170
-4 15 -12 25 -18 22 -7 -2 -19 0 -27 5 -12 9 -12 12 3 28 13 16 15 31 10 85
-7 78 16 192 53 265 13 26 24 49 24 51 0 1 -15 2 -34 2 l-35 0 62 58 c34 31
64 61 65 65 2 4 10 2 18 -4 12 -10 23 -6 57 18 23 17 56 38 74 47 17 8 34 25
38 36 5 16 15 20 56 20 46 0 49 2 49 26 0 14 8 36 18 47 16 20 25 22 115 19
l97 -3 0 27 c0 18 16 46 47 82 27 31 47 63 45 73 -2 10 14 30 39 50 24 19 37
35 30 37 -7 2 -26 -8 -42 -24 l-29 -28 0 31 c0 27 4 31 33 35 17 3 60 4 95 2
58 -2 62 -1 62 19 0 12 23 50 51 85 51 61 51 63 45 113 l-7 50 50 -26 c46 -23
210 -130 221 -144 3 -3 25 -7 48 -9 53 -3 113 -32 141 -68 31 -39 25 -51 -7
-16 -16 17 -42 34 -58 38 -16 4 -34 10 -39 15 -6 4 -24 9 -40 11 -17 3 -42 11
-58 18 -62 30 -230 -31 -243 -88 -3 -15 -7 -32 -9 -38 -2 -6 -22 -14 -46 -18
-37 -6 -46 -3 -69 19 -42 40 -55 33 -85 -46 -15 -38 -25 -72 -23 -75 3 -2 17
27 32 66 15 38 29 70 31 70 5 0 55 -50 55 -54 0 -2 -15 -13 -34 -24 -21 -13
-36 -31 -40 -49 -6 -24 -11 -28 -42 -29 -25 0 -44 -9 -67 -32 -36 -35 -50 -40
-41 -17 4 8 2 15 -4 15 -5 0 -13 -12 -17 -27 -3 -16 -13 -35 -21 -44 -13 -14
-13 -18 0 -28 13 -11 21 -9 47 10 33 23 64 26 151 13 34 -5 38 -3 44 20 6 26
24 36 24 14 0 -6 6 -3 14 8 21 28 31 10 11 -20 -10 -14 -26 -26 -36 -26 -11 0
-19 -4 -19 -9 0 -19 28 -18 58 1 29 18 32 25 32 69 0 46 -2 49 -25 49 -20 0
-25 -5 -25 -25 0 -17 -6 -25 -17 -26 -31 -2 -48 2 -62 16 -44 42 65 114 188
124 l73 6 -23 20 c-19 17 -22 18 -16 3 5 -13 1 -18 -14 -18 -29 0 -35 28 -12
58 71 96 348 96 428 0 24 -29 25 -31 9 -49 -16 -18 -16 -20 6 -44 12 -13 25
-23 29 -23 15 4 78 -24 106 -47 28 -23 29 -24 8 -25 -12 0 -24 4 -27 9 -8 12
-110 61 -127 61 -8 0 -25 -7 -38 -16 -18 -13 -28 -14 -47 -5 -33 15 -44 14
-44 -3 0 -23 -59 -66 -89 -66 -32 0 -81 34 -81 56 0 8 -5 14 -10 14 -11 0 -4
-42 12 -72 14 -28 66 -50 99 -43 30 7 69 47 69 71 0 21 12 17 58 -17 35 -25
43 -28 48 -15 3 8 4 21 1 28 -4 8 -6 6 -6 -4 -1 -22 -14 -23 -32 -2 -11 14
-10 18 6 31 44 33 143 -4 223 -84 60 -59 91 -120 92 -176 0 -27 4 -36 13 -32
6 4 3 -1 -7 -9 -28 -23 -49 -20 -77 10 -39 41 -58 48 -80 28 -18 -17 -17 -18
37 -40 31 -12 65 -31 77 -41 19 -17 20 -17 14 0 -4 11 -3 16 3 12 6 -4 10 -12
9 -18 -4 -32 4 -47 36 -66 19 -11 35 -17 35 -12 0 4 -9 40 -19 80 -12 46 -16
82 -11 95 5 14 1 38 -12 70 -11 30 -15 53 -10 58 11 11 92 7 92 -4 0 -5 11
-38 25 -76 76 -211 93 -536 40 -760 -8 -35 -13 -67 -10 -72 7 -11 -20 -20 -61
-20 -20 0 -33 -4 -30 -8 3 -5 18 -7 34 -4 16 2 32 0 35 -5 6 -10 -58 -168
-104 -258 -64 -123 -146 -232 -156 -207 -6 15 -51 62 -59 62 -4 0 8 -16 25
-35 17 -20 31 -42 31 -50 0 -14 -112 -133 -180 -190 -54 -46 -157 -115 -171
-115 -7 0 -23 10 -36 22 -17 16 -22 18 -18 6 4 -9 13 -19 21 -22 27 -10 13
-26 -53 -60 -107 -53 -113 -53 -115 -14 -1 28 -2 26 -7 -12 -3 -25 -10 -44
-16 -43 -5 0 -25 -5 -44 -13 -18 -8 -43 -16 -55 -19 -11 -2 -39 -9 -61 -15
-171 -44 -334 -57 -500 -40 -114 11 -238 35 -265 49 -9 5 -31 12 -50 16 -19 4
-38 12 -42 18 -3 5 -18 11 -32 13 -28 3 -206 92 -206 103 0 4 11 18 25 31 14
13 25 28 25 33 0 4 -12 -5 -26 -22 -14 -17 -32 -31 -40 -31 -13 0 -61 26 -74
40 -3 3 -24 18 -47 34 -57 38 -233 213 -233 231 0 8 15 31 32 51 18 21 26 35
18 32 -8 -2 -24 -18 -35 -35 -11 -16 -26 -28 -33 -25 -34 11 -182 271 -223
391 -27 76 -25 81 20 81 22 0 42 3 44 7 3 5 -18 8 -46 8 -47 0 -51 2 -59 30
-21 70 -38 187 -43 294 -9 185 16 366 72 530 9 25 16 53 18 61 3 20 80 26 103
8 15 -12 16 -11 3 5 -8 10 -27 17 -47 17 -24 0 -34 5 -34 15 0 8 5 15 11 15 5
0 8 4 4 9 -12 20 17 21 41 2 15 -12 32 -21 38 -21 6 0 -4 9 -22 20 -44 27 -48
41 -20 87 13 21 32 55 43 76 11 21 30 49 42 64 13 14 23 33 23 41 0 20 65 10
94 -15 l21 -18 -20 24 c-11 13 -31 27 -44 33 l-24 9 39 42 c97 104 257 247
278 247 2 0 31 17 63 38 89 59 274 141 350 155 10 2 36 9 58 15 123 35 323 48
465 32z m5 -135 c73 -6 196 -30 230 -46 12 -5 -79 -7 -238 -5 -228 4 -261 7
-278 22 -10 9 -19 20 -19 23 0 4 30 8 67 9 38 2 70 5 72 8 3 2 25 2 50 -1 25
-2 78 -7 116 -10z m433 -125 c17 -11 32 -16 32 -12 0 4 4 2 8 -4 4 -5 24 -18
45 -28 41 -19 155 -103 202 -149 29 -29 29 -29 5 -21 -14 4 -34 7 -44 6 -11 0
-34 11 -51 26 -58 51 -126 95 -197 129 -26 12 -37 25 -40 45 -5 33 -3 34 40 8z
m-198 -150 c6 -11 10 -48 8 -83 l-3 -62 -47 -3 -48 -4 0 74 c0 44 5 79 12 86
19 19 66 15 78 -8z m676 -252 c48 -70 48 -70 27 -60 -10 6 -30 15 -45 21 -17
6 -28 18 -28 30 0 19 9 51 15 51 1 0 15 -19 31 -42z m-1236 -82 c0 -2 -9 -6
-20 -9 -11 -3 -18 -1 -14 4 5 9 34 13 34 5z m54 -11 c11 -8 16 -18 12 -22 -4
-5 -13 -1 -19 8 -7 9 -19 18 -27 22 -13 5 -13 5 0 6 8 0 24 -6 34 -14z m379
-54 c-26 -21 -50 -36 -53 -34 -7 7 73 73 88 73 8 0 -8 -17 -35 -39z m-350 -33
c4 -23 0 -43 -9 -55 -12 -16 -14 -11 -12 44 3 67 12 71 21 11z m445 11 c2 -11
-11 -14 -52 -15 -49 0 -53 2 -43 17 25 41 87 39 95 -2z m432 -5 c0 -2 -9 -4
-20 -4 -11 0 -20 4 -20 9 0 5 9 7 20 4 11 -3 20 -7 20 -9z m-1020 -53 c0 -4 9
-17 20 -29 19 -20 20 -23 4 -46 -20 -32 -123 -91 -136 -78 -8 8 8 137 18 151
2 2 18 7 36 10 34 8 58 4 58 -8z m-974 -208 c20 -26 17 -50 -13 -104 -26 -49
-43 -62 -43 -33 0 25 31 154 37 154 3 0 12 -8 19 -17z m2484 -41 c0 -35 -15
-18 -18 20 -2 25 0 29 8 18 5 -8 10 -25 10 -38z m-1742 6 c-6 -16 -36 -34 -44
-26 -3 4 -4 14 -1 23 7 17 51 21 45 3z m-199 -68 c30 -28 52 -52 50 -54 -2 -2
-26 -6 -53 -7 -53 -4 -71 10 -34 26 29 13 29 37 1 50 -13 5 -23 15 -23 22 0
19 1 18 59 -37z m140 2 c-12 -9 -19 -25 -19 -48 0 -19 -5 -34 -11 -34 -7 0 -9
9 -6 23 3 12 9 39 12 59 6 33 9 36 25 25 18 -11 18 -11 -1 -25z m-259 -194
l-5 -113 -83 -3 c-79 -3 -83 -2 -91 22 -6 13 -9 65 -9 115 l1 91 96 0 96 0 -5
-112z m270 -15 c0 -27 -4 -33 -20 -33 -29 0 -35 24 -14 59 21 35 34 25 34 -26z
m1816 -87 c-5 -118 -25 -238 -41 -254 -3 -3 -13 2 -22 11 -15 14 -15 23 -5 64
17 71 26 159 25 238 -2 70 7 88 35 77 13 -4 14 -25 8 -136z m-1866 -203 c0
-23 -99 -123 -122 -123 -10 0 -18 3 -18 7 0 10 122 133 132 133 4 0 8 -8 8
-17z m1806 -132 c-9 -16 -16 -37 -16 -46 0 -19 -88 -191 -127 -251 -40 -60
-111 -152 -123 -159 -20 -12 -11 71 10 90 29 26 102 140 140 218 24 48 40 69
57 73 18 5 27 18 35 50 7 24 16 44 20 44 4 0 8 8 9 18 0 9 3 12 5 5 3 -6 -2
-25 -10 -42z m-307 -487 c9 -9 -56 -67 -204 -182 -5 -4 -26 -16 -45 -25 -19
-10 -56 -31 -82 -47 -27 -16 -48 -27 -48 -23 0 3 -6 1 -12 -5 -21 -17 -154
-60 -251 -81 -104 -23 -268 -38 -207 -20 19 6 42 17 51 25 9 9 39 18 65 21 27
2 56 8 64 13 8 4 35 11 60 15 24 4 51 11 60 15 63 33 167 67 176 59 6 -5 20
-6 30 -2 40 15 136 86 144 106 5 12 26 33 46 47 20 14 53 42 73 62 33 34 59
41 80 22z"/>
<path d="M1159 2783 c-13 -16 -12 -17 4 -4 9 7 17 15 17 17 0 8 -8 3 -21 -13z"/>
<path d="M1212 2790 c20 -52 41 -100 44 -97 5 5 -30 94 -40 104 -5 4 -7 1 -4
-7z"/>
<path d="M1265 2790 c-3 -5 1 -10 10 -10 9 0 13 5 10 10 -3 6 -8 10 -10 10 -2
0 -7 -4 -10 -10z"/>
<path d="M1065 2734 c-38 -13 -115 -47 -170 -75 -58 -30 -101 -46 -103 -40 -2
6 -8 11 -14 11 -6 0 10 -22 36 -50 25 -27 46 -56 46 -63 0 -8 7 -20 15 -27 8
-7 12 -17 8 -23 -3 -6 -1 -7 5 -3 15 9 16 -6 1 -21 -6 -6 -8 -17 -4 -23 6 -9
13 -6 26 11 10 13 19 19 19 13 0 -6 36 -47 80 -90 82 -79 95 -100 60 -91 -11
3 -18 1 -15 -4 4 -5 20 -7 38 -5 18 3 35 5 39 5 4 1 14 13 22 29 l14 27 32
-67 c38 -81 48 -89 19 -15 -42 105 -44 94 16 89 32 -3 55 0 59 7 5 8 -14 11
-62 11 -72 0 -102 -16 -102 -53 0 -9 -3 -16 -7 -16 -5 1 -66 62 -137 134
l-128 133 70 39 c60 33 237 184 214 183 -4 -1 -38 -12 -77 -26z m-16 -59 c-24
-25 -48 -44 -54 -42 -9 3 -63 -22 -111 -53 -24 -15 -54 -8 -54 13 0 8 24 27
53 43 63 34 157 74 157 66 0 -3 5 -1 12 6 7 7 18 12 26 12 8 0 -6 -20 -29 -45z"/>
<path d="M1406 2697 c3 -10 9 -15 12 -12 3 3 0 11 -7 18 -10 9 -11 8 -5 -6z"/>
<path d="M1660 2690 c-17 -17 -20 -33 -20 -99 0 -85 -8 -141 -20 -141 -4 0 -7
11 -7 25 0 14 3 25 8 25 17 0 9 27 -16 50 -36 33 -91 31 -122 -5 -13 -14 -23
-33 -23 -42 0 -11 6 -8 20 10 17 22 26 25 53 20 46 -8 69 -32 65 -65 -4 -24
-1 -28 19 -28 18 0 23 5 23 27 l0 27 40 -39 c22 -21 40 -36 40 -32 0 4 -16 23
-35 41 -35 34 -48 87 -25 101 7 4 7 12 0 24 -16 31 4 105 26 97 16 -6 19 9 4
19 -5 3 -18 -3 -30 -15z m-95 -139 c3 -6 -3 -9 -14 -8 -11 0 -17 5 -15 9 7 11
22 10 29 -1z m47 -45 c-4 -7 -8 -5 -10 7 -2 9 -8 17 -13 17 -5 0 -9 5 -9 12 0
6 8 3 20 -7 11 -10 16 -23 12 -29z"/>
<path d="M1426 2650 c8 -33 36 -92 41 -87 2 3 -8 29 -22 58 -13 30 -22 43 -19
29z"/>
<path d="M1717 2620 c3 -11 9 -22 13 -25 5 -3 6 4 3 15 -3 11 -9 22 -13 25 -5
3 -6 -4 -3 -15z"/>
<path d="M749 2603 c-1 -10 -1 -21 0 -25 0 -3 -16 -19 -37 -34 -56 -43 -132
-108 -132 -115 0 -5 139 20 148 27 11 8 37 164 27 164 -3 0 -6 -8 -6 -17z
m-27 -98 c-5 -27 -19 -38 -67 -49 l-30 -8 25 27 c13 14 36 32 50 39 14 8 26
14 26 15 1 1 -1 -10 -4 -24z"/>
<path d="M1234 2569 c-19 -22 -19 -22 4 -8 12 8 22 17 22 21 0 12 -6 9 -26
-13z"/>
<path d="M1048 2558 c5 -5 16 -8 23 -6 8 3 3 7 -10 11 -17 4 -21 3 -13 -5z"/>
<path d="M1100 2540 c8 -5 20 -10 25 -10 6 0 3 5 -5 10 -8 5 -19 10 -25 10 -5
0 -3 -5 5 -10z"/>
<path d="M1211 2524 c0 -11 3 -14 6 -6 3 7 2 16 -1 19 -3 4 -6 -2 -5 -13z"/>
<path d="M1497 2523 c-4 -3 -7 -21 -7 -39 0 -26 -5 -34 -22 -37 -20 -4 -19 -4
5 -6 24 -1 27 2 27 32 0 18 5 38 12 45 7 7 8 12 2 12 -6 0 -14 -3 -17 -7z"/>
<path d="M835 2420 c-16 -16 -25 -30 -19 -29 8 0 60 59 52 59 -3 0 -17 -13
-33 -30z"/>
<path d="M760 2415 c13 -14 26 -25 28 -25 3 0 -5 11 -18 25 -13 14 -26 25 -28
25 -3 0 5 -11 18 -25z"/>
<path d="M1654 2358 c-39 -98 -38 -95 -27 -83 14 14 66 145 61 150 -3 3 -18
-27 -34 -67z"/>
<path d="M635 2402 c11 -13 29 -28 40 -34 21 -11 18 -8 -30 32 -29 24 -29 24
-10 2z"/>
<path d="M501 2345 c-51 -60 -113 -147 -108 -151 1 -1 28 3 60 9 70 13 101 47
112 123 10 64 14 70 32 45 8 -12 20 -21 26 -21 7 0 35 -22 62 -50 48 -49 49
-49 67 -30 10 10 18 27 17 37 0 14 -2 13 -9 -4 -9 -23 -30 -32 -30 -13 0 6 -6
10 -14 10 -7 0 -27 16 -43 35 -17 19 -36 35 -43 35 -6 0 -23 9 -37 20 -14 11
-28 20 -32 19 -3 0 -30 -29 -60 -64z m44 -22 c-8 -48 -43 -89 -84 -98 -30 -6
-32 -5 -22 12 5 10 20 30 33 46 13 15 34 40 47 57 14 16 27 28 29 25 2 -2 1
-21 -3 -42z"/>
<path d="M862 2388 c6 -18 25 -20 31 -3 5 10 0 15 -14 15 -12 0 -19 -5 -17
-12z"/>
<path d="M941 2384 c0 -11 3 -14 6 -6 3 7 2 16 -1 19 -3 4 -6 -2 -5 -13z"/>
<path d="M760 2359 c-19 -11 -26 -17 -15 -13 11 4 28 7 37 8 9 0 14 4 12 8 -3
4 0 8 5 8 17 0 13 -30 -4 -36 -8 -4 -12 -10 -9 -15 3 -5 14 0 26 11 17 16 19
22 8 35 -16 19 -17 19 -60 -6z"/>
<path d="M901 2348 c2 -2 17 -14 33 -28 l29 -25 -19 27 c-10 15 -25 28 -33 28
-8 0 -12 -1 -10 -2z"/>
<path d="M1310 2330 c0 -5 6 -10 14 -10 8 0 18 5 21 10 3 6 -3 10 -14 10 -12
0 -21 -4 -21 -10z"/>
<path d="M630 2322 c0 -7 16 -23 55 -52 11 -8 4 3 -14 23 -37 39 -41 42 -41
29z"/>
<path d="M798 2288 c17 -17 15 -28 -4 -28 -14 0 -14 -3 -4 -15 17 -21 30 -19
30 4 0 28 -10 51 -23 51 -7 0 -7 -4 1 -12z"/>
<path d="M910 2265 c19 -19 36 -35 39 -35 3 0 -10 16 -29 35 -19 19 -36 35
-39 35 -3 0 10 -16 29 -35z"/>
<path d="M2110 2274 c0 -13 4 -24 9 -24 5 0 16 -3 25 -6 12 -5 16 0 16 19 0
18 -6 26 -25 29 -21 4 -25 1 -25 -18z"/>
<path d="M2210 2279 c-6 -11 -10 -41 -8 -67 3 -39 6 -47 23 -47 18 0 20 8 23
61 2 48 -1 63 -12 67 -10 4 -20 -2 -26 -14z m27 -54 c0 -25 -4 -48 -9 -51 -4
-3 -8 20 -8 51 0 31 4 54 9 51 5 -3 8 -26 8 -51z"/>
<path d="M2265 2290 c-3 -5 1 -10 10 -10 9 0 13 5 10 10 -3 6 -8 10 -10 10 -2
0 -7 -4 -10 -10z"/>
<path d="M995 2260 c16 -16 30 -28 32 -26 5 5 -45 56 -54 56 -4 0 6 -13 22
-30z"/>
<path d="M2410 2270 l-25 -20 35 0 c24 0 31 3 21 9 -7 5 -10 14 -7 20 10 15 5
14 -24 -9z"/>
<path d="M850 2276 c0 -2 8 -10 18 -17 15 -13 16 -12 3 4 -13 16 -21 21 -21
13z"/>
<path d="M550 2239 c0 -7 -8 -18 -17 -25 -17 -12 -16 -13 4 -14 12 0 31 -12
42 -26 12 -15 21 -22 21 -17 0 5 -11 20 -25 33 -17 16 -22 27 -15 34 13 13 13
26 0 26 -5 0 -10 -5 -10 -11z"/>
<path d="M665 2202 l-39 -47 40 37 39 37 30 -23 c25 -20 27 -26 16 -39 -11
-14 -10 -14 13 -4 l25 12 -36 38 c-21 20 -40 37 -43 36 -3 0 -23 -22 -45 -47z"/>
<path d="M765 2220 c16 -16 35 -30 44 -30 10 0 6 9 -14 30 -16 17 -35 30 -44
30 -10 0 -6 -9 14 -30z"/>
<path d="M1044 2147 c-98 -101 -92 -100 13 1 32 30 59 50 66 46 7 -4 9 -4 5 1
-4 4 -3 14 4 22 9 11 18 7 50 -24 49 -48 50 -33 0 17 l-38 39 -100 -102z"/>
<path d="M890 2236 c0 -2 8 -10 18 -17 15 -13 16 -12 3 4 -13 16 -21 21 -21
13z"/>
<path d="M1030 2211 c0 -6 -10 -16 -22 -21 -16 -6 -18 -9 -7 -9 19 -1 45 26
35 36 -3 3 -6 1 -6 -6z"/>
<path d="M1602 2190 c0 -14 2 -19 5 -12 2 6 2 18 0 25 -3 6 -5 1 -5 -13z"/>
<path d="M356 2138 c-22 -38 -96 -203 -96 -214 0 -2 23 -4 50 -4 30 0 50 -4
50 -11 0 -7 12 -9 31 -7 l30 5 -3 -86 c-2 -47 -7 -95 -11 -106 -5 -11 0 -6 9
10 11 19 20 60 23 110 l6 80 83 3 c62 2 82 6 82 17 0 21 -16 26 -44 14 -34
-16 -43 -6 -23 24 15 23 14 26 -8 47 -13 12 -27 35 -30 51 -7 29 -39 55 -61
51 -7 -1 -23 11 -37 28 l-26 30 -25 -42z m51 -9 c8 -8 1 -30 -22 -77 -18 -37
-35 -77 -39 -89 -5 -16 -15 -23 -31 -23 -31 0 -27 21 22 123 36 76 49 87 70
66z m67 -42 l25 -24 -39 -38 c-44 -43 -48 -59 -23 -87 15 -17 14 -18 -30 -18
-28 0 -47 5 -47 11 0 14 77 179 84 179 3 0 16 -10 30 -23z m50 -79 c7 -11 6
-24 -2 -43 -9 -20 -18 -25 -39 -22 -35 5 -40 26 -12 61 23 29 36 30 53 4z"/>
<path d="M440 2176 c0 -3 12 -17 27 -31 33 -30 78 -40 116 -26 49 19 51 1 6
-48 l-44 -46 49 47 c42 39 47 49 37 62 -11 13 -16 13 -46 -1 -40 -19 -72 -12
-114 23 -17 14 -31 23 -31 20z"/>
<path d="M801 2173 c0 -5 19 -24 42 -43 l42 -34 -40 42 c-40 43 -46 47 -44 35z"/>
<path d="M2268 2163 c7 -3 16 -2 19 1 4 3 -2 6 -13 5 -11 0 -14 -3 -6 -6z"/>
<path d="M1855 2150 c3 -5 16 -15 28 -21 22 -12 22 -12 3 10 -19 21 -43 30
-31 11z"/>
<path d="M2026 2153 c-3 -4 -6 -35 -6 -70 l0 -64 45 7 c37 5 55 2 99 -20 108
-53 209 -198 192 -274 l-7 -27 21 25 c24 30 25 54 5 110 -8 24 -13 45 -10 48
3 3 5 0 5 -6 0 -7 7 -12 16 -12 9 0 27 -9 41 -20 29 -23 60 -25 98 -8 35 16
31 25 -10 20 -28 -3 -40 1 -65 26 -34 34 -38 66 -13 102 l16 25 -26 -24 c-14
-13 -29 -36 -32 -52 -11 -50 -38 -45 -97 17 -81 87 -184 126 -234 89 -10 -8
-22 -15 -26 -15 -10 0 -10 62 -1 86 6 16 7 16 14 -2 6 -16 8 -15 8 7 1 25 -20
45 -33 32z m394 -264 c11 -19 10 -20 -9 -9 -22 11 -29 30 -11 30 5 0 14 -9 20
-21z"/>
<path d="M2076 2152 c-3 -6 1 -12 9 -16 8 -3 12 -12 9 -20 -3 -8 -1 -17 5 -21
17 -10 13 41 -3 54 -9 7 -17 8 -20 3z"/>
<path d="M675 2088 l-40 -43 43 40 c39 36 47 45 39 45 -2 0 -21 -19 -42 -42z"/>
<path d="M1260 2121 c0 -5 5 -13 10 -16 8 -5 7 -11 -1 -21 -8 -10 -8 -14 0
-14 6 0 11 4 11 10 0 5 8 7 18 4 10 -4 13 -2 7 3 -6 4 -18 16 -28 26 -9 10
-17 14 -17 8z"/>
<path d="M892 2109 c2 -7 10 -15 17 -17 8 -3 12 1 9 9 -2 7 -10 15 -17 17 -8
3 -12 -1 -9 -9z"/>
<path d="M2461 2086 c-17 -20 13 -43 34 -26 12 10 13 16 4 26 -6 8 -15 14 -19
14 -4 0 -13 -6 -19 -14z"/>
<path d="M863 2074 c-7 -18 11 -39 26 -30 17 11 13 26 -4 20 -11 -5 -13 -2 -9
10 3 9 3 16 0 16 -4 0 -9 -7 -13 -16z"/>
<path d="M1688 2025 c-26 -14 -53 -34 -61 -45 -13 -18 -21 -20 -84 -14 -112
10 -195 -14 -311 -90 -54 -35 -109 -77 -124 -92 -14 -16 -43 -69 -64 -119 -35
-83 -38 -99 -42 -210 l-4 -120 38 -80 c71 -146 198 -253 353 -299 151 -44 336
5 465 124 l42 39 210 -75 c411 -148 425 -153 430 -141 8 24 44 130 44 132 0 1
-27 5 -60 8 -33 4 -73 10 -88 13 -16 4 -23 3 -19 -2 5 -5 12 -9 15 -10 4 0 33
-4 65 -8 53 -7 57 -9 51 -29 -3 -12 -8 -24 -10 -26 -4 -4 -235 75 -299 103
-66 29 -95 38 -106 34 -13 -4 139 -65 301 -120 96 -33 105 -40 90 -68 -8 -15
-30 -8 -155 45 -34 14 -277 99 -315 110 -14 4 -38 13 -55 20 -51 22 -70 28
-77 27 -12 -3 -9 13 4 26 6 6 9 14 6 17 -3 4 -37 -24 -74 -62 -190 -189 -459
-203 -670 -36 -137 110 -205 320 -159 496 31 119 112 231 215 297 93 60 249
89 355 67 27 -6 33 -2 56 31 47 69 127 89 203 52 89 -43 120 -158 64 -232
l-27 -35 25 -37 c36 -52 54 -100 68 -175 7 -36 18 -67 24 -69 9 -3 11 4 8 20
-15 68 -15 135 0 180 l15 48 -27 25 c-15 14 -34 25 -43 25 -13 -1 -13 -3 3
-15 11 -8 23 -15 26 -15 4 0 2 -16 -4 -35 -10 -33 -26 -48 -26 -24 0 6 -9 24
-20 40 l-21 28 22 30 c13 18 24 51 28 87 l6 58 17 -26 c10 -15 15 -34 12 -42
-4 -10 -1 -16 9 -16 33 0 29 24 -10 61 -22 20 -50 53 -62 72 -26 42 -101 77
-163 77 -25 -1 -62 -11 -90 -25z"/>
<path d="M613 2026 c4 -10 -1 -13 -16 -10 -21 4 -21 4 -2 -5 29 -14 32 -13 38
9 3 13 0 20 -10 20 -9 0 -13 -6 -10 -14z"/>
<path d="M1971 2014 c-2 -59 66 -106 122 -85 29 11 37 31 12 31 -8 0 -15 -4
-15 -10 0 -5 -5 -10 -11 -10 -18 0 -90 61 -99 84 -8 18 -9 17 -9 -10z"/>
<path d="M2320 2005 c-13 -14 -18 -25 -12 -25 6 0 14 5 17 10 3 6 11 10 17 10
6 0 5 -7 -3 -17 -7 -10 -1 -7 13 6 27 24 29 41 4 41 -7 0 -23 -11 -36 -25z"/>
<path d="M2497 1992 c-38 -39 -47 -62 -24 -62 16 0 87 72 87 88 0 23 -26 12
-63 -26z m23 -17 c-18 -19 -36 -33 -38 -30 -8 8 40 65 56 65 11 0 6 -10 -18
-35z"/>
<path d="M2061 1984 c0 -11 3 -14 6 -6 3 7 2 16 -1 19 -3 4 -6 -2 -5 -13z"/>
<path d="M2576 1982 c7 -23 -49 -77 -70 -69 -9 4 -16 2 -16 -3 0 -21 38 -8 68
23 30 31 43 67 23 67 -5 0 -7 -8 -5 -18z"/>
<path d="M630 1958 c0 -9 5 -20 10 -23 13 -8 13 5 0 25 -8 13 -10 13 -10 -2z"/>
<path d="M819 1943 l-24 -28 28 24 c25 23 32 31 24 31 -2 0 -14 -12 -28 -27z"/>
<path d="M945 1952 c-5 -4 -21 -21 -35 -37 -22 -27 -21 -26 13 4 33 32 42 41
35 41 -2 0 -7 -4 -13 -8z"/>
<path d="M2640 1930 c17 -33 17 -33 24 -22 3 5 -4 18 -16 28 -21 19 -21 19 -8
-6z"/>
<path d="M616 1875 c7 -47 12 -55 24 -35 13 20 12 30 -2 28 -6 -2 -15 8 -19
22 -6 18 -7 13 -3 -15z"/>
<path d="M641 1894 c0 -11 3 -14 6 -6 3 7 2 16 -1 19 -3 4 -6 -2 -5 -13z"/>
<path d="M738 1893 c7 -3 16 -2 19 1 4 3 -2 6 -13 5 -11 0 -14 -3 -6 -6z"/>
<path d="M2070 1890 c0 -5 5 -10 11 -10 5 0 7 5 4 10 -3 6 -8 10 -11 10 -2 0
-4 -4 -4 -10z"/>
<path d="M2116 1851 c-36 -37 -41 -61 -12 -61 19 0 89 77 82 89 -12 19 -31 12
-70 -28z m25 -22 c-44 -38 -55 -28 -12 12 18 16 36 27 39 24 4 -3 -9 -20 -27
-36z"/>
<path d="M1423 1853 c15 -2 37 -2 50 0 12 2 0 4 -28 4 -27 0 -38 -2 -22 -4z"/>
<path d="M2041 1834 c-23 -30 -30 -84 -10 -77 4 1 15 -7 25 -18 16 -18 16 -19
1 -13 -24 9 -21 -13 2 -26 30 -16 73 -12 106 10 27 17 32 18 52 4 27 -17 31
-4 6 19 -16 13 -21 14 -43 2 -38 -22 -78 -18 -105 10 -27 26 -34 82 -13 103 7
7 9 12 6 12 -4 0 -16 -12 -27 -26z"/>
<path d="M2205 1852 c8 -15 -37 -69 -70 -82 -14 -6 -15 -9 -5 -9 9 -1 34 17
55 39 32 33 37 42 26 52 -11 11 -12 10 -6 0z"/>
<path d="M2257 1803 c-10 -9 -9 -41 2 -47 5 -3 15 2 22 11 12 15 12 16 -4 10
-15 -6 -17 -3 -12 13 6 20 4 25 -8 13z"/>
<path d="M327 1773 c-13 -12 -7 -26 6 -15 6 6 28 12 47 15 35 4 35 4 -6 5 -22
1 -44 -1 -47 -5z"/>
<path d="M1389 1774 c-50 -9 -133 -68 -166 -117 -125 -187 8 -437 233 -437 73
0 182 53 214 103 10 16 8 17 -22 12 -39 -7 -82 24 -71 52 5 12 3 14 -7 8 -10
-6 -12 -4 -7 8 22 54 22 53 4 38 -30 -24 -21 -66 23 -104 l40 -34 -53 -27
c-100 -50 -203 -40 -292 29 -46 34 -85 122 -85 189 0 31 3 56 8 56 4 0 17 -24
30 -53 26 -61 94 -121 156 -138 47 -13 122 -7 139 10 9 10 5 10 -16 2 -67 -26
-172 4 -229 65 -65 70 -93 214 -42 214 8 0 23 9 35 21 13 13 30 19 47 17 24
-3 27 -8 30 -46 3 -44 22 -49 22 -6 0 36 -18 64 -40 64 -38 0 -29 19 17 37 96
37 209 12 285 -62 41 -39 54 -71 44 -110 -5 -19 -3 -23 9 -19 9 4 15 0 15 -9
0 -9 2 -21 5 -29 4 -10 -5 -12 -40 -10 -51 4 -85 -16 -85 -50 0 -19 73 -98 90
-98 33 0 164 -76 221 -128 78 -71 115 -92 168 -92 47 0 64 19 80 91 13 58 1
105 -42 160 -53 70 -67 63 -33 -15 21 -47 15 -66 -20 -66 -18 0 -41 14 -72 45
-39 39 -43 47 -31 61 10 12 24 15 56 11 23 -2 42 -2 41 2 -2 22 5 28 30 23 15
-2 32 -9 39 -14 8 -6 10 -4 6 10 -8 31 10 33 62 7 27 -14 58 -25 69 -24 21 0
21 1 1 9 -15 7 -9 8 20 5 122 -13 188 -14 205 -5 14 8 26 7 42 -1 16 -9 23 -9
26 0 2 6 19 11 38 11 21 0 33 -4 29 -10 -3 -5 -2 -10 4 -10 17 0 51 52 50 79
0 25 0 26 -9 3 -5 -12 -25 -29 -43 -38 -45 -22 -84 -9 -115 37 l-24 34 4 -30
c3 -27 -1 -30 -42 -43 -55 -16 -179 -10 -230 11 -67 29 -113 77 -73 77 9 0 24
7 34 16 17 15 19 15 34 0 21 -20 45 -21 45 -1 0 9 -9 15 -25 15 -14 0 -25 4
-25 8 0 14 -64 1 -77 -16 -15 -19 -17 -68 -3 -77 6 -3 10 -10 10 -14 0 -12
-102 -27 -135 -20 -16 4 -60 7 -97 8 -37 0 -90 6 -118 12 -49 10 -50 11 -50
47 0 81 -71 181 -157 223 -43 21 -133 32 -184 23z m320 -300 c2 -2 -8 -4 -22
-4 -15 0 -27 -4 -27 -10 0 -5 17 -10 38 -10 45 0 112 -18 112 -29 0 -17 -49
-20 -95 -6 -53 16 -50 4 4 -14 45 -15 63 -14 86 3 16 12 17 16 6 29 -11 14 -4
16 69 13 44 -2 84 -6 87 -10 4 -3 -1 -6 -10 -6 -10 0 -17 -4 -17 -9 0 -5 -3
-16 -6 -24 -6 -18 58 -93 88 -102 12 -5 17 -12 13 -22 -7 -21 21 -63 43 -63
38 0 56 46 28 69 -8 7 -12 20 -9 31 3 11 0 33 -5 50 -14 40 -8 38 23 -7 27
-40 33 -100 15 -147 -21 -57 -110 -41 -201 37 -97 82 -129 104 -202 133 -67
27 -117 63 -117 84 0 22 77 33 99 14z m806 -14 c3 -5 2 -10 -4 -10 -5 0 -13 5
-16 10 -3 6 -2 10 4 10 5 0 13 -4 16 -10z m-826 -87 c2 -2 0 -3 -6 -3 -6 0
-21 9 -34 21 l-24 20 30 -17 c17 -10 32 -19 34 -21z m399 -105 c16 -16 15 -38
-2 -38 -18 0 -39 27 -31 40 8 13 18 13 33 -2z m-41 -106 c21 -4 33 -11 28 -14
-12 -7 -83 16 -99 32 -8 10 -6 10 11 1 12 -6 39 -15 60 -19z m63 -6 c0 -3 -4
-8 -10 -11 -5 -3 -10 -1 -10 4 0 6 5 11 10 11 6 0 10 -2 10 -4z"/>
<path d="M350 1744 c0 -3 6 -12 14 -20 16 -15 32 -2 21 16 -7 11 -35 14 -35 4z"/>
<path d="M2260 1728 c0 -8 -6 -23 -14 -33 -14 -19 -15 -19 -38 0 -15 13 -13 8
6 -12 l29 -33 19 30 c21 35 22 46 8 55 -5 3 -10 0 -10 -7z"/>
<path d="M670 1720 c-20 -12 -10 -19 14 -10 11 3 15 9 10 13 -6 3 -16 2 -24
-3z"/>
<path d="M2305 1710 c3 -5 10 -10 16 -10 5 0 9 5 9 10 0 6 -7 10 -16 10 -8 0
-12 -4 -9 -10z"/>
<path d="M1456 1686 c-9 -11 -16 -33 -16 -49 0 -67 90 -164 135 -146 20 7 20
8 -1 8 -28 1 -98 63 -114 100 -17 42 -6 79 25 87 37 9 81 -13 121 -60 29 -34
35 -47 32 -78 -2 -23 0 -34 6 -28 13 13 10 64 -5 92 -7 13 -12 27 -11 31 1 5
-2 6 -8 2 -5 -3 -10 -3 -10 2 0 16 -68 54 -102 56 -26 2 -40 -2 -52 -17z"/>
<path d="M375 1690 c3 -5 8 -10 11 -10 2 0 4 5 4 10 0 6 -5 10 -11 10 -5 0 -7
-4 -4 -10z"/>
<path d="M285 1680 c3 -6 20 -8 37 -5 16 3 36 1 44 -6 16 -13 44 -5 44 13 0 9
-3 8 -10 -2 -8 -12 -13 -13 -30 -2 -24 15 -94 17 -85 2z"/>
<path d="M2182 1650 c32 -30 58 -39 58 -20 0 5 -6 7 -13 4 -7 -2 -24 7 -37 21
-13 14 -27 25 -32 25 -5 0 6 -13 24 -30z"/>
<path d="M2300 1665 c0 -8 2 -15 4 -15 2 0 6 7 10 15 3 8 1 15 -4 15 -6 0 -10
-7 -10 -15z"/>
<path d="M264 1649 c-11 -4 21 -8 75 -8 52 -1 92 1 90 4 -9 8 -145 12 -165 4z"/>
<path d="M1250 1633 c0 -4 11 -19 25 -33 23 -24 24 -28 10 -40 -39 -32 10
-113 70 -115 6 0 20 -10 33 -23 27 -27 48 -28 62 -3 11 22 -6 75 -21 65 -5 -3
-15 10 -23 28 -22 48 -48 75 -83 82 -17 4 -40 16 -52 27 -11 11 -21 16 -21 12z
m122 -103 c33 -45 -3 -85 -48 -55 -25 16 -40 56 -29 75 12 19 57 7 77 -20z
m66 -88 c2 -14 -2 -22 -11 -22 -19 0 -40 26 -32 40 11 18 40 6 43 -18z"/>
<path d="M2304 1601 c1 -30 6 -46 16 -48 10 -3 11 -2 3 4 -6 4 -13 26 -16 48
-4 40 -4 40 -3 -4z"/>
<path d="M2537 1633 c-4 -3 -7 -33 -7 -65 0 -45 4 -60 16 -65 9 -3 20 0 25 8
10 16 12 90 3 113 -6 16 -26 21 -37 9z m30 -41 c1 -15 0 -38 -4 -52 -6 -22 -7
-21 -13 15 -6 41 -3 65 9 65 3 0 7 -12 8 -28z"/>
<path d="M2590 1636 c0 -2 7 -7 16 -10 8 -3 12 -2 9 4 -6 10 -25 14 -25 6z"/>
<path d="M2712 1620 c0 -14 2 -19 5 -12 2 6 2 18 0 25 -3 6 -5 1 -5 -13z"/>
<path d="M420 1559 c0 -62 2 -70 15 -59 16 13 21 25 7 16 -4 -2 -8 22 -7 55 1
32 -3 59 -7 59 -4 0 -8 -32 -8 -71z"/>
<path d="M741 1604 c0 -11 3 -14 6 -6 3 7 2 16 -1 19 -3 4 -6 -2 -5 -13z"/>
<path d="M2405 1610 c-3 -5 1 -10 10 -10 9 0 13 5 10 10 -3 6 -8 10 -10 10 -2
0 -7 -4 -10 -10z"/>
<path d="M2053 1603 c-25 -3 -33 -9 -33 -24 0 -26 23 -24 57 6 15 13 24 24 18
23 -5 -1 -25 -3 -42 -5z"/>
<path d="M2350 1574 c0 -19 5 -25 18 -22 25 5 28 43 2 45 -15 1 -20 -4 -20
-23z"/>
<path d="M2442 1578 c2 -15 11 -24 25 -26 18 -3 22 0 16 15 -13 36 -46 45 -41
11z"/>
<path d="M2612 1580 c0 -14 2 -19 5 -12 2 6 2 18 0 25 -3 6 -5 1 -5 -13z"/>
<path d="M742 1550 c0 -19 2 -27 5 -17 2 9 2 25 0 35 -3 9 -5 1 -5 -18z"/>
<path d="M300 1554 c0 -15 27 -50 34 -43 4 3 -2 17 -13 30 -11 13 -20 19 -21
13z"/>
<path d="M2600 1510 c-9 -6 -10 -10 -3 -10 6 0 15 5 18 10 8 12 4 12 -15 0z"/>
<path d="M323 1488 c-6 -7 -16 -23 -22 -35 -18 -34 5 -28 25 7 13 22 27 30 53
33 36 4 36 4 -5 5 -23 1 -46 -4 -51 -10z"/>
<path d="M735 1489 c-11 -17 1 -21 15 -4 8 9 8 15 2 15 -6 0 -14 -5 -17 -11z"/>
<path d="M477 1473 c-4 -3 -7 -11 -7 -17 0 -6 5 -5 12 2 6 6 9 14 7 17 -3 3
-9 2 -12 -2z"/>
<path d="M405 1459 c-10 -15 3 -25 16 -12 7 7 7 13 1 17 -6 3 -14 1 -17 -5z"/>
<path d="M372 1418 c-5 -5 -24 -10 -41 -10 -17 -1 -34 -5 -37 -10 -7 -11 29
-10 63 3 15 6 36 12 47 15 29 5 30 12 2 12 -13 0 -29 -5 -34 -10z"/>
<path d="M470 1419 c0 -5 5 -7 10 -4 6 3 10 8 10 11 0 2 -4 4 -10 4 -5 0 -10
-5 -10 -11z"/>
<path d="M2323 1413 c15 -2 37 -2 50 0 12 2 0 4 -28 4 -27 0 -38 -2 -22 -4z"/>
<path d="M2140 1406 c0 -3 9 -10 20 -16 11 -6 20 -8 20 -6 0 3 -9 10 -20 16
-11 6 -20 8 -20 6z"/>
<path d="M2615 1400 l-30 -8 27 -1 c16 -1 29 -8 32 -18 2 -10 7 -28 11 -40 6
-23 5 -23 -75 -23 -77 0 -83 2 -111 29 -16 16 -29 37 -29 45 0 10 -9 16 -25
16 -17 0 -25 -5 -25 -17 0 -16 2 -16 11 -3 9 13 12 12 22 -4 15 -25 48 -58 73
-73 15 -9 -12 -12 -141 -14 -88 -1 -166 -2 -173 -2 -8 1 -9 -3 -3 -11 5 -6 11
-20 14 -31 4 -18 5 -18 6 3 l1 23 235 -3 235 -3 0 73 c0 77 1 76 -55 62z m8
-107 c-13 -2 -33 -2 -45 0 -13 2 -3 4 22 4 25 0 35 -2 23 -4z"/>
<path d="M2488 1389 c24 -4 52 -4 65 1 16 6 5 9 -43 8 -63 0 -64 0 -22 -9z"/>
<path d="M2205 1380 c4 -6 11 -8 16 -5 14 9 11 15 -7 15 -8 0 -12 -5 -9 -10z"/>
<path d="M2295 1340 c-42 -11 -1 -11 50 -1 34 7 35 9 10 9 -16 0 -43 -4 -60
-8z"/>
<path d="M2218 1323 c6 -2 18 -2 25 0 6 3 1 5 -13 5 -14 0 -19 -2 -12 -5z"/>
<path d="M2168 1313 c6 -2 18 -2 25 0 6 3 1 5 -13 5 -14 0 -19 -2 -12 -5z"/>
<path d="M1676 1291 c14 -14 106 -52 99 -41 -5 9 -90 50 -103 50 -3 0 -2 -4 4
-9z"/>
<path d="M821 1264 c0 -11 3 -14 6 -6 3 7 2 16 -1 19 -3 4 -6 -2 -5 -13z"/>
<path d="M1797 1251 c-4 -17 4 -31 31 -56 20 -19 40 -35 45 -35 16 0 6 20 -20
40 -16 12 -33 33 -39 47 -11 25 -11 25 -17 4z"/>
<path d="M770 1195 c-24 -25 -42 -45 -39 -45 3 0 25 20 49 45 24 25 42 45 39
45 -3 0 -25 -20 -49 -45z"/>
<path d="M2530 1218 c-12 -22 -12 -22 6 -6 10 10 15 20 12 24 -4 3 -12 -5 -18
-18z"/>
<path d="M948 1190 c-4 -34 -38 -101 -137 -270 l-132 -225 22 -17 c11 -10 25
-18 30 -18 10 0 163 269 157 276 -5 5 -40 -45 -78 -111 -58 -102 -83 -136 -93
-126 -6 6 8 39 41 93 60 100 156 268 187 324 17 32 21 51 16 80 l-7 39 -6 -45z"/>
<path d="M490 1214 c0 -5 16 -25 35 -44 45 -44 45 -32 0 17 -19 21 -35 33 -35
27z"/>
<path d="M2200 1203 c0 -6 9 -21 21 -34 l20 -24 -17 30 c-24 39 -24 40 -24 28z"/>
<path d="M580 1191 c0 -11 50 -44 50 -34 0 5 10 -7 21 -25 12 -18 24 -30 27
-27 3 2 -2 13 -10 22 -8 10 -18 26 -21 35 -4 10 -12 15 -20 12 -8 -3 -17 2
-20 10 -7 17 -27 22 -27 7z"/>
<path d="M698 1143 c7 -3 16 -2 19 1 4 3 -2 6 -13 5 -11 0 -14 -3 -6 -6z"/>
<path d="M2161 1135 c50 -27 229 -84 234 -74 4 5 -1 10 -9 10 -9 1 -19 2 -23
3 -30 8 -88 28 -147 50 -76 29 -95 33 -55 11z"/>
<path d="M2256 1141 c12 -11 84 -34 89 -29 3 2 -18 12 -47 21 -28 9 -47 12
-42 8z"/>
<path d="M2415 1090 c3 -5 8 -10 11 -10 2 0 4 5 4 10 0 6 -5 10 -11 10 -5 0
-7 -4 -4 -10z"/>
<path d="M2448 1083 c7 -3 16 -2 19 1 4 3 -2 6 -13 5 -11 0 -14 -3 -6 -6z"/>
<path d="M2580 1050 c18 -15 26 -17 37 -9 21 18 15 26 -23 27 l-36 1 22 -19z"/>
<path d="M1068 872 c-183 -304 -208 -352 -203 -375 4 -14 28 -33 66 -53 l60
-32 101 172 c55 94 115 196 133 226 18 30 45 79 59 107 l26 53 -42 21 c-24 12
-55 30 -69 40 l-25 18 -106 -177z m133 128 c6 0 23 -9 39 -20 15 -11 30 -17
34 -13 3 3 6 -1 6 -10 0 -25 -123 -226 -134 -220 -5 4 -6 1 -1 -6 4 -8 -1 -25
-14 -42 -11 -15 -21 -30 -21 -33 0 -2 -20 -39 -45 -80 -25 -42 -45 -83 -45
-91 0 -17 -16 -20 -25 -5 -9 15 -25 12 -25 -4 0 -8 -4 -18 -10 -21 -13 -8 -82
44 -74 56 3 5 7 17 9 26 1 10 25 56 53 103 133 228 196 335 200 340 9 12 32
-37 32 -69 0 -29 -24 -74 -115 -216 -63 -99 -119 -179 -123 -178 -4 1 -16 4
-27 8 -17 6 -17 4 4 -14 l24 -21 26 28 c14 16 51 69 82 118 123 195 149 242
149 276 0 36 -32 93 -45 81 -4 -5 -2 3 5 16 11 21 14 22 22 8 5 -10 14 -17 19
-17z"/>
<path d="M1010 1021 c26 -50 13 -86 -110 -297 -66 -113 -120 -207 -120 -210 0
-2 4 -4 10 -4 5 0 25 28 45 63 20 34 40 69 45 77 116 192 160 277 160 312 0
42 -14 78 -31 78 -6 0 -6 -7 1 -19z"/>
<path d="M1812 1008 c2 -6 15 -13 29 -14 23 -4 23 -3 5 11 -24 18 -39 19 -34
3z"/>
<path d="M1827 911 c-37 -55 -52 -71 -71 -71 -21 0 -27 -9 -45 -65 -12 -35
-21 -66 -21 -67 0 -2 30 -2 68 0 l67 3 45 -63 c25 -35 71 -100 103 -145 49
-70 77 -99 77 -78 0 9 -89 131 -109 149 -30 27 -26 36 17 36 47 0 73 -18 106
-75 15 -25 29 -45 32 -45 11 0 -39 76 -67 103 -23 21 -39 27 -73 27 -38 0 -48
4 -65 29 -26 36 -26 39 2 44 19 4 19 4 -5 6 -31 1 -78 21 -78 32 0 4 12 17 28
29 23 18 35 21 75 15 57 -7 235 -64 317 -101 55 -25 58 -27 48 -50 l-11 -23
-29 21 c-30 21 -159 70 -166 63 -8 -8 9 -23 34 -29 15 -4 60 -23 101 -42 41
-20 77 -33 80 -31 9 9 14 102 6 113 -5 6 -19 15 -33 19 l-25 8 24 -20 c33 -27
14 -35 -29 -14 -67 33 -265 93 -321 98 -52 5 -58 3 -92 -26 -26 -24 -44 -31
-65 -29 -27 3 -28 5 -20 36 7 26 18 38 51 52 23 11 36 20 29 20 -9 0 -3 14 16
38 16 20 34 47 41 60 19 36 72 28 85 -14 11 -37 43 -56 127 -75 45 -11 84 -18
86 -15 2 2 -35 13 -84 25 -88 20 -123 43 -123 78 0 11 6 13 23 9 12 -4 48 -14
81 -22 32 -8 70 -21 85 -28 14 -8 75 -33 134 -57 111 -43 137 -59 137 -85 0
-8 5 -12 10 -9 6 3 10 17 10 29 0 20 -16 30 -107 71 -146 64 -335 126 -403
132 l-55 5 -48 -71z"/>
<path d="M1316 954 c-4 -10 6 -16 32 -20 20 -3 46 -12 56 -19 18 -13 18 -15
-1 -42 -11 -15 -23 -35 -26 -43 -4 -8 -17 -31 -28 -50 -12 -19 -33 -55 -47
-80 -14 -25 -33 -57 -43 -72 -11 -14 -19 -29 -19 -33 0 -3 -15 -30 -34 -59
-54 -84 -107 -186 -97 -186 6 0 18 12 29 28 32 45 315 533 311 535 -2 1 -14 8
-26 15 -13 6 -41 18 -62 26 -34 11 -41 11 -45 0z"/>
<path d="M2271 930 c-14 -12 -18 -20 -10 -20 8 0 20 9 27 20 15 25 13 25 -17
0z"/>
<path d="M1305 910 c22 -76 22 -75 -119 -304 -75 -120 -136 -223 -136 -227 0
-17 17 -9 28 14 14 25 20 36 85 135 26 40 47 74 47 77 0 5 82 138 90 145 3 3
14 23 26 45 22 45 17 96 -13 125 -14 13 -15 12 -8 -10z"/>
<path d="M1698 903 c7 -3 16 -2 19 1 4 3 -2 6 -13 5 -11 0 -14 -3 -6 -6z"/>
<path d="M1568 893 c12 -2 30 -2 40 0 9 3 -1 5 -23 4 -22 0 -30 -2 -17 -4z"/>
<path d="M1643 893 c9 -2 23 -2 30 0 6 3 -1 5 -18 5 -16 0 -22 -2 -12 -5z"/>
<path d="M1843 823 c9 -2 23 -2 30 0 6 3 -1 5 -18 5 -16 0 -22 -2 -12 -5z"/>
<path d="M2198 818 c5 -5 16 -8 23 -6 8 3 3 7 -10 11 -17 4 -21 3 -13 -5z"/>
<path d="M1495 809 c-47 -5 -73 -13 -82 -25 -7 -10 -12 -19 -10 -20 1 -1 36 4
77 11 41 8 105 14 141 14 50 1 68 5 73 16 4 12 -6 15 -62 14 -37 -1 -98 -5
-137 -10z"/>
<path d="M1920 811 c39 -12 107 -21 90 -12 -8 5 -37 11 -65 14 -31 4 -40 3
-25 -2z"/>
<path d="M2250 800 c8 -5 20 -10 25 -10 6 0 3 5 -5 10 -8 5 -19 10 -25 10 -5
0 -3 -5 5 -10z"/>
<path d="M2040 786 c0 -2 7 -6 15 -10 8 -3 15 -1 15 4 0 6 -7 10 -15 10 -8 0
-15 -2 -15 -4z"/>
<path d="M2090 771 c24 -14 66 -25 55 -13 -5 5 -23 12 -40 16 -20 4 -25 3 -15
-3z"/>
<path d="M2317 769 c7 -7 15 -10 18 -7 3 3 -2 9 -12 12 -14 6 -15 5 -6 -5z"/>
<path d="M1484 740 c-30 -12 -38 -39 -18 -61 24 -27 88 -25 116 3 l21 21 -27
24 c-28 24 -56 28 -92 13z m75 -42 c-8 -15 -13 -17 -25 -7 -8 6 -18 9 -21 5
-4 -4 -1 -11 7 -16 8 -6 11 -10 5 -10 -17 0 -40 19 -40 32 0 17 21 25 56 20
25 -4 27 -7 18 -24z"/>
<path d="M2168 743 c7 -3 16 -2 19 1 4 3 -2 6 -13 5 -11 0 -14 -3 -6 -6z"/>
<path d="M2370 746 c0 -2 8 -10 18 -17 15 -13 16 -12 3 4 -13 16 -21 21 -21
13z"/>
<path d="M2200 736 c0 -2 7 -7 16 -10 8 -3 12 -2 9 4 -6 10 -25 14 -25 6z"/>
<path d="M2300 711 c0 -13 55 -51 72 -51 7 1 -3 14 -22 30 -35 31 -50 37 -50
21z"/>
<path d="M1945 680 c17 -4 44 -8 60 -8 l30 0 -30 8 c-16 4 -43 8 -60 8 l-30 0
30 -8z"/>
<path d="M2040 662 c0 -15 119 -172 131 -172 15 0 11 7 -56 98 -56 75 -75 94
-75 74z"/>
<path d="M1467 626 c-3 -8 -16 -16 -29 -19 -21 -4 -21 -4 3 -6 24 -1 48 24 35
36 -2 2 -6 -3 -9 -11z"/>
<path d="M1376 615 c4 -8 8 -15 10 -15 2 0 4 7 4 15 0 8 -4 15 -10 15 -5 0 -7
-7 -4 -15z"/>
<path d="M1600 606 c0 -27 17 -36 64 -36 39 0 77 25 69 46 -6 17 -27 14 -29
-4 -1 -7 -2 -16 -3 -22 -1 -11 -46 -8 -74 5 -13 5 -15 10 -7 15 8 5 7 9 -4 13
-12 5 -16 0 -16 -17z"/>
<path d="M1335 610 c3 -5 8 -10 11 -10 2 0 4 5 4 10 0 6 -5 10 -11 10 -5 0 -7
-4 -4 -10z"/>
<path d="M1653 603 c9 -2 23 -2 30 0 6 3 -1 5 -18 5 -16 0 -22 -2 -12 -5z"/>
<path d="M1815 595 c-40 -18 -16 -19 26 0 19 8 27 14 19 14 -8 0 -28 -6 -45
-14z"/>
<path d="M1740 570 c-18 -12 -2 -12 25 0 13 6 15 9 5 9 -8 0 -22 -4 -30 -9z"/>
<path d="M1888 553 c7 -3 16 -2 19 1 4 3 -2 6 -13 5 -11 0 -14 -3 -6 -6z"/>
<path d="M1620 544 c-8 -2 -67 -10 -130 -17 -70 -8 -103 -15 -85 -18 36 -6
211 18 234 31 16 10 8 11 -19 4z"/>
<path d="M1765 525 c-28 -8 -39 -13 -25 -13 14 0 43 5 65 13 51 17 25 17 -40
0z"/>
<path d="M1300 508 c0 -4 5 -10 10 -13 6 -4 10 -12 9 -18 -3 -27 3 -36 32 -46
42 -14 51 -14 75 4 17 13 15 14 -27 9 -44 -6 -47 -5 -62 24 -15 30 -14 31 12
41 24 9 24 10 -11 8 -21 -1 -38 -5 -38 -9z"/>
<path d="M1680 510 c-23 -7 -23 -8 -3 -9 12 -1 25 4 28 9 3 6 5 10 3 9 -2 -1
-14 -5 -28 -9z"/>
<path d="M825 500 c-3 -5 -1 -10 4 -10 6 0 11 5 11 10 0 6 -2 10 -4 10 -3 0
-8 -4 -11 -10z"/>
<path d="M1573 493 c15 -2 37 -2 50 0 12 2 0 4 -28 4 -27 0 -38 -2 -22 -4z"/>
<path d="M1885 490 c-25 -11 1 -11 35 0 20 6 21 8 5 8 -11 0 -29 -3 -40 -8z"/>
<path d="M1270 483 c0 -6 8 -17 18 -24 16 -13 16 -13 2 6 -8 11 -16 22 -17 24
-2 2 -3 0 -3 -6z"/>
<path d="M1448 485 c-3 -3 -25 -10 -49 -15 l-44 -9 45 2 c43 2 45 0 54 -30 13
-41 31 -49 31 -13 0 20 -4 26 -14 22 -9 -3 -12 -1 -7 6 4 7 2 12 -3 12 -23 0
-9 19 17 23 l27 4 -26 2 c-14 0 -28 -1 -31 -4z"/>
<path d="M1757 473 c-15 -2 -25 -9 -21 -14 3 -5 10 -7 15 -4 5 3 28 10 51 14
32 7 35 9 13 8 -16 0 -42 -2 -58 -4z"/>
<path d="M2106 467 c3 -10 9 -15 12 -12 3 3 0 11 -7 18 -10 9 -11 8 -5 -6z"/>
<path d="M1572 451 c2 -21 -17 -51 -36 -54 -11 -3 -5 -4 14 -4 29 2 36 6 38
26 3 22 7 23 49 17 25 -3 58 -6 72 -6 18 0 30 -7 36 -22 8 -18 20 -24 54 -26
27 -2 49 2 60 11 10 10 23 12 36 7 27 -11 47 -12 41 -1 -3 4 -18 11 -33 14
-16 3 -37 9 -47 13 -13 5 -17 4 -12 -4 11 -18 -29 -33 -59 -22 -14 5 -24 14
-20 19 6 12 -29 33 -39 24 -3 -3 -6 -1 -6 6 0 8 -22 11 -75 10 -41 -1 -74 -4
-73 -8z"/>
<path d="M1230 446 c0 -2 8 -10 18 -17 15 -13 16 -12 3 4 -13 16 -21 21 -21
13z"/>
<path d="M1964 419 c-19 -22 -19 -22 4 -8 12 8 22 17 22 21 0 12 -6 9 -26 -13z"/>
<path d="M1230 395 c19 -19 36 -35 39 -35 3 0 -10 16 -29 35 -19 19 -36 35
-39 35 -3 0 10 -16 29 -35z"/>
<path d="M1798 413 c7 -3 16 -2 19 1 4 3 -2 6 -13 5 -11 0 -14 -3 -6 -6z"/>
<path d="M1270 403 c0 -6 7 -16 15 -23 17 -14 21 -35 5 -25 -5 3 -10 3 -9 -2
0 -12 109 -96 116 -90 3 3 -15 25 -39 49 -24 24 -54 56 -66 72 -12 16 -22 24
-22 19z"/>
<path d="M1365 370 c21 -22 41 -40 44 -40 3 0 -13 18 -34 40 -21 22 -41 40
-44 40 -3 0 13 -18 34 -40z"/>
<path d="M1660 396 c30 -8 57 -12 59 -10 9 8 -6 13 -59 18 l-55 6 55 -14z"/>
<path d="M1414 371 c10 -10 45 -38 79 -61 60 -40 56 -35 -27 32 -35 28 -37 32
-20 39 14 6 11 8 -15 8 -33 1 -33 0 -17 -18z"/>
<path d="M1170 374 c0 -6 15 -23 32 -40 l33 -29 -25 30 c-14 17 -28 34 -32 40
-5 5 -8 5 -8 -1z"/>
<path d="M1628 352 c44 -14 51 -19 40 -30 -11 -11 -8 -11 16 -1 l29 13 -29 12
c-16 7 -47 15 -69 18 -36 5 -35 4 13 -12z"/>
<path d="M1445 290 c10 -11 20 -20 23 -20 3 0 -3 9 -13 20 -10 11 -20 20 -23
20 -3 0 3 -9 13 -20z"/>
<path d="M1007 253 c-4 -3 -7 -13 -7 -22 1 -13 3 -13 11 2 11 19 8 33 -4 20z"/>
</g>
</svg>
