<?xml version="1.0" standalone="no"?>
<!DOCTYPE svg PUBLIC "-//W3C//DTD SVG 20010904//EN"
 "http://www.w3.org/TR/2001/REC-SVG-20010904/DTD/svg10.dtd">
<svg version="1.0" xmlns="http://www.w3.org/2000/svg"
 width="225.000000pt" height="225.000000pt" viewBox="0 0 225.000000 225.000000"
 preserveAspectRatio="xMidYMid meet">
<metadata>
Created by potrace 1.10, written by Peter Selinger 2001-2011
</metadata>
<g transform="translate(0.000000,225.000000) scale(0.100000,-0.100000)"
fill="#000000" stroke="none">
<path d="M480 1805 c-30 -18 -85 -48 -122 -66 l-68 -33 0 -558 0 -558 -25 0
c-21 0 -25 -5 -25 -30 l0 -30 88 0 87 0 -1 173 c-1 98 3 177 9 185 5 6 6 12 1
12 -13 0 -78 -41 -86 -54 -5 -6 -8 -2 -8 12 0 14 11 29 33 43 l32 20 -40 -7
c-37 -7 -39 -6 -25 10 11 14 24 17 55 13 36 -5 38 -4 21 9 -11 8 -30 14 -43
14 -13 0 -23 5 -23 10 0 13 46 13 71 -1 20 -10 20 -10 3 17 -18 27 -18 27 4
15 21 -11 27 -23 22 -46 -1 -5 7 -2 18 8 10 9 31 17 45 17 25 0 27 3 27 46 0
38 3 45 16 40 27 -10 253 -36 377 -43 105 -5 117 -8 117 -25 0 -12 -7 -18 -23
-18 -12 0 -33 -7 -45 -16 -21 -14 -22 -14 -22 5 0 11 -10 26 -22 32 -22 12
-22 12 -5 -15 10 -14 13 -26 8 -26 -5 0 -13 5 -16 10 -8 13 -62 13 -70 0 -3
-5 -11 -10 -17 -10 -6 0 -4 8 5 18 24 26 21 39 -3 17 -11 -10 -20 -24 -20 -32
0 -8 -5 -11 -10 -8 -6 4 -8 11 -5 16 4 5 -12 9 -35 9 -23 0 -39 -4 -35 -9 3
-5 1 -12 -5 -16 -5 -3 -10 0 -10 8 0 15 -31 47 -45 47 -5 0 2 -11 15 -25 13
-14 18 -25 12 -25 -7 0 -12 5 -12 10 0 16 -52 11 -72 -7 -15 -14 -18 -14 -18
-1 0 8 -9 23 -20 33 -11 10 -20 13 -20 7 0 -6 5 -14 10 -17 17 -10 11 -23 -8
-18 -10 2 -34 -2 -53 -10 l-34 -15 40 1 c56 3 60 -17 5 -24 -25 -3 -37 -7 -27
-7 23 -2 45 -48 30 -63 -8 -8 -13 -6 -17 8 -3 10 -14 23 -24 29 -16 10 -18 7
-19 -30 -1 -22 -4 -105 -8 -183 l-8 -143 62 0 c60 0 61 0 61 -27 l0 -28 -160
3 -160 3 0 -36 0 -35 916 0 c831 0 916 1 910 16 -3 9 -6 24 -6 35 0 19 -10 20
-555 17 l-555 -3 0 28 0 27 78 0 77 0 1 168 c1 92 5 176 9 186 8 18 5 17 -33
-4 -39 -22 -42 -27 -42 -67 l0 -43 -46 0 c-40 0 -45 2 -39 18 4 9 9 34 12 55
6 40 14 45 33 22 11 -14 15 -13 27 5 9 12 25 26 37 31 17 8 13 9 -17 5 -24 -3
-35 -1 -31 5 10 18 48 27 72 18 12 -5 22 -5 22 0 0 14 -64 34 -68 21 -2 -5
-18 -10 -35 -10 -39 0 -25 14 28 29 31 8 44 8 62 -4 27 -18 30 -9 6 18 -17 19
-17 19 2 16 11 -2 24 -14 30 -26 10 -18 13 -19 30 -7 21 16 65 19 65 5 0 -5
-13 -12 -30 -16 -43 -10 -45 -22 -3 -21 22 1 38 -4 41 -13 4 -11 -3 -12 -32
-7 -23 4 -36 3 -36 -4 0 -5 7 -10 15 -10 15 0 32 -46 21 -57 -3 -3 -15 6 -27
20 -25 33 -42 35 -30 5 5 -14 4 -34 -1 -48 -6 -14 -12 -85 -15 -158 l-6 -132
465 0 466 0 4 30 c4 26 1 30 -19 30 l-23 0 0 560 c0 332 -4 560 -9 560 -9 0
-185 93 -227 119 -18 12 -27 9 -82 -28 -101 -69 -234 -118 -399 -145 -28 -5
-33 -2 -33 14 0 11 -4 20 -10 20 -5 0 -10 16 -10 35 0 25 -4 35 -16 35 -8 0
-21 15 -29 34 -24 57 -80 56 -105 -4 -8 -19 -20 -30 -32 -30 -17 0 -20 -5 -16
-35 2 -19 0 -35 -4 -35 -4 0 -8 -9 -8 -20 0 -11 -2 -20 -4 -20 -2 0 -40 7 -83
15 -142 27 -302 91 -370 149 -17 14 -35 26 -39 25 -5 0 -34 -16 -64 -34z m691
-37 c24 -28 62 -98 53 -98 -4 0 -1 -7 6 -15 7 -8 15 -13 19 -11 3 2 16 -7 29
-20 12 -13 17 -24 11 -24 -14 0 -46 -36 -54 -61 -3 -10 -2 -33 3 -51 5 -18 5
-42 1 -53 -10 -25 -11 -89 -2 -99 8 -8 12 -46 4 -46 -3 0 -7 -20 -9 -45 -1
-25 1 -45 6 -45 5 0 8 -13 8 -30 0 -16 -3 -30 -7 -30 -10 0 -4 -80 7 -88 12
-9 16 -32 7 -33 -72 -8 -123 -7 -123 1 0 5 -5 10 -11 10 -5 0 -7 -5 -4 -10 4
-6 -10 -3 -29 7 -20 9 -32 19 -27 22 17 11 23 61 11 90 -8 21 -9 39 -1 69 8
28 8 48 1 68 -8 20 -8 41 1 74 10 39 9 51 -5 77 -9 18 -12 34 -7 37 5 3 11 19
15 36 6 32 -16 90 -34 90 -18 0 -10 22 20 57 17 18 30 40 30 48 0 24 2 29 18
41 9 7 12 16 7 24 -5 8 -4 11 2 7 6 -4 13 0 17 8 7 20 14 19 37 -7z m609 13
c0 -5 -8 -12 -17 -14 -16 -4 -16 -5 -1 -6 9 0 19 3 23 9 3 5 21 0 43 -12 20
-12 59 -32 85 -46 27 -14 52 -33 57 -43 5 -9 11 -254 12 -558 l3 -541 -30 0
c-16 -1 -198 -2 -403 -3 l-372 -2 -6 34 c-12 60 2 178 24 206 l20 25 15 -48
c10 -29 12 -51 6 -57 -20 -20 -9 -63 22 -90 l32 -26 238 3 c226 3 240 4 259
24 25 25 31 70 14 105 -8 17 -10 29 -3 36 17 17 20 82 4 106 -19 29 -19 38 -4
48 9 5 12 27 10 71 -4 76 -4 249 -1 336 2 35 -2 68 -7 73 -7 7 -6 22 2 47 13
37 11 112 -3 122 -10 7 -9 21 5 45 11 21 11 64 -1 102 -8 27 -65 38 -83 16 -6
-8 -14 -10 -17 -5 -3 6 1 13 10 16 8 3 12 11 8 17 -4 8 -3 9 4 5 7 -4 20 -2
29 3 22 13 23 13 23 2z m-1220 -11 c0 -5 7 -10 15 -10 8 0 15 -5 15 -11 0 -6
7 -8 16 -5 10 4 13 2 8 -6 -5 -7 -2 -9 8 -6 8 4 21 3 27 -2 8 -5 2 -8 -15 -8
-16 0 -37 7 -46 15 -9 8 -22 12 -29 7 -7 -4 -10 -3 -6 3 4 6 0 14 -9 17 -9 3
-12 2 -9 -5 4 -6 -2 -13 -13 -16 -25 -6 -34 -39 -26 -95 9 -58 9 -79 -1 -102
-7 -15 -5 -17 6 -11 12 7 12 6 1 -7 -9 -11 -11 -29 -7 -50 12 -65 13 -78 5
-78 -7 0 -7 -25 0 -145 1 -11 0 -48 -2 -83 -2 -34 1 -62 5 -62 5 0 5 -4 2 -10
-3 -5 -1 -10 4 -10 6 0 1 -16 -10 -36 -17 -30 -17 -36 -4 -30 9 3 13 2 10 -4
-7 -11 -66 -5 -74 8 -8 11 -71 -5 -71 -18 0 -15 -30 -12 -30 3 0 6 0 155 0
331 0 246 4 323 14 337 7 10 16 16 19 12 4 -3 7 0 7 7 0 7 3 11 6 7 3 -3 24 6
46 20 66 41 138 64 138 43z m0 -55 c42 -51 344 -155 450 -155 29 0 30 -2 30
-46 0 -36 -3 -45 -14 -41 -8 3 -43 11 -77 17 -67 12 -283 77 -364 108 l-50 20
-3 56 c-3 56 5 69 28 41z m1220 -39 l0 -54 -82 -32 c-99 -38 -221 -73 -340
-99 l-88 -19 0 42 0 42 88 13 c133 21 314 88 387 145 31 24 35 20 35 -38z
m-209 -7 c-24 -11 -49 -18 -55 -15 -6 2 -3 5 7 5 11 1 15 5 11 13 -5 7 -2 9 7
6 8 -3 23 -2 34 3 41 16 38 7 -4 -12z m-881 -155 c69 -24 176 -53 238 -66
l112 -23 0 -47 c0 -27 -4 -48 -9 -48 -32 0 -278 56 -359 82 -53 17 -107 33
-119 35 -21 5 -23 11 -23 65 0 54 2 59 18 52 9 -4 73 -27 142 -50z m1090 1 c0
-65 11 -58 -170 -110 -104 -30 -196 -51 -302 -69 l-38 -7 0 49 0 49 73 13 c89
15 282 71 362 104 33 13 63 25 68 25 4 1 7 -24 7 -54z m-1204 -121 c91 -38
366 -104 435 -104 28 0 29 -2 29 -50 0 -49 -1 -49 -27 -45 -16 3 -100 16 -188
30 -88 14 -190 30 -227 37 l-68 12 0 68 c0 37 2 68 4 68 2 0 21 -7 42 -16z
m1204 -52 l0 -68 -72 -13 c-40 -7 -143 -23 -228 -36 -85 -14 -167 -27 -182
-30 -27 -4 -28 -4 -28 45 0 48 1 50 28 50 64 0 272 48 390 90 43 15 80 28 85
29 4 0 7 -30 7 -67z m-1070 -147 c74 -12 179 -29 233 -36 l97 -12 0 -44 c0
-36 -3 -43 -19 -43 -32 0 -219 19 -358 36 l-133 17 0 60 c0 57 1 59 23 53 12
-4 83 -18 157 -31z m1070 -24 l0 -58 -92 -12 c-89 -12 -380 -41 -405 -41 -9 0
-13 15 -13 43 l0 43 158 23 c86 12 195 31 242 40 47 10 91 19 98 20 8 1 12
-17 12 -58z m0 -165 c0 -78 20 -72 -283 -82 l-227 -7 0 51 0 52 60 0 c68 0
321 25 390 39 25 5 48 9 53 10 4 1 7 -28 7 -63z m-864 -61 c18 -15 18 -15 -8
-9 -41 9 -71 -4 -65 -28 3 -11 3 -17 0 -14 -4 3 -12 1 -20 -6 -11 -9 -12 -7
-7 7 6 14 4 16 -6 10 -9 -5 -11 -4 -6 3 10 16 -7 15 -23 0 -10 -11 -11 -10 -6
5 8 20 26 22 43 5 8 -8 12 -9 12 -1 0 17 29 43 49 43 9 0 26 -7 37 -15z m-349
-110 c1 -48 -1 -55 -18 -55 -16 0 -19 8 -19 55 0 46 3 55 18 55 14 0 17 -10
19 -55z m1213 2 l0 -54 -137 -6 c-75 -4 -189 -7 -255 -7 l-118 0 0 53 0 53 38
-3 c20 -2 120 0 222 5 102 5 200 10 218 10 l32 2 0 -53z m-1098 13 c5 -79 7
-75 -42 -71 -25 1 -47 5 -49 7 -8 8 20 84 31 84 6 0 17 -8 25 -17 13 -17 14
-16 10 5 -4 14 0 22 9 22 8 0 15 -12 16 -30z m58 17 c0 -7 9 -13 20 -13 11 0
20 6 20 13 0 7 4 13 10 13 5 0 9 -10 9 -22 -1 -13 2 -38 6 -55 l8 -33 -53 0
-52 0 7 33 c4 17 7 42 6 55 0 12 4 22 9 22 6 0 10 -6 10 -13z m162 -1 c10 -7
20 -31 24 -54 l7 -42 -53 0 -53 0 6 36 c6 33 31 74 46 74 3 0 14 -6 23 -14z
m-526 -114 c-3 -41 -6 -99 -6 -128 l0 -54 -40 2 c-38 1 -39 2 -19 16 19 13 20
23 17 122 -2 60 0 106 4 104 4 -2 9 -1 12 4 3 5 13 9 22 9 15 0 16 -9 10 -75z
m184 -62 c0 -29 -4 -40 -15 -40 -11 0 -15 11 -15 40 0 29 4 40 15 40 11 0 15
-11 15 -40z m120 2 l0 -38 -50 0 -50 1 0 38 0 37 50 0 50 0 0 -38z m140 1 l0
-38 -60 0 -60 0 0 38 0 37 60 0 60 0 0 -37z m100 -3 c0 -34 -1 -35 -40 -35
-39 0 -40 1 -40 37 0 36 0 36 40 35 39 -2 40 -3 40 -37z m860 3 l0 -38 -255 0
-255 0 0 32 0 32 108 4 c59 1 173 4 255 5 l147 2 0 -37z m-740 -6 c0 -34 0
-34 -47 -32 -45 1 -47 2 -50 33 l-4 32 50 0 51 0 0 -33z m-553 0 c-3 -8 -1
-20 4 -28 7 -12 9 -12 9 1 0 8 6 4 13 -10 10 -19 23 -26 62 -32 28 -4 65 -3
83 2 20 5 44 5 60 -1 16 -5 67 -6 123 -1 52 4 109 3 126 -1 23 -7 40 -5 61 6
30 14 30 14 36 -16 3 -17 4 -32 2 -35 -3 -2 -113 -5 -245 -5 -149 -1 -237 -5
-234 -11 4 -6 -1 -6 -13 -1 -10 4 -34 10 -52 13 -37 5 -38 6 -46 80 -3 33 -1
52 6 52 5 0 8 -6 5 -13z m193 -184 c0 -27 -2 -28 -47 -27 -44 1 -48 4 -51 28
-3 25 -2 26 47 26 49 0 51 -1 51 -27z m140 2 c0 -23 -3 -25 -50 -25 -27 0 -53
0 -57 0 -5 0 -9 11 -11 25 -3 24 -2 25 57 25 58 0 61 -1 61 -25z m108 -1 c-3
-24 -7 -27 -46 -28 -39 -1 -42 1 -42 27 0 25 3 27 46 27 43 0 45 -1 42 -26z"/>
</g>
</svg>
