<?xml version="1.0" standalone="no"?>
<!DOCTYPE svg PUBLIC "-//W3C//DTD SVG 20010904//EN"
 "http://www.w3.org/TR/2001/REC-SVG-20010904/DTD/svg10.dtd">
<svg version="1.0" xmlns="http://www.w3.org/2000/svg"
 width="300.000000pt" height="300.000000pt" viewBox="0 0 300.000000 300.000000"
 preserveAspectRatio="xMidYMid meet">
<metadata>
Created by potrace 1.10, written by Peter Selinger 2001-2011
</metadata>
<g transform="translate(0.000000,300.000000) scale(0.100000,-0.100000)"
fill="#000000" stroke="none">
<path d="M1288 2899 c-25 -14 -24 -65 1 -79 11 -5 31 -10 45 -10 24 0 26 -3
26 -44 l0 -44 -77 -7 c-167 -15 -343 -77 -471 -164 -263 -178 -432 -485 -432
-783 l0 -78 -103 0 c-129 0 -137 -6 -137 -104 0 -51 5 -78 21 -106 36 -63 58
-70 224 -70 l147 0 -7 -30 c-14 -64 6 -90 228 -293 217 -199 754 -669 788
-690 24 -15 24 -27 1 -27 -36 0 -42 -20 -42 -136 0 -105 1 -114 22 -128 19
-14 66 -16 310 -16 351 0 328 -10 328 141 0 102 -9 139 -35 139 -11 0 -15 12
-15 43 0 34 6 49 26 68 55 50 64 88 64 272 l0 168 92 201 c71 158 91 211 90
245 l0 43 190 0 c214 0 230 4 267 70 16 28 21 55 21 107 0 97 -8 103 -137 103
l-100 0 -6 113 c-20 409 -321 776 -723 882 -33 9 -103 21 -156 27 l-98 12 0
43 c0 40 2 43 26 43 41 0 64 18 64 50 0 19 -7 33 -19 40 -26 13 -400 13 -423
-1z m148 -70 c-34 -40 -34 -88 0 -128 l26 -31 -51 0 c-55 0 -62 7 -31 35 14
13 20 31 20 60 0 29 -6 47 -20 60 -31 28 -24 35 31 35 l51 0 -26 -31z m204 25
c0 -3 -11 -19 -23 -34 l-24 -28 -27 34 -27 34 51 0 c27 0 50 -3 50 -6z m-90
-89 l0 -45 -50 0 -50 0 0 45 0 45 50 0 50 0 0 -45z m74 -64 c27 -23 18 -31
-36 -31 l-52 0 27 28 c15 15 27 35 28 43 0 8 4 6 9 -6 4 -12 15 -27 24 -34z
m226 -101 c378 -92 654 -421 677 -807 l6 -103 -1031 0 -1032 0 0 63 c0 258
137 528 349 689 80 60 222 131 311 154 104 26 200 33 425 29 169 -3 227 -8
295 -25z m-1409 -960 c-14 -3 -36 -4 -48 -2 l-22 4 26 33 27 34 22 -32 22 -32
-27 -5z m2168 28 l24 -28 -51 0 -52 0 22 34 c13 19 25 32 28 28 3 -4 16 -19
29 -34z m-2395 -59 c-23 -24 -30 -27 -32 -14 -6 28 7 45 35 45 l27 0 -30 -31z
m2602 17 c3 -8 4 -22 2 -31 -2 -13 -9 -10 -32 14 l-30 31 27 0 c15 0 30 -6 33
-14z m-48 -62 c2 -14 -4 -34 -14 -45 -17 -19 -49 -19 -1252 -19 -1136 0 -1237
1 -1254 17 -16 14 -25 63 -14 74 2 2 573 3 1268 2 l1263 -3 3 -26z m-2135
-111 c2 -5 -10 -23 -28 -40 l-32 -33 -13 25 c-7 14 -17 25 -22 25 -4 0 -8 7
-8 15 0 11 12 15 49 15 28 0 52 -3 54 -7z m237 1 c0 -4 -13 -22 -30 -41 -20
-22 -30 -45 -30 -66 l-1 -32 -24 47 c-14 25 -36 55 -49 66 -14 11 -22 22 -19
26 8 8 153 8 153 0z m194 -3 c3 -4 -4 -17 -15 -27 -16 -14 -19 -26 -15 -54 l6
-35 -20 37 c-11 21 -31 45 -45 54 -14 9 -22 20 -19 25 7 12 101 12 108 0z
m1076 3 c0 -4 -13 -21 -30 -38 -16 -17 -37 -40 -47 -51 -10 -11 -15 -16 -10
-11 13 18 7 53 -13 71 -11 10 -17 22 -14 26 6 10 114 12 114 3z m240 0 c0 -3
-9 -17 -20 -31 -11 -14 -20 -32 -20 -39 0 -8 -16 3 -35 25 -19 21 -35 41 -35
45 0 3 25 6 55 6 30 0 55 -3 55 -6z m-1667 -56 c17 -14 140 -268 129 -268 -13
1 -232 216 -232 228 0 20 39 52 63 52 13 0 31 -6 40 -12z m236 3 c8 -5 56 -89
105 -187 l91 -177 246 -98 246 -97 104 25 c57 14 109 31 116 37 7 6 71 119
142 250 72 132 136 243 143 248 19 11 106 10 129 -2 10 -6 19 -21 19 -34 0
-13 -40 -112 -90 -220 l-90 -198 0 -169 c0 -185 -4 -201 -59 -253 -28 -27 -31
-35 -31 -93 l0 -63 -155 0 -155 0 -343 296 -342 297 -87 190 c-49 105 -88 199
-88 208 0 40 61 64 99 40z m1081 6 c0 -2 -53 -100 -117 -217 l-118 -214 -75
-19 -75 -18 -218 87 -219 88 -71 141 c-40 77 -73 143 -75 147 -2 5 215 8 482
8 267 0 486 -1 486 -3z m-1099 -338 c32 -74 59 -118 99 -162 l55 -61 -95 81
c-135 116 -288 263 -227 218 27 -19 57 -35 67 -35 25 0 43 35 37 68 -8 44 14
6 64 -109z m689 -673 c43 -35 76 -67 73 -70 -4 -3 -28 -6 -54 -6 -39 0 -51 -4
-68 -26 -29 -37 -27 -85 6 -124 l26 -32 -29 4 -29 3 -3 84 c-2 73 0 89 18 113
26 36 25 59 -5 92 -39 42 -20 31 65 -38z m492 -108 c-4 -18 -6 -18 -31 6 -15
14 -34 26 -42 26 -28 0 -28 12 -1 46 l26 33 27 -46 c15 -25 24 -54 21 -65z
m-52 -53 l0 -45 -235 0 -235 0 0 45 0 45 235 0 235 0 0 -45z m50 -65 c0 -25
-4 -30 -25 -30 l-26 0 23 30 c12 17 23 30 25 30 2 0 3 -13 3 -30z"/>
</g>
</svg>
