<?xml version="1.0" standalone="no"?>
<!DOCTYPE svg PUBLIC "-//W3C//DTD SVG 20010904//EN"
 "http://www.w3.org/TR/2001/REC-SVG-20010904/DTD/svg10.dtd">
<svg version="1.0" xmlns="http://www.w3.org/2000/svg"
 width="300.000000pt" height="300.000000pt" viewBox="0 0 300.000000 300.000000"
 preserveAspectRatio="xMidYMid meet">
<metadata>
Created by potrace 1.10, written by Peter Selinger 2001-2011
</metadata>
<g transform="translate(0.000000,300.000000) scale(0.100000,-0.100000)"
fill="#000000" stroke="none">
<path d="M1440 2976 c-30 -13 -208 -92 -395 -176 -576 -259 -735 -330 -875
-392 -131 -59 -170 -85 -170 -115 0 -12 7 -10 38 6 66 35 245 111 250 106 3
-2 -15 -13 -39 -23 -206 -89 -189 -55 -189 -376 l0 -256 -30 -6 c-21 -5 -30
-12 -30 -25 0 -16 8 -19 50 -19 l50 0 2 285 3 286 435 195 c239 107 550 246
690 309 140 63 262 115 270 115 8 0 130 -52 270 -115 140 -63 451 -202 690
-309 l435 -195 3 -286 2 -285 50 0 c43 0 50 3 50 19 0 14 -8 21 -27 23 l-28 3
-3 259 c-3 310 3 294 -134 354 -91 40 -375 167 -470 211 -53 24 -67 39 -15 17
142 -61 610 -271 640 -287 29 -15 37 -17 37 -5 0 29 -39 55 -170 114 -140 62
-303 135 -875 392 -311 140 -450 201 -457 200 -2 -1 -28 -11 -58 -24z m183
-75 c64 -30 115 -56 114 -58 -2 -1 -49 18 -105 42 -56 25 -115 45 -131 45 -27
0 -162 -55 -356 -145 -44 -20 -105 -47 -136 -61 -31 -13 -99 -43 -151 -67 -93
-44 -148 -65 -138 -54 3 3 161 75 351 160 190 85 363 164 384 175 22 12 43 20
46 19 3 -1 58 -26 122 -56z m280 -126 c70 -32 126 -59 124 -61 -4 -5 -268 113
-276 123 -8 9 8 2 152 -62z m312 -140 c39 -19 67 -34 63 -34 -10 -1 -131 51
-142 61 -20 17 10 7 79 -27z m-1505 -40 c0 -5 -56 -31 -205 -97 -49 -22 -114
-51 -144 -64 -29 -14 -55 -23 -57 -21 -3 3 392 186 404 187 1 0 2 -2 2 -5z"/>
<path d="M1417 2590 c-99 -25 -191 -103 -235 -198 -22 -48 -27 -71 -27 -142 0
-104 29 -174 100 -245 71 -71 141 -100 245 -100 71 0 94 5 142 27 122 57 199
172 202 302 1 70 1 71 -24 68 -66 -7 -67 -8 -73 -73 -22 -241 -334 -312 -462
-105 -26 44 -30 58 -30 125 0 65 4 83 28 124 53 89 143 134 248 123 l56 -5 12
41 c8 25 9 44 3 50 -13 13 -141 19 -185 8z m-32 -74 c-60 -27 -129 -100 -157
-163 -26 -60 -22 -168 10 -229 22 -43 125 -144 146 -144 7 0 21 -7 32 -15 11
-9 -3 -6 -36 7 -73 30 -143 101 -165 169 -36 106 -12 232 59 316 27 32 117 83
145 83 9 0 -6 -11 -34 -24z m405 -360 c-23 -84 -109 -169 -190 -190 -14 -4 -6
3 18 16 86 47 169 157 173 231 1 18 2 19 6 3 3 -10 0 -37 -7 -60z"/>
<path d="M1652 2422 l-154 -157 -28 35 -28 34 -35 -30 c-20 -16 -36 -32 -36
-37 -2 -14 112 -117 129 -117 10 0 100 82 200 181 l182 181 -33 34 c-18 19
-35 34 -38 33 -4 0 -75 -71 -159 -157z m23 -63 c-77 -77 -148 -145 -159 -151
-14 -8 -24 -6 -44 9 -32 24 -43 50 -16 38 57 -24 59 -23 204 120 77 76 143
135 147 131 4 -4 -56 -70 -132 -147z"/>
<path d="M2473 1844 c-7 -3 -38 -84 -70 -179 -56 -171 -57 -174 -39 -194 16
-18 31 -21 103 -21 l83 0 0 -75 0 -75 -50 0 -50 0 0 -50 0 -50 150 0 150 0 0
50 0 50 -50 0 -50 0 0 75 0 75 83 0 c72 0 87 3 103 21 18 20 17 23 -35 182
-29 89 -60 170 -69 180 -13 14 -32 17 -131 16 -64 0 -121 -3 -128 -5z m60 -41
c4 -4 -4 -19 -18 -33 -30 -31 -74 -149 -75 -197 0 -22 8 -38 25 -51 21 -17 22
-21 9 -26 -28 -11 -64 -6 -70 9 -7 18 82 286 99 297 15 10 22 10 30 1z m167
-9 c19 -22 102 -275 96 -291 -6 -14 -43 -17 -70 -7 -13 5 -12 9 9 26 16 12 25
29 25 48 0 49 -40 159 -70 194 -16 18 -27 36 -23 40 10 10 20 7 33 -10z m-6
-131 c16 -49 31 -94 33 -100 4 -10 -25 -13 -127 -13 -102 0 -131 3 -127 13 2
6 17 51 33 100 l28 87 66 0 66 0 28 -87z m-40 -162 c3 -4 -6 -19 -19 -31 -22
-21 -25 -32 -25 -96 0 -68 2 -74 30 -97 34 -29 25 -37 -40 -37 -65 0 -74 8
-40 37 28 23 30 29 30 97 0 64 -3 75 -25 96 -32 30 -24 40 35 40 27 0 51 -4
54 -9z"/>
<path d="M277 1678 c-23 -14 -45 -38 -57 -63 -18 -38 -20 -62 -20 -282 l0
-241 -26 -6 c-86 -22 -171 -128 -162 -202 l4 -29 19 33 c61 104 74 120 118
141 51 25 71 44 88 86 10 26 13 27 17 10 2 -11 15 -32 28 -46 30 -31 23 -39
-32 -39 -80 0 -140 -40 -175 -115 -15 -33 -19 -65 -19 -178 l0 -139 29 -29 29
-29 -29 -29 -29 -29 0 -190 c0 -176 1 -191 21 -216 17 -22 29 -26 68 -26 70 0
91 26 91 112 0 74 13 94 55 84 l26 -7 -31 -25 c-28 -24 -30 -30 -30 -95 0 -43
-6 -81 -15 -99 -18 -35 -4 -41 33 -14 20 14 22 24 22 100 l0 84 750 0 750 0 0
-85 c0 -79 2 -86 25 -101 32 -21 42 -12 27 21 -7 14 -12 57 -12 95 0 64 -2 70
-30 94 l-31 25 27 7 c39 10 54 -16 54 -91 0 -51 4 -65 23 -83 33 -31 105 -31
135 1 21 22 22 32 22 219 l0 196 -31 26 -31 26 31 26 31 26 0 153 0 153 -32
43 c-48 62 -79 81 -140 86 -82 7 -85 9 -55 41 15 16 27 36 27 45 0 9 5 17 10
17 6 0 10 -8 10 -19 0 -27 38 -71 74 -86 17 -7 44 -25 59 -39 55 -51 56 -61
63 -513 7 -380 6 -421 -10 -450 -19 -37 -6 -44 32 -17 l22 15 0 417 c0 454 -3
488 -54 555 -17 22 -51 48 -87 64 l-58 28 0 239 c-1 219 -3 243 -21 281 -13
26 -34 49 -59 63 l-39 22 -733 0 -734 0 -38 -22z m46 -44 c-59 -29 -62 -42
-66 -266 l-2 -203 -3 213 -2 214 29 29 c16 16 40 29 53 29 21 0 20 -2 -9 -16z
m1480 5 c25 -12 47 -47 47 -77 0 -10 -7 -3 -17 16 -10 18 -31 41 -48 52 -32
21 -21 27 18 9z m-19 -55 c14 -13 16 -50 16 -250 l0 -234 -50 0 -50 0 0 115
c0 142 -15 181 -83 214 -39 19 -61 21 -217 21 -157 0 -178 -2 -218 -21 -66
-32 -82 -74 -82 -216 l0 -113 -50 0 -50 0 0 112 c0 139 -18 185 -84 217 -38
19 -61 21 -216 21 -155 0 -178 -2 -216 -21 -66 -32 -84 -78 -84 -217 l0 -112
-50 0 -50 0 0 234 c0 200 2 237 16 250 14 14 94 16 734 16 640 0 720 -2 734
-16z m-1268 -203 c-47 -31 -55 -56 -56 -172 0 -100 1 -107 25 -129 13 -12 22
-27 19 -31 -6 -11 -98 -12 -107 -2 -4 4 5 20 20 35 27 28 28 35 33 150 5 116
6 121 33 144 15 13 36 24 45 24 12 0 8 -6 -12 -19z m401 -5 c27 -23 28 -28 33
-144 5 -115 6 -122 33 -150 15 -15 24 -31 20 -35 -9 -10 -101 -9 -107 2 -3 4
6 19 19 31 24 22 25 29 25 134 -1 119 -6 133 -57 168 -20 13 -23 18 -11 18 9
0 30 -11 45 -24z m299 5 c-47 -31 -55 -56 -56 -172 0 -100 1 -107 25 -129 32
-30 24 -40 -35 -40 -59 0 -67 10 -35 40 21 19 25 33 26 79 0 31 3 87 8 125 6
58 12 73 35 92 15 13 35 24 44 24 12 0 8 -6 -12 -19z m393 3 c38 -27 51 -74
51 -182 0 -92 2 -100 25 -122 32 -30 24 -40 -35 -40 -59 0 -67 10 -35 40 24
22 25 29 25 134 -1 119 -6 133 -57 168 -17 11 -22 18 -13 18 9 0 26 -7 39 -16z
m-725 -50 c13 -12 16 -39 16 -125 l0 -109 -200 0 -200 0 0 109 c0 86 3 113 16
125 13 13 44 16 184 16 140 0 171 -3 184 -16z m700 0 c13 -12 16 -39 16 -125
l0 -109 -200 0 -200 0 0 115 c0 98 2 115 18 124 9 6 89 11 184 11 138 0 169
-3 182 -16z m332 -350 c19 -9 44 -31 57 -48 20 -28 22 -45 25 -183 l3 -153
-951 0 -951 0 3 153 c3 142 5 154 27 186 45 63 6 60 919 61 749 0 837 -2 868
-16z m84 -684 l0 -200 -50 0 -50 0 0 82 c0 132 98 118 -848 118 -745 0 -817
-1 -834 -17 -15 -13 -18 -31 -18 -100 l0 -83 -50 0 -50 0 0 200 0 200 950 0
950 0 0 -200z"/>
<path d="M2216 1084 c-14 -13 -16 -64 -16 -400 l0 -384 50 0 50 0 0 150 0 150
300 0 300 0 0 -150 0 -150 50 0 c43 0 50 3 50 19 0 14 -8 21 -27 23 l-28 3 -5
128 c-5 125 -6 129 -32 152 l-28 24 30 30 30 29 0 140 c0 136 -1 141 -26 171
-22 27 -24 32 -9 37 9 4 34 0 56 -9 43 -17 51 -8 23 31 l-15 22 -369 0 c-322
0 -371 -2 -384 -16z m88 -30 c12 -5 9 -11 -14 -31 l-30 -25 0 -148 0 -148 30
-25 30 -25 -36 -36 c-20 -20 -38 -36 -40 -36 -2 0 -4 103 -4 228 0 254 4 269
64 246z m596 -204 l0 -150 -300 0 -300 0 0 150 0 150 300 0 300 0 0 -150z"/>
<path d="M2500 850 l0 -50 100 0 100 0 0 50 0 50 -100 0 -100 0 0 -50z"/>
<path d="M0 56 c0 -18 34 -56 50 -56 22 0 4 31 -32 59 -15 11 -18 11 -18 -3z"/>
</g>
</svg>
