<?xml version="1.0" standalone="no"?>
<!DOCTYPE svg PUBLIC "-//W3C//DTD SVG 20010904//EN"
 "http://www.w3.org/TR/2001/REC-SVG-20010904/DTD/svg10.dtd">
<svg version="1.0" xmlns="http://www.w3.org/2000/svg"
 width="300.000000pt" height="300.000000pt" viewBox="0 0 300.000000 300.000000"
 preserveAspectRatio="xMidYMid meet">
<metadata>
Created by potrace 1.10, written by Peter Selinger 2001-2011
</metadata>
<g transform="translate(0.000000,300.000000) scale(0.100000,-0.100000)"
fill="#000000" stroke="none">
<path d="M1230 2938 c-24 -13 -58 -40 -74 -61 -30 -38 -31 -41 -35 -170 -3
-128 -4 -133 -31 -163 -39 -45 -64 -125 -57 -185 14 -117 91 -195 220 -223
l27 -7 -30 42 c-16 23 -32 57 -36 75 -4 24 -12 34 -24 34 -26 0 -70 56 -70 90
0 31 43 90 66 90 9 0 14 11 14 28 l0 29 123 18 c191 28 299 52 329 75 38 28
46 25 45 -14 -1 -44 27 -85 63 -93 21 -4 30 -11 30 -24 0 -11 6 -19 14 -19 23
0 66 -59 66 -90 0 -34 -44 -90 -70 -90 -12 0 -20 -10 -24 -34 -4 -18 -20 -52
-37 -75 l-30 -42 38 7 c87 15 157 65 196 138 44 83 23 221 -42 280 -19 18 -21
29 -21 162 0 139 -1 143 -26 173 -36 43 -94 44 -132 3 l-27 -28 -24 29 c-46
55 -89 67 -251 67 -132 0 -150 -2 -190 -22z m347 -12 c32 -7 55 -21 82 -50 27
-29 43 -32 63 -13 19 19 54 37 73 37 9 0 27 -11 41 -25 25 -25 25 -29 24 -153
-1 -70 1 -135 5 -144 11 -28 2 -51 -27 -68 -23 -12 -31 -13 -45 -2 -10 6 -28
16 -40 21 -14 7 -26 28 -37 65 -9 31 -20 56 -24 56 -5 0 -31 -11 -59 -25 -44
-21 -126 -40 -268 -60 -22 -4 -58 -11 -79 -16 -27 -8 -41 -7 -46 0 -4 7 -15 2
-30 -14 -41 -44 -107 -22 -82 28 6 12 13 69 15 127 4 121 8 138 38 179 21 29
82 61 116 61 15 0 15 -2 2 -12 -8 -7 -22 -22 -29 -33 -8 -11 4 -3 28 18 l43
38 107 -5 c59 -3 117 -7 129 -10z m-447 -411 c7 -8 21 -15 31 -15 27 0 24 -6
-21 -49 -35 -33 -40 -44 -40 -81 0 -39 5 -49 48 -89 43 -42 79 -97 69 -108 -8
-7 -53 15 -86 43 -70 59 -93 183 -50 271 23 47 30 51 49 28z m789 -26 c41 -74
28 -184 -32 -255 -25 -29 -102 -72 -112 -62 -11 10 30 75 69 109 38 34 41 40
41 89 0 46 -4 55 -34 82 -30 27 -32 32 -17 40 9 5 22 15 29 23 19 23 31 17 56
-26z"/>
<path d="M1231 2784 c0 -11 3 -14 6 -6 3 7 2 16 -1 19 -3 4 -6 -2 -5 -13z"/>
<path d="M1000 2816 c-243 -94 -464 -253 -611 -441 -40 -50 3 -15 79 66 82 87
170 162 252 213 95 59 242 133 323 161 42 15 77 29 77 31 0 11 -44 0 -120 -30z"/>
<path d="M1894 2842 c3 -6 23 -16 44 -22 66 -21 187 -72 203 -86 8 -8 20 -14
25 -14 6 0 59 -32 120 -71 122 -80 284 -235 368 -352 58 -83 178 -316 172
-334 -3 -7 -2 -13 3 -13 5 0 11 -10 14 -22 3 -13 13 -48 22 -78 20 -71 24 -93
39 -222 7 -59 15 -111 19 -114 13 -13 7 84 -12 198 -78 451 -364 840 -766
1040 -126 63 -265 113 -251 90z"/>
<path d="M1313 2440 c0 -41 2 -58 4 -37 2 20 2 54 0 75 -2 20 -4 3 -4 -38z"/>
<path d="M1365 2430 c-8 -27 1 -40 30 -40 27 0 41 26 24 46 -17 20 -47 17 -54
-6z"/>
<path d="M1581 2436 c-17 -20 -3 -46 24 -46 29 0 38 13 30 40 -7 23 -37 26
-54 6z"/>
<path d="M1790 2399 c0 -5 5 -7 10 -4 6 3 10 8 10 11 0 2 -4 4 -10 4 -5 0 -10
-5 -10 -11z"/>
<path d="M1313 2320 c0 -25 2 -35 4 -22 2 12 2 32 0 45 -2 12 -4 2 -4 -23z"/>
<path d="M1795 2339 c-4 -6 -5 -12 -2 -15 2 -3 7 2 10 11 7 17 1 20 -8 4z"/>
<path d="M61 2327 c-15 -7 -28 -26 -33 -45 -5 -18 -8 -150 -6 -292 4 -324 -10
-300 173 -300 l132 0 7 39 c3 22 8 45 11 53 4 10 -15 13 -94 13 -149 0 -141
-17 -141 281 l0 244 178 2 c312 5 622 -5 631 -21 5 -7 8 -124 7 -259 l-1 -246
-25 -7 c-21 -6 -22 -7 -4 -8 27 -1 33 -8 27 -32 -10 -36 -52 -48 -157 -45 -53
1 -100 7 -105 12 -5 5 -13 21 -16 37 l-7 27 118 2 119 2 -125 5 c-69 3 -126 6
-128 5 -1 -1 3 -24 9 -53 l11 -51 132 0 c116 0 135 2 149 18 15 16 17 53 17
305 0 274 -1 288 -20 307 -19 19 -33 20 -427 20 -304 0 -414 -3 -432 -13z m38
-249 c0 -128 2 -241 6 -250 12 -30 68 -48 149 -48 l76 0 -6 -27 c-10 -44 -22
-53 -50 -42 -14 5 -23 6 -21 1 3 -4 -27 -8 -65 -9 -87 -2 -138 16 -138 49 0
13 0 137 0 277 1 254 4 281 36 281 11 0 13 -44 13 -232z"/>
<path d="M1395 2300 c-13 -20 17 -81 49 -101 75 -46 166 2 166 86 0 38 -34 33
-45 -7 -6 -19 -22 -39 -37 -48 -25 -13 -29 -13 -55 6 -15 11 -30 32 -33 45 -6
25 -34 37 -45 19z"/>
<path d="M1321 2259 c-2 -45 59 -129 146 -200 15 -12 19 -27 18 -60 -2 -61
-10 -71 -56 -68 -21 2 -42 0 -46 -4 -4 -5 19 -7 52 -5 l60 3 3 67 3 67 -39 25
c-52 33 -108 99 -126 150 -8 22 -15 34 -15 25z"/>
<path d="M1636 2077 c-14 -10 -16 -24 -13 -67 l3 -55 2 56 c2 47 6 58 25 67
12 6 17 11 11 11 -5 1 -18 -5 -28 -12z"/>
<path d="M1626 1937 c3 -10 9 -15 12 -12 3 3 0 11 -7 18 -10 9 -11 8 -5 -6z"/>
<path d="M494 1909 c51 -8 115 -57 117 -88 0 -11 2 -12 6 -3 8 20 -39 81 -71
92 -16 5 -45 9 -65 9 -33 -1 -32 -2 13 -10z"/>
<path d="M1207 1909 c-82 -19 -145 -72 -182 -151 -22 -46 -25 -67 -25 -161 l0
-108 -482 1 c-516 1 -498 3 -513 -50 l-7 -25 24 23 c31 29 38 28 39 -5 2 -26
2 -26 8 5 l6 33 462 -1 c352 0 462 2 465 12 3 7 31 14 71 16 62 4 67 6 67 28
0 12 -4 26 -10 29 -6 4 -10 -5 -10 -20 0 -25 -2 -26 -47 -23 l-48 3 -1 79 c-2
99 21 174 67 223 38 38 104 73 137 70 19 -1 17 -5 -18 -40 -22 -21 -47 -55
-56 -75 -20 -48 -34 -122 -23 -122 5 0 9 15 9 33 0 40 28 101 65 145 28 34 92
72 120 72 8 0 40 -37 70 -83 50 -77 83 -107 120 -107 18 0 84 64 129 128 l38
52 56 0 c69 0 128 -25 175 -74 49 -50 65 -106 64 -213 l-2 -88 -410 -5 -410
-5 412 -3 c316 -1 415 -5 425 -15 10 -9 119 -13 482 -14 460 -1 470 -2 498
-23 32 -23 37 -13 10 20 l-17 21 -483 0 -482 0 0 107 c-1 62 -6 123 -14 144
-35 97 -133 167 -248 175 l-63 4 -60 -82 c-101 -137 -117 -137 -202 -8 l-58
89 -55 -1 c-30 -1 -72 -5 -93 -10z"/>
<path d="M476 1859 c-14 -17 -26 -35 -26 -41 0 -6 1 -9 3 -7 2 2 15 21 30 42
34 45 29 49 -7 6z"/>
<path d="M2381 1789 c-47 -19 -62 -69 -20 -69 30 0 22 -17 -13 -29 -37 -13
-88 -58 -88 -78 0 -7 -4 -13 -10 -13 -5 0 -10 -11 -10 -25 0 -38 13 -30 37 25
22 50 69 90 106 90 10 0 17 8 17 21 0 11 -5 17 -10 14 -22 -14 -22 27 0 51 26
27 26 27 -9 13z"/>
<path d="M441 1774 c0 -11 3 -14 6 -6 3 7 2 16 -1 19 -3 4 -6 -2 -5 -13z"/>
<path d="M2416 1757 c3 -10 9 -15 12 -12 3 3 0 11 -7 18 -10 9 -11 8 -5 -6z"/>
<path d="M432 1730 c0 -14 2 -19 5 -12 2 6 2 18 0 25 -3 6 -5 1 -5 -13z"/>
<path d="M422 1680 c0 -14 2 -19 5 -12 2 6 2 18 0 25 -3 6 -5 1 -5 -13z"/>
<path d="M76 1633 c-9 -56 -7 -131 3 -115 8 14 16 152 8 152 -2 0 -7 -17 -11
-37z"/>
<path d="M306 1599 c-10 -39 -15 -73 -12 -76 5 -5 7 3 26 91 17 76 5 65 -14
-15z"/>
<path d="M2470 1651 c0 -5 7 -12 16 -15 14 -5 15 -4 4 9 -14 17 -20 19 -20 6z"/>
<path d="M411 1634 c0 -11 3 -14 6 -6 3 7 2 16 -1 19 -3 4 -6 -2 -5 -13z"/>
<path d="M1669 1640 c-32 -8 -45 -33 -33 -67 9 -26 15 -29 79 -36 39 -5 94 -6
122 -4 82 6 118 51 72 93 -17 15 -37 18 -119 19 -54 0 -109 -2 -121 -5z m221
-20 c14 -7 20 -19 18 -33 -3 -21 -8 -22 -124 -25 -94 -2 -124 1 -133 11 -14
18 -5 45 17 49 52 9 203 8 222 -2z"/>
<path d="M401 1594 c0 -11 3 -14 6 -6 3 7 2 16 -1 19 -3 4 -6 -2 -5 -13z"/>
<path d="M650 1601 c0 -6 4 -13 10 -16 6 -3 7 1 4 9 -7 18 -14 21 -14 7z"/>
<path d="M392 1550 c0 -14 2 -19 5 -12 2 6 2 18 0 25 -3 6 -5 1 -5 -13z"/>
<path d="M660 1558 c0 -9 5 -20 10 -23 13 -8 13 5 0 25 -8 13 -10 13 -10 -2z"/>
<path d="M2220 1515 c0 -8 5 -15 10 -15 6 0 10 5 10 10 0 6 59 10 156 10 101
0 153 -3 149 -10 -3 -5 -1 -10 4 -10 6 0 11 7 11 15 0 13 -26 15 -170 15 -144
0 -170 -2 -170 -15z"/>
<path d="M76 1385 c4 -8 11 -15 16 -15 6 0 5 6 -2 15 -7 8 -14 15 -16 15 -2 0
-1 -7 2 -15z"/>
<path d="M155 1360 c-3 -5 -1 -10 4 -10 6 0 11 5 11 10 0 6 -2 10 -4 10 -3 0
-8 -4 -11 -10z"/>
<path d="M425 1360 c-4 -6 3 -10 14 -10 25 0 27 6 6 13 -8 4 -17 2 -20 -3z"/>
<path d="M480 1360 c-13 -8 -12 -10 3 -10 9 0 17 5 17 10 0 12 -1 12 -20 0z"/>
<path d="M695 1360 c-3 -5 1 -10 10 -10 9 0 13 5 10 10 -3 6 -8 10 -10 10 -2
0 -7 -4 -10 -10z"/>
<path d="M1285 1360 l-50 -7 57 0 c31 0 55 4 52 9 -3 4 -6 7 -7 6 -1 0 -24 -4
-52 -8z"/>
<path d="M1709 1359 c-10 -6 -4 -9 19 -9 17 0 32 2 32 4 0 9 -39 13 -51 5z"/>
<path d="M2106 1362 c-3 -5 1 -9 9 -9 8 0 12 4 9 9 -3 4 -7 8 -9 8 -2 0 -6 -4
-9 -8z"/>
<path d="M2176 1362 c-3 -5 1 -9 9 -9 8 0 12 4 9 9 -3 4 -7 8 -9 8 -2 0 -6 -4
-9 -8z"/>
<path d="M2350 1360 c-9 -6 -10 -10 -3 -10 6 0 15 5 18 10 8 12 4 12 -15 0z"/>
<path d="M2454 1359 c-3 -5 18 -9 47 -9 29 0 50 2 48 4 -10 9 -90 13 -95 5z"/>
<path d="M2666 1362 c-3 -5 1 -9 9 -9 8 0 12 4 9 9 -3 4 -7 8 -9 8 -2 0 -6 -4
-9 -8z"/>
<path d="M2991 1363 c-1 -7 -7 -11 -13 -9 -7 1 -10 1 -5 -1 16 -10 5 -25 -28
-39 -29 -12 -235 -14 -1437 -14 -935 0 -1415 4 -1440 10 -21 6 -42 18 -47 28
-13 23 -21 12 -10 -16 5 -13 22 -28 38 -33 26 -9 31 -18 41 -67 70 -350 232
-629 490 -846 326 -274 749 -385 1180 -310 584 101 1051 576 1154 1176 5 29
13 38 36 47 30 10 55 52 46 75 -3 7 -5 7 -5 -1z m-94 -97 c-3 -8 -9 -32 -13
-53 -26 -146 -114 -373 -183 -472 -10 -14 -20 -31 -22 -36 -2 -6 -24 -39 -49
-73 l-45 -64 -5 220 c-5 216 -5 221 -29 246 -14 14 -29 26 -34 26 -4 0 5 -14
22 -31 l31 -31 0 -223 0 -223 -98 -93 c-54 -52 -118 -107 -142 -124 -25 -16
-47 -33 -50 -36 -9 -11 -213 -116 -265 -137 -56 -22 -197 -61 -235 -65 l-25
-2 -1 440 c-1 417 0 442 18 472 23 39 64 53 143 49 33 -2 61 -4 63 -5 2 0 -4
-11 -12 -23 -9 -12 -16 -27 -16 -33 0 -5 9 5 20 23 11 17 21 33 22 34 2 1 118
5 258 8 l255 6 -338 2 c-286 2 -343 0 -367 -13 -60 -31 -60 -30 -60 -527 l0
-453 -47 -1 c-27 0 -91 -3 -143 -5 -52 -2 -139 0 -192 5 l-98 8 0 449 c0 380
-2 455 -15 479 -31 61 -27 60 -397 60 -190 0 -348 -4 -362 -10 -55 -20 -61
-45 -66 -278 l-5 -214 -61 88 c-112 162 -179 309 -220 481 -14 59 -28 116 -30
126 -5 16 66 17 1396 17 1211 0 1401 -2 1397 -14z m-2237 -215 c0 -5 -7 -14
-15 -21 -8 -7 -15 -19 -15 -28 0 -8 10 0 23 19 l23 34 249 3 c270 3 285 0 311
-50 21 -40 21 -918 0 -918 -22 0 -186 49 -256 77 -94 37 -171 77 -266 139
l-84 54 -2 307 -3 308 -2 -297 c-2 -164 -6 -298 -9 -298 -3 0 -11 6 -19 13 -7
7 -26 25 -41 38 -16 14 -49 47 -74 74 l-45 50 1 218 c3 280 5 284 152 286 39
0 72 -3 72 -8z"/>
<path d="M1944 530 c0 -151 2 -213 3 -138 2 76 2 200 0 276 -1 75 -3 13 -3
-138z"/>
<path d="M1943 200 c0 -30 2 -43 4 -27 2 15 2 39 0 55 -2 15 -4 2 -4 -28z"/>
<path d="M388 1353 c7 -3 16 -2 19 1 4 3 -2 6 -13 5 -11 0 -14 -3 -6 -6z"/>
<path d="M603 1353 c9 -2 23 -2 30 0 6 3 -1 5 -18 5 -16 0 -22 -2 -12 -5z"/>
<path d="M658 1353 c7 -3 16 -2 19 1 4 3 -2 6 -13 5 -11 0 -14 -3 -6 -6z"/>
<path d="M908 1353 c6 -2 18 -2 25 0 6 3 1 5 -13 5 -14 0 -19 -2 -12 -5z"/>
<path d="M1028 1353 c7 -3 16 -2 19 1 4 3 -2 6 -13 5 -11 0 -14 -3 -6 -6z"/>
<path d="M1098 1353 c7 -3 16 -2 19 1 4 3 -2 6 -13 5 -11 0 -14 -3 -6 -6z"/>
<path d="M1653 1353 c9 -2 23 -2 30 0 6 3 -1 5 -18 5 -16 0 -22 -2 -12 -5z"/>
<path d="M1778 1353 c7 -3 16 -2 19 1 4 3 -2 6 -13 5 -11 0 -14 -3 -6 -6z"/>
<path d="M1838 1353 c6 -2 18 -2 25 0 6 3 1 5 -13 5 -14 0 -19 -2 -12 -5z"/>
<path d="M2403 1353 c9 -2 23 -2 30 0 6 3 -1 5 -18 5 -16 0 -22 -2 -12 -5z"/>
<path d="M2598 1353 c7 -3 16 -2 19 1 4 3 -2 6 -13 5 -11 0 -14 -3 -6 -6z"/>
</g>
</svg>
