<?xml version="1.0" standalone="no"?>
<!DOCTYPE svg PUBLIC "-//W3C//DTD SVG 20010904//EN"
 "http://www.w3.org/TR/2001/REC-SVG-20010904/DTD/svg10.dtd">
<svg version="1.0" xmlns="http://www.w3.org/2000/svg"
 width="300.000000pt" height="300.000000pt" viewBox="0 0 300.000000 300.000000"
 preserveAspectRatio="xMidYMid meet">
<metadata>
Created by potrace 1.10, written by Peter Selinger 2001-2011
</metadata>
<g transform="translate(0.000000,300.000000) scale(0.100000,-0.100000)"
fill="#000000" stroke="none">
<path d="M1 2973 c0 -23 2 -25 8 -9 4 11 16 23 27 27 16 6 14 8 -8 8 -24 1
-28 -3 -27 -26z"/>
<path d="M80 2993 c38 -14 40 -28 40 -360 l0 -323 50 0 50 0 0 323 c0 332 2
346 40 360 8 3 -32 5 -90 5 -58 0 -98 -2 -90 -5z"/>
<path d="M310 2987 l25 -13 3 -332 2 -332 55 0 55 0 0 329 c0 330 0 330 22
345 21 15 15 16 -82 16 -91 0 -102 -2 -80 -13z"/>
<path d="M538 2984 c22 -15 22 -15 22 -345 l0 -329 55 0 55 0 0 329 c0 330 0
330 22 345 21 15 16 16 -77 16 -93 0 -98 -1 -77 -16z"/>
<path d="M751 2993 c9 -2 20 -14 26 -26 5 -13 8 -183 6 -420 -3 -369 -5 -402
-24 -451 -24 -65 -85 -137 -145 -172 l-44 -26 0 -877 0 -877 -22 -44 c-27 -52
-63 -80 -115 -90 -21 -4 509 -8 1177 -8 668 0 1196 4 1172 7 -48 8 -97 49
-118 98 -11 26 -14 122 -14 479 l0 447 -76 79 c-125 131 -118 97 -122 623 -2
288 1 480 8 534 21 158 83 314 183 459 56 81 206 229 258 255 32 16 -29 16
-1066 16 -605 -1 -1093 -3 -1084 -6z m919 -388 c218 -33 434 -137 593 -287 72
-68 82 -93 47 -128 -32 -32 -56 -24 -123 38 -123 115 -277 200 -437 243 -72
20 -110 23 -250 24 -183 0 -266 -16 -397 -75 -77 -35 -103 -37 -127 -11 -41
45 -1 88 122 135 187 71 376 91 572 61z m-2 -291 c160 -33 298 -108 418 -229
97 -96 162 -202 206 -335 31 -91 32 -102 32 -250 0 -148 -1 -159 -32 -250 -44
-133 -109 -239 -206 -336 -152 -152 -334 -232 -547 -241 -245 -11 -452 68
-625 242 -97 96 -162 202 -206 335 -30 90 -32 103 -32 250 0 148 1 159 32 250
97 289 332 502 622 564 89 19 245 19 338 0z m704 -1431 c30 -27 21 -59 -35
-125 -122 -144 -357 -291 -540 -337 -277 -71 -547 -45 -792 76 -109 54 -137
79 -133 116 2 23 11 35 29 44 23 11 36 7 140 -46 169 -85 261 -106 464 -106
134 1 174 5 245 24 181 48 343 146 479 286 85 88 108 99 143 68z m-1582 -93
c37 -37 14 -100 -37 -100 -28 0 -63 33 -63 60 0 11 9 29 20 40 11 11 29 20 40
20 11 0 29 -9 40 -20z"/>
<path d="M1386 2579 c-168 -18 -391 -95 -391 -134 0 -28 32 -24 140 18 142 56
233 70 404 64 119 -4 162 -9 236 -31 162 -48 297 -123 411 -229 67 -62 104
-74 104 -33 0 38 -162 167 -295 233 -182 92 -412 134 -609 112z"/>
<path d="M1382 2289 c-312 -47 -576 -277 -657 -574 -26 -95 -31 -275 -11 -375
52 -253 212 -456 448 -564 101 -47 176 -65 293 -72 395 -24 750 246 829 628
88 425 -165 830 -584 940 -88 23 -229 30 -318 17z m248 -55 c85 -13 209 -65
292 -122 64 -44 178 -169 221 -242 61 -105 89 -206 95 -341 4 -95 1 -130 -17
-198 -69 -274 -276 -488 -541 -558 -89 -24 -272 -24 -360 0 -250 67 -443 253
-531 512 -21 61 -24 88 -24 215 0 127 3 154 24 215 34 101 73 174 129 244 130
162 293 253 507 285 32 5 148 -1 205 -10z"/>
<path d="M1419 2208 c-288 -27 -548 -256 -614 -543 -21 -88 -21 -242 0 -330
58 -253 277 -472 530 -530 38 -9 112 -16 165 -16 116 0 210 20 307 67 189 90
343 280 388 478 21 89 21 243 0 331 -46 201 -198 388 -388 479 -119 58 -242
78 -388 64z m121 -188 c11 -11 20 -29 20 -40 0 -25 -34 -60 -58 -60 -56 0 -84
73 -40 104 30 21 54 20 78 -4z m-188 -37 c18 -17 23 -39 12 -67 -3 -9 -33 -30
-65 -47 -118 -63 -203 -191 -216 -324 -9 -97 -54 -134 -103 -85 -24 24 -25 60
-5 153 30 144 135 286 261 355 67 36 90 39 116 15z"/>
<path d="M1470 1981 c0 -20 25 -35 41 -25 5 3 9 14 9 25 0 14 -7 19 -25 19
-18 0 -25 -5 -25 -19z"/>
<path d="M1235 1931 c-111 -64 -200 -184 -230 -312 -19 -81 -19 -123 0 -139
24 -20 42 4 48 68 14 132 89 249 212 333 39 27 70 54 70 61 0 24 -50 19 -100
-11z"/>
<path d="M2232 777 c-116 -111 -171 -151 -279 -206 -293 -146 -629 -142 -925
11 -94 49 -128 55 -128 23 0 -32 174 -118 315 -154 252 -66 512 -45 743 60
130 59 290 179 362 270 43 55 49 74 24 83 -11 4 -46 -23 -112 -87z"/>
<path d="M725 760 c-10 -17 20 -44 40 -36 9 3 15 14 13 23 -4 21 -43 30 -53
13z"/>
<path d="M2964 2991 c11 -4 23 -16 27 -27 6 -16 8 -14 8 9 1 23 -3 27 -26 26
-23 0 -25 -2 -9 -8z"/>
<path d="M22 2947 l-22 -23 0 -1462 0 -1462 197 1 c113 1 180 4 155 8 -45 8
-93 45 -118 93 -12 23 -14 170 -14 910 l-1 883 -55 35 c-91 57 -160 172 -152
252 3 31 5 29 22 -27 26 -85 77 -157 141 -200 30 -20 59 -44 65 -55 6 -12 10
-325 10 -899 l0 -879 26 -32 c15 -17 45 -40 67 -51 36 -19 44 -20 81 -8 22 7
54 28 72 46 l32 32 4 888 c2 559 7 894 13 905 6 9 32 31 60 50 57 38 118 114
134 167 14 48 16 830 2 844 -5 5 -17 7 -25 4 -14 -6 -16 -45 -16 -330 0 -317
0 -324 -21 -343 -14 -12 -36 -19 -64 -19 -28 0 -50 7 -64 19 -21 19 -21 26
-21 343 0 285 -2 324 -16 330 -8 3 -19 2 -24 -3 -4 -5 -10 -155 -13 -333 -5
-369 -2 -356 -87 -356 -81 0 -79 -8 -80 355 0 182 -4 321 -10 330 -7 12 -13
12 -27 4 -17 -10 -18 -39 -23 -340 l-5 -328 -25 -14 c-30 -15 -97 -10 -117 10
-10 11 -14 82 -19 338 -3 179 -8 328 -10 332 -9 14 -30 8 -52 -15z m660 -751
c8 -20 7 -34 -6 -67 -27 -66 -64 -107 -132 -145 l-64 -36 0 -900 0 -900 -35
-35 c-29 -29 -40 -34 -63 -28 -15 4 -33 12 -41 18 -41 34 -41 39 -41 964 l0
888 -45 18 c-92 38 -186 185 -147 230 14 15 41 17 289 17 l273 0 12 -24z"/>
<path d="M120 2180 c0 -22 42 -99 69 -124 15 -14 52 -39 82 -54 l54 -27 5
-911 c4 -752 7 -914 19 -927 18 -22 64 -21 84 1 16 17 17 95 17 918 0 494 4
904 8 910 4 6 35 26 70 44 66 35 108 83 130 148 l11 32 -275 0 c-178 0 -274
-4 -274 -10z"/>
<path d="M2873 2926 c-162 -122 -285 -296 -346 -491 -44 -140 -48 -207 -45
-695 l3 -455 23 -45 c13 -25 57 -79 98 -121 l74 -77 0 -454 0 -455 23 -34 c12
-19 43 -45 69 -57 47 -24 48 -24 93 -6 47 18 83 55 106 109 l13 30 4 -28 c7
-56 -54 -124 -125 -137 -29 -6 -18 -8 49 -9 l88 -1 0 1461 0 1461 -22 24 c-13
13 -28 24 -35 24 -6 0 -37 -20 -70 -44z m37 -1439 c0 -1230 -1 -1331 -17
-1358 -25 -41 -63 -55 -102 -35 -17 9 -35 26 -42 37 -7 14 -12 173 -16 487
l-5 467 -78 80 c-44 44 -86 96 -94 116 -20 49 -31 529 -17 804 12 248 27 317
103 469 43 87 149 230 200 270 30 23 34 24 50 9 17 -15 18 -85 18 -1346z"/>
<path d="M2820 2763 c-105 -117 -172 -234 -217 -380 l-27 -88 -4 -475 c-2
-261 0 -491 3 -510 5 -26 30 -58 98 -128 l92 -93 3 -471 c2 -323 6 -476 14
-485 12 -15 56 -17 78 -3 13 8 16 173 20 1350 3 737 2 1340 -2 1340 -3 0 -30
-26 -58 -57z"/>
</g>
</svg>
