<?xml version="1.0" standalone="no"?>
<!DOCTYPE svg PUBLIC "-//W3C//DTD SVG 20010904//EN"
 "http://www.w3.org/TR/2001/REC-SVG-20010904/DTD/svg10.dtd">
<svg version="1.0" xmlns="http://www.w3.org/2000/svg"
 width="225.000000pt" height="225.000000pt" viewBox="0 0 225.000000 225.000000"
 preserveAspectRatio="xMidYMid meet">
<metadata>
Created by potrace 1.10, written by Peter Selinger 2001-2011
</metadata>
<g transform="translate(0.000000,225.000000) scale(0.100000,-0.100000)"
fill="#000000" stroke="none">
<path d="M1056 2235 c-142 -50 -180 -231 -72 -339 130 -131 350 -41 349 143 0
149 -137 246 -277 196z"/>
<path d="M990 1733 c-56 -9 -83 -29 -134 -97 -29 -39 -123 -163 -209 -275
-147 -190 -157 -207 -157 -247 0 -23 5 -46 10 -49 6 -3 10 -50 10 -104 l0 -98
-52 -5 c-92 -9 -88 8 -88 -430 l0 -379 25 -24 c23 -24 29 -25 153 -25 113 0
133 2 153 19 l24 19 3 373 c2 256 -1 382 -8 400 -14 32 -48 49 -100 49 l-40 0
0 74 c0 74 0 74 29 81 34 7 57 31 155 159 l76 99 0 -594 c0 -576 1 -595 20
-627 36 -59 113 -67 161 -16 l24 26 3 359 3 359 79 0 80 0 0 -350 c0 -249 3
-357 12 -375 13 -29 55 -55 88 -55 28 0 77 26 89 48 5 9 10 280 12 614 2 329
7 598 10 598 3 0 45 -52 94 -115 67 -86 97 -117 122 -126 l33 -11 0 -74 0 -74
-40 0 c-52 0 -86 -17 -100 -49 -7 -18 -10 -144 -8 -400 l3 -373 24 -19 c20
-17 40 -19 153 -19 124 0 130 1 153 25 l25 24 0 379 c0 438 4 421 -88 430
l-52 5 0 91 c1 64 5 97 15 110 18 23 19 69 4 97 -12 23 -341 453 -394 516 -28
33 -45 44 -85 52 -48 10 -236 13 -290 4z"/>
</g>
</svg>
