<?xml version="1.0" standalone="no"?>
<!DOCTYPE svg PUBLIC "-//W3C//DTD SVG 20010904//EN"
 "http://www.w3.org/TR/2001/REC-SVG-20010904/DTD/svg10.dtd">
<svg version="1.0" xmlns="http://www.w3.org/2000/svg"
 width="273.000000pt" height="184.000000pt" viewBox="0 0 273.000000 184.000000"
 preserveAspectRatio="xMidYMid meet">
<metadata>
Created by potrace 1.10, written by Peter Selinger 2001-2011
</metadata>
<g transform="translate(0.000000,184.000000) scale(0.100000,-0.100000)"
fill="#000000" stroke="none">
<path d="M67 1688 c-9 -7 -21 -26 -27 -41 -6 -19 -10 -293 -10 -818 l0 -789
171 0 171 0 -3 170 -4 170 1000 0 1000 0 -4 -170 -3 -170 171 0 171 0 0 289
c0 185 -4 299 -11 320 -23 65 46 61 -1195 61 l-1126 0 1 452 c2 470 -1 508
-39 528 -28 15 -243 13 -263 -2z m241 -41 c8 -9 12 -160 14 -475 l3 -461 23
-23 23 -23 1126 -3 c815 -2 1130 -5 1140 -13 11 -10 13 -65 11 -288 l-3 -276
-110 -3 c-95 -2 -111 0 -122 15 -9 11 -13 58 -13 148 0 121 -2 133 -21 151
-20 18 -53 19 -988 22 -531 1 -981 0 -999 -3 -55 -10 -66 -40 -72 -194 l-5
-136 -115 0 -115 0 -3 774 c-1 563 1 777 9 787 16 19 202 20 217 1z"/>
<path d="M662 1434 c-61 -23 -154 -112 -183 -176 -33 -74 -33 -202 0 -269 36
-75 86 -125 159 -161 59 -29 76 -33 147 -33 103 0 171 31 244 110 65 72 85
131 79 239 -7 124 -62 212 -170 271 -46 25 -66 30 -143 32 -63 2 -103 -2 -133
-13z m253 -51 c142 -74 197 -247 124 -391 -52 -105 -136 -156 -259 -156 -94 0
-152 26 -214 95 -84 94 -99 223 -39 331 31 56 103 118 157 136 51 18 185 9
231 -15z"/>
<path d="M1225 1345 l-25 -24 0 -266 0 -265 751 0 752 0 -8 93 c-3 50 -16 119
-27 151 -51 154 -186 280 -343 321 -49 12 -143 15 -568 15 l-508 0 -24 -25z
m1066 -25 c201 -38 366 -232 357 -422 l-3 -63 -700 0 -700 0 -3 232 c-2 200 0
233 14 247 14 14 70 16 498 16 282 0 506 -4 537 -10z"/>
</g>
</svg>
