<?xml version="1.0" standalone="no"?>
<!DOCTYPE svg PUBLIC "-//W3C//DTD SVG 20010904//EN"
 "http://www.w3.org/TR/2001/REC-SVG-20010904/DTD/svg10.dtd">
<svg version="1.0" xmlns="http://www.w3.org/2000/svg"
 width="300.000000pt" height="300.000000pt" viewBox="0 0 300.000000 300.000000"
 preserveAspectRatio="xMidYMid meet">
<metadata>
Created by potrace 1.10, written by Peter Selinger 2001-2011
</metadata>
<g transform="translate(0.000000,300.000000) scale(0.100000,-0.100000)"
fill="#000000" stroke="none">
<path d="M0 1762 l0 -1238 23 -22 23 -22 590 2 c581 3 589 3 589 23 0 20 -8
20 -558 25 -461 4 -559 7 -566 19 -26 42 -27 1595 -1 1626 11 13 97 15 739 15
399 0 731 4 737 8 23 15 23 40 1 46 -12 3 -347 6 -743 6 -614 0 -723 2 -733
14 -9 11 -11 63 -9 183 l3 168 30 45 c17 25 50 56 75 70 l45 25 1255 0 1255 0
41 -22 c42 -22 80 -66 102 -116 17 -38 17 -338 0 -355 -9 -9 -115 -12 -414
-12 -221 0 -409 -3 -418 -6 -21 -8 -21 -40 0 -48 9 -3 197 -6 419 -6 389 0
405 -1 415 -19 6 -13 10 -208 10 -564 0 -514 -1 -545 -18 -560 -16 -15 -45
-17 -196 -17 -281 0 -286 -4 -286 -280 0 -102 -5 -192 -10 -200 -7 -11 -34
-16 -97 -20 -81 -5 -88 -7 -91 -27 -3 -21 0 -22 108 -25 61 -2 118 -1 126 2 8
3 136 127 284 275 l270 270 0 987 0 988 -1500 0 -1500 -1 0 -1237z m2814 1057
c97 -36 184 -152 174 -234 -3 -27 -6 -23 -26 33 -28 76 -76 133 -140 164 l-47
23 -1275 0 -1275 0 -47 -23 c-64 -32 -120 -97 -141 -166 -10 -31 -21 -56 -24
-56 -3 0 -3 23 -1 50 9 87 88 179 185 215 32 11 249 14 1300 14 1249 1 1263 1
1317 -20z m-12 -1856 c10 -9 18 -21 18 -26 0 -15 -302 -317 -317 -317 -25 0
-33 41 -33 170 l0 132 29 29 29 29 128 0 c105 0 131 -3 146 -17z"/>
<path d="M2516 934 c-13 -12 -16 -41 -16 -152 l0 -137 150 150 c83 82 150 151
150 152 0 2 -60 3 -134 3 -109 0 -138 -3 -150 -16z"/>
<path d="M212 2703 c-18 -9 -45 -32 -60 -51 -26 -35 -27 -39 -30 -204 l-3
-168 735 0 c723 0 736 0 756 -20 25 -25 25 -55 0 -80 -20 -20 -33 -20 -755
-20 l-735 0 0 -800 0 -800 554 0 c491 0 556 -2 570 -16 18 -18 20 -47 6 -75
-10 -18 -28 -19 -615 -19 l-604 0 -15 22 c-15 21 -16 2 -16 -225 l0 -247 1500
0 1500 0 0 493 0 493 -267 -268 -268 -268 -132 0 c-132 0 -133 0 -150 26 -15
24 -15 29 -2 53 14 25 19 26 107 29 l92 3 0 182 c0 170 2 186 23 227 12 25 37
55 56 67 32 22 43 23 227 23 l194 0 0 550 0 550 -408 0 c-449 0 -452 0 -452
59 0 62 -5 61 449 61 l412 0 -3 168 c-3 165 -4 169 -30 204 -56 73 46 68
-1350 68 -1140 0 -1256 -2 -1286 -17z m247 -70 c98 -73 94 -207 -8 -267 -98
-57 -231 18 -231 131 0 67 39 127 100 152 36 15 108 7 139 -16z m390 7 c52
-26 81 -75 81 -136 0 -144 -168 -212 -267 -108 -54 58 -56 145 -6 205 50 59
124 74 192 39z m421 -10 c44 -31 74 -100 65 -149 -15 -81 -74 -133 -153 -134
-132 -2 -206 146 -125 251 14 19 40 40 57 48 43 20 116 12 156 -16z m1420 -80
c11 -11 20 -29 20 -40 0 -11 -9 -29 -20 -40 -19 -19 -33 -20 -527 -20 -457 0
-508 2 -525 17 -24 21 -23 58 2 83 19 19 33 20 525 20 492 0 506 -1 525 -20z
m-821 -296 c24 -31 16 -62 -21 -83 -54 -31 -104 43 -61 91 23 26 58 22 82 -8z
m-1702 -366 c-3 -8 -6 -5 -6 6 -1 11 2 17 5 13 3 -3 4 -12 1 -19z m310 -84
c15 -11 38 -36 51 -54 29 -44 31 -131 2 -177 -19 -33 -19 -33 1 -68 28 -48 23
-137 -10 -183 -39 -55 -86 -72 -202 -72 -149 0 -139 -21 -139 288 0 228 2 257
17 274 16 18 30 19 135 16 100 -3 121 -6 145 -24z m376 12 c43 -17 95 -78 102
-119 4 -18 5 -101 3 -183 -3 -147 -4 -151 -31 -187 -85 -111 -256 -97 -316 25
-18 39 -21 62 -21 189 1 184 17 227 105 273 37 19 115 21 158 2z m441 -19 c66
-51 76 -85 76 -257 0 -128 -3 -156 -19 -188 -23 -46 -46 -67 -94 -87 -70 -29
-162 -11 -208 41 -46 52 -50 78 -47 249 l3 163 30 38 c47 57 89 76 161 72 49
-3 69 -10 98 -31z m224 21 c7 -7 12 -40 12 -77 l0 -65 71 77 c60 65 76 77 103
77 40 0 56 -15 56 -54 0 -25 -18 -48 -102 -133 l-103 -103 103 -103 c87 -87
102 -107 102 -134 0 -33 -21 -53 -57 -53 -9 0 -53 35 -95 77 l-78 78 0 -62 c0
-68 -15 -93 -55 -93 -53 0 -55 10 -55 294 0 190 3 265 12 274 7 7 26 12 43 12
17 0 36 -5 43 -12z m384 -5 c17 -15 18 -37 18 -271 0 -281 -2 -292 -61 -292
-55 0 -59 19 -59 290 0 206 3 249 16 268 18 26 60 29 86 5z m268 -140 c57 -87
106 -161 109 -165 3 -4 4 56 3 133 -3 116 -1 144 12 164 19 29 60 33 88 8 17
-15 18 -37 18 -271 0 -282 -2 -292 -62 -292 -29 0 -43 19 -235 317 -9 14 -12
-13 -12 -134 -1 -124 -4 -154 -17 -167 -18 -18 -47 -20 -75 -6 -18 10 -19 24
-19 278 0 195 3 271 12 280 7 7 26 12 44 12 30 0 37 -9 134 -157z m548 138
c46 -23 67 -46 87 -94 30 -72 10 -127 -46 -127 -31 0 -59 31 -59 66 0 32 -47
67 -80 59 -51 -12 -60 -36 -60 -166 0 -67 5 -129 11 -143 24 -53 99 -50 126 4
11 23 10 26 -15 32 -51 14 -67 63 -32 98 15 15 33 20 75 20 77 0 95 -20 95
-102 0 -119 -66 -197 -174 -206 -80 -6 -159 41 -185 111 -17 44 -14 332 3 365
18 35 64 78 96 91 42 16 118 13 158 -8z m-889 -833 c174 -99 324 -188 334
-196 25 -22 22 -68 -5 -86 -13 -8 -61 -20 -108 -27 -47 -6 -86 -13 -88 -14 -1
-1 52 -98 118 -216 66 -117 120 -219 120 -226 0 -24 -40 -54 -68 -51 -32 4
-38 13 -203 306 -65 117 -119 223 -119 236 0 32 24 49 86 61 l53 10 -195 112
-194 112 0 -226 0 -226 35 46 c68 89 93 79 179 -72 74 -131 81 -166 37 -187
-38 -20 -63 -2 -106 74 -22 40 -42 72 -45 72 -3 0 -23 -23 -44 -51 -87 -113
-116 -129 -156 -89 -19 19 -20 33 -20 400 0 367 1 381 20 400 11 11 28 20 37
20 9 0 159 -82 332 -182z m86 -723 c30 -29 31 -49 5 -75 -24 -24 -57 -26 -82
-3 -38 34 -11 97 45 102 4 1 19 -10 32 -24z"/>
<path d="M340 2620 c-54 -13 -90 -60 -90 -118 0 -75 48 -122 125 -122 76 0
125 49 125 124 0 65 -37 106 -110 121 -8 1 -31 -1 -50 -5z m80 -72 c26 -28 26
-66 -2 -95 -28 -30 -62 -29 -87 3 -27 34 -27 62 1 91 27 29 61 29 88 1z"/>
<path d="M340 2521 c-19 -36 14 -70 53 -55 39 14 24 74 -18 74 -14 0 -29 -8
-35 -19z"/>
<path d="M735 2615 c-55 -20 -85 -56 -85 -106 0 -82 49 -129 136 -129 39 0 51
5 80 34 29 29 34 41 34 81 0 101 -71 153 -165 120z m89 -67 c52 -74 -38 -162
-93 -92 -27 34 -27 62 1 91 28 30 72 30 92 1z"/>
<path d="M747 2533 c-11 -11 -8 -48 5 -61 32 -32 87 18 58 53 -13 15 -51 20
-63 8z"/>
<path d="M1149 2620 c-85 -25 -117 -86 -88 -168 25 -72 141 -97 200 -44 26 23
34 40 39 81 5 44 3 57 -16 85 -13 19 -35 37 -51 40 -15 4 -35 9 -43 11 -8 1
-27 0 -41 -5z m73 -67 c40 -36 9 -123 -43 -123 -26 0 -69 44 -69 69 0 10 9 30
21 45 24 30 63 34 91 9z"/>
<path d="M1150 2525 c-26 -32 13 -81 48 -59 34 22 22 74 -18 74 -10 0 -23 -7
-30 -15z"/>
<path d="M1660 2532 c-20 -7 -10 -42 13 -47 12 -3 240 -4 507 -3 l485 3 3 23
3 22 -358 0 c-197 0 -422 2 -501 3 -78 1 -147 1 -152 -1z"/>
<path d="M1800 2221 c0 -10 9 -21 19 -24 24 -6 31 0 31 25 0 13 -7 18 -25 18
-18 0 -25 -5 -25 -19z"/>
<path d="M215 1787 c-3 -7 -4 -123 -3 -257 l3 -245 98 -3 c112 -3 157 12 189
62 22 36 21 119 -3 173 -12 29 -11 36 4 62 21 36 22 112 2 151 -26 50 -80 70
-190 70 -68 0 -97 -4 -100 -13z m216 -66 c38 -38 40 -91 4 -126 -20 -21 -34
-25 -83 -25 -32 0 -63 5 -70 12 -7 7 -12 39 -12 72 0 78 16 96 82 96 41 0 54
-5 79 -29z m4 -236 c36 -37 34 -87 -4 -126 -24 -24 -38 -29 -77 -29 -68 0 -84
18 -84 95 0 34 5 66 12 73 7 7 38 12 70 12 48 0 61 -4 83 -25z"/>
<path d="M298 1660 l-3 -60 53 0 c39 0 57 5 72 20 47 47 6 100 -78 100 l-40 0
-4 -60z"/>
<path d="M300 1421 l0 -60 51 4 c79 6 108 43 73 93 -12 18 -25 22 -70 22 l-54
0 0 -59z"/>
<path d="M704 1781 c-24 -11 -50 -33 -62 -53 -20 -32 -22 -49 -22 -184 0 -173
10 -205 75 -241 75 -42 165 -22 213 47 20 31 22 44 22 189 0 181 -9 208 -83
241 -53 24 -91 25 -143 1z m134 -65 l37 -34 3 -113 c4 -132 -6 -177 -49 -213
-42 -35 -74 -33 -115 8 l-34 34 0 140 c0 127 2 142 21 166 43 55 86 58 137 12z"/>
<path d="M745 1708 c-11 -6 -23 -16 -27 -22 -4 -6 -8 -72 -8 -147 0 -123 2
-138 20 -154 29 -26 70 -22 98 10 23 27 23 33 20 156 -3 138 -8 152 -58 163
-14 3 -34 1 -45 -6z"/>
<path d="M1113 1780 c-74 -33 -83 -60 -83 -240 0 -138 2 -159 20 -188 23 -37
88 -72 135 -72 48 0 110 34 133 72 20 32 22 49 22 189 0 137 -2 158 -20 187
-23 37 -88 72 -135 72 -16 0 -49 -9 -72 -20z m133 -64 l34 -34 0 -142 0 -142
-34 -34 c-40 -40 -72 -43 -111 -12 -44 34 -51 69 -45 211 l5 129 33 29 c43 39
76 37 118 -5z"/>
<path d="M1154 1708 c-35 -16 -44 -52 -44 -173 0 -105 2 -116 23 -141 28 -33
71 -35 100 -5 19 19 22 35 25 128 5 125 -7 175 -43 191 -30 14 -33 14 -61 0z"/>
<path d="M1455 1788 c-3 -7 -4 -124 -3 -258 3 -237 4 -245 23 -245 17 0 20 8
23 50 3 45 23 85 43 85 4 0 40 -30 79 -67 74 -69 102 -82 108 -50 3 12 -30 53
-97 122 -56 57 -101 109 -101 115 0 6 44 56 98 112 97 99 118 139 79 146 -11
2 -42 -22 -86 -67 -38 -39 -74 -71 -79 -71 -20 0 -37 34 -42 84 -4 38 -9 52
-23 54 -9 2 -19 -3 -22 -10z"/>
<path d="M1846 1792 c-10 -17 -8 -494 3 -505 5 -5 17 -7 26 -4 13 6 15 36 13
259 -3 226 -5 253 -20 256 -9 2 -19 -1 -22 -6z"/>
<path d="M2015 1788 c-3 -7 -4 -124 -3 -258 3 -237 4 -245 23 -245 19 0 20 8
25 142 4 114 8 146 22 159 9 9 20 14 25 11 5 -3 54 -74 109 -156 93 -142 120
-171 144 -156 6 4 10 99 10 256 0 217 -2 250 -16 256 -31 12 -39 -16 -44 -157
-5 -150 -15 -179 -48 -147 -9 10 -60 81 -112 160 -89 133 -123 167 -135 135z"/>
<path d="M2574 1789 c-18 -5 -46 -25 -63 -44 l-31 -36 -1 -127 c-1 -70 0 -143
1 -162 5 -109 120 -171 225 -120 61 30 87 79 83 158 l-3 57 -57 3 c-53 3 -58
1 -58 -18 0 -13 9 -24 25 -30 38 -14 42 -53 11 -95 -32 -41 -65 -52 -107 -35
-52 22 -69 72 -69 201 0 78 4 120 15 143 20 42 67 69 105 61 33 -7 80 -57 80
-85 0 -24 26 -44 46 -36 13 5 15 15 11 46 -13 97 -108 150 -213 119z"/>
<path d="M1487 1119 c-16 -9 -17 -39 -17 -378 0 -449 0 -449 110 -311 28 36
58 69 66 73 21 12 39 -6 81 -80 28 -51 40 -63 57 -61 35 5 30 33 -28 133 -31
53 -56 101 -56 106 0 5 -12 9 -26 9 -19 0 -38 -13 -66 -45 -39 -44 -41 -45
-59 -29 -18 16 -19 35 -19 239 0 225 3 245 39 245 25 0 367 -203 388 -229 18
-24 -2 -49 -45 -56 -62 -11 -72 -16 -72 -33 0 -9 62 -127 138 -262 108 -192
141 -245 157 -245 42 0 27 43 -84 239 -61 107 -111 204 -111 214 0 29 18 39
100 52 102 16 110 19 110 39 0 11 -81 64 -267 171 -404 234 -376 220 -396 209z"/>
<path d="M1853 224 c-3 -8 -1 -20 5 -26 16 -16 42 -2 42 22 0 24 -38 28 -47 4z"/>
</g>
</svg>
