<?xml version="1.0" standalone="no"?>
<!DOCTYPE svg PUBLIC "-//W3C//DTD SVG 20010904//EN"
 "http://www.w3.org/TR/2001/REC-SVG-20010904/DTD/svg10.dtd">
<svg version="1.0" xmlns="http://www.w3.org/2000/svg"
 width="300.000000pt" height="300.000000pt" viewBox="0 0 300.000000 300.000000"
 preserveAspectRatio="xMidYMid meet">
<metadata>
Created by potrace 1.10, written by Peter Selinger 2001-2011
</metadata>
<g transform="translate(0.000000,300.000000) scale(0.100000,-0.100000)"
fill="#000000" stroke="none">
<path d="M1 2218 c0 -452 4 -774 9 -762 5 12 13 25 19 29 6 3 227 6 491 5
l480 -1 0 108 c0 94 3 115 25 161 47 101 127 151 254 159 l76 5 58 -90 c85
-131 101 -130 202 7 l60 82 63 -4 c115 -8 213 -78 248 -175 8 -21 13 -82 14
-144 l0 -107 482 0 483 0 17 -21 c17 -21 18 10 18 754 l0 776 -1500 0 -1500 0
1 -782z m1605 723 c22 -10 51 -32 65 -48 l24 -29 27 28 c38 41 96 40 132 -3
25 -30 26 -34 26 -173 0 -133 2 -144 21 -162 65 -59 86 -197 42 -280 -39 -73
-109 -123 -196 -138 l-38 -7 30 42 c17 23 33 57 37 75 4 24 12 34 24 34 26 0
70 56 70 90 0 31 -43 90 -66 90 -8 0 -14 8 -14 19 0 13 -9 20 -30 24 -36 8
-64 49 -63 93 1 39 -7 42 -45 14 -30 -23 -138 -47 -329 -75 l-123 -18 0 -29
c0 -17 -5 -28 -14 -28 -23 0 -66 -59 -66 -90 0 -34 44 -90 70 -90 12 0 20 -10
24 -34 4 -18 20 -52 36 -75 l30 -42 -27 7 c-96 21 -157 64 -194 137 -44 85
-30 201 31 271 27 30 28 35 31 163 4 129 5 132 35 170 16 21 50 48 74 61 40
20 58 22 190 22 119 0 152 -4 186 -19z m-486 -95 c0 -2 -35 -16 -77 -31 -81
-28 -228 -102 -323 -161 -82 -51 -170 -126 -252 -213 -76 -81 -119 -116 -79
-66 110 141 296 292 461 376 114 57 270 113 270 95z m890 -33 c481 -190 815
-598 901 -1101 19 -114 25 -211 12 -198 -4 3 -12 55 -19 114 -15 129 -19 151
-39 222 -9 30 -19 65 -22 78 -3 12 -9 22 -14 22 -5 0 -6 6 -3 13 6 18 -114
251 -172 334 -84 117 -246 272 -368 352 -61 39 -114 71 -120 71 -5 0 -17 6
-25 14 -16 14 -137 65 -203 86 -46 14 -65 36 -22 26 16 -4 58 -19 94 -33z
m-693 -410 c-2 -21 -4 -4 -4 37 0 41 2 58 4 38 2 -21 2 -55 0 -75z m102 33
c17 -20 3 -46 -24 -46 -29 0 -38 13 -30 40 7 23 37 26 54 6z m216 -6 c8 -27
-1 -40 -30 -40 -27 0 -41 26 -24 46 17 20 47 17 54 -6z m175 -24 c0 -3 -4 -8
-10 -11 -5 -3 -10 -1 -10 4 0 6 5 11 10 11 6 0 10 -2 10 -4z m-493 -108 c-2
-13 -4 -3 -4 22 0 25 2 35 4 23 2 -13 2 -33 0 -45z m486 37 c-3 -9 -8 -14 -10
-11 -3 3 -2 9 2 15 9 16 15 13 8 -4z m-883 -15 c19 -19 20 -33 20 -307 0 -252
-2 -289 -17 -305 -14 -16 -33 -18 -149 -18 l-132 0 -11 51 c-6 29 -10 52 -9
53 2 1 59 -2 128 -5 l125 -5 -119 -2 -118 -2 7 -27 c3 -16 11 -32 16 -37 5 -5
52 -11 105 -12 105 -3 147 9 157 45 6 24 0 31 -27 32 -18 1 -17 2 4 8 l25 7 1
246 c1 135 -2 252 -7 259 -9 16 -319 26 -631 21 l-178 -2 0 -244 c0 -298 -8
-281 141 -281 79 0 98 -3 94 -13 -3 -8 -8 -31 -11 -53 l-7 -39 -132 0 c-183 0
-169 -24 -173 300 -2 142 1 274 6 292 5 19 18 38 33 45 18 10 128 13 432 13
394 0 408 -1 427 -20z m520 -39 c3 -13 18 -34 33 -45 26 -19 30 -19 55 -6 15
9 31 29 37 48 11 40 45 45 45 7 0 -84 -91 -132 -166 -86 -32 20 -62 81 -49
101 11 18 39 6 45 -19z m-53 -130 c20 -24 53 -54 75 -67 l39 -25 -3 -67 -3
-67 -60 -3 c-33 -2 -56 0 -52 5 4 4 25 6 46 4 46 -3 54 7 56 68 1 33 -3 48
-18 60 -87 71 -148 155 -146 200 0 9 7 -3 15 -25 8 -23 31 -60 51 -83z m266
-73 c-19 -9 -23 -20 -25 -67 l-2 -56 -3 55 c-3 43 -1 57 13 67 10 7 23 13 28
12 6 0 1 -5 -11 -11z m-15 -153 c-3 -3 -9 2 -12 12 -6 14 -5 15 5 6 7 -7 10
-15 7 -18z m-1092 -15 c32 -11 79 -72 71 -92 -4 -9 -6 -8 -6 3 -2 31 -66 80
-117 88 -45 8 -46 9 -13 10 20 0 49 -4 65 -9z m-63 -57 c-15 -21 -28 -40 -30
-42 -2 -2 -3 1 -3 7 0 11 48 72 56 72 3 0 -7 -17 -23 -37z m1907 -77 c-22 -24
-22 -65 0 -51 5 3 10 -3 10 -14 0 -13 -7 -21 -17 -21 -37 0 -84 -40 -106 -90
-24 -55 -37 -63 -37 -25 0 14 5 25 10 25 6 0 10 6 10 13 0 20 51 65 88 78 35
12 43 29 13 29 -42 0 -27 50 20 69 35 14 35 14 9 -13z m-1943 -8 c-3 -8 -6 -5
-6 6 -1 11 2 17 5 13 3 -3 4 -12 1 -19z m1981 -23 c-3 -3 -9 2 -12 12 -6 14
-5 15 5 6 7 -7 10 -15 7 -18z m-1991 -27 c-3 -7 -5 -2 -5 12 0 14 2 19 5 13 2
-7 2 -19 0 -25z m-10 -50 c-3 -7 -5 -2 -5 12 0 14 2 19 5 13 2 -7 2 -19 0 -25z
m-338 -67 c-2 -79 -19 -123 -19 -51 0 49 10 120 17 120 2 0 3 -31 2 -69z m231
13 c-19 -88 -21 -96 -26 -91 -3 3 2 37 12 76 19 80 31 91 14 15z m2170 31 c11
-13 10 -14 -4 -9 -9 3 -16 10 -16 15 0 13 6 11 20 -6z m-2073 -17 c-3 -8 -6
-5 -6 6 -1 11 2 17 5 13 3 -3 4 -12 1 -19z m-10 -40 c-3 -8 -6 -5 -6 6 -1 11
2 17 5 13 3 -3 4 -12 1 -19z m257 6 c3 -8 2 -12 -4 -9 -6 3 -10 10 -10 16 0
14 7 11 14 -7z m-267 -56 c-3 -7 -5 -2 -5 12 0 14 2 19 5 13 2 -7 2 -19 0 -25z
m283 -1 c0 -5 -4 -5 -10 -2 -5 3 -10 14 -10 23 0 15 2 15 10 2 5 -8 10 -19 10
-23z m1880 -22 c0 -8 -5 -15 -11 -15 -5 0 -7 5 -4 10 4 7 -48 10 -149 10 -97
0 -156 -4 -156 -10 0 -5 -4 -10 -10 -10 -5 0 -10 7 -10 15 0 13 26 15 170 15
144 0 170 -2 170 -15z"/>
<path d="M1298 2903 c-24 -21 -36 -29 -28 -18 7 11 21 26 29 33 13 10 13 12
-2 12 -34 0 -95 -32 -116 -61 -30 -41 -34 -58 -38 -179 -2 -58 -9 -115 -15
-127 -25 -50 41 -72 82 -28 15 16 26 21 30 14 5 -7 19 -8 46 0 21 5 57 12 79
16 142 20 224 39 268 60 28 14 54 25 59 25 4 0 15 -25 24 -56 11 -37 23 -58
37 -65 12 -5 30 -15 40 -21 14 -11 22 -10 45 2 29 17 38 40 27 68 -4 9 -6 74
-5 144 1 124 1 128 -24 153 -14 14 -32 25 -41 25 -19 0 -54 -18 -73 -37 -20
-19 -36 -16 -63 13 -45 48 -63 53 -211 60 l-107 5 -43 -38z m-61 -125 c-3 -8
-6 -5 -6 6 -1 11 2 17 5 13 3 -3 4 -12 1 -19z"/>
<path d="M1081 2487 c-43 -88 -20 -212 50 -271 33 -28 78 -50 86 -43 10 11
-26 66 -69 108 -43 40 -48 50 -48 89 0 37 5 48 40 81 45 43 48 49 21 49 -10 0
-24 7 -31 15 -19 23 -26 19 -49 -28z"/>
<path d="M1863 2515 c-7 -8 -20 -18 -29 -23 -15 -8 -13 -13 17 -40 30 -27 34
-36 34 -82 0 -49 -3 -55 -41 -89 -39 -34 -80 -99 -69 -109 10 -10 87 33 112
62 60 71 73 181 32 255 -25 43 -37 49 -56 26z"/>
<path d="M62 2297 c-9 -11 -16 -301 -12 -545 0 -33 51 -51 138 -49 38 1 68 5
65 9 -2 5 7 4 21 -1 28 -11 40 -2 50 42 l6 27 -76 0 c-81 0 -137 18 -149 48
-4 9 -6 122 -6 250 0 188 -2 232 -13 232 -7 0 -18 -6 -24 -13z"/>
<path d="M1269 1880 c-66 -35 -128 -130 -129 -197 0 -18 -4 -33 -9 -33 -11 0
3 74 23 122 9 20 34 54 56 75 35 35 37 39 18 40 -33 3 -99 -32 -137 -70 -46
-49 -69 -124 -67 -223 l1 -79 48 -3 c45 -3 47 -2 47 23 0 15 4 24 10 20 6 -3
10 -17 10 -29 0 -22 -5 -24 -67 -28 -40 -2 -68 -9 -71 -16 -3 -10 -113 -12
-465 -12 l-462 1 -6 -33 c-6 -31 -6 -31 -8 -5 -1 33 -11 34 -39 4 -43 -46 -19
-108 49 -127 21 -6 557 -10 1437 -10 1202 0 1408 2 1437 14 33 14 44 29 28 39
-5 2 -2 2 4 1 14 -4 27 34 21 62 -1 9 -15 26 -29 36 -25 19 -48 20 -495 21
-363 1 -472 5 -482 14 -10 10 -109 14 -425 15 l-412 3 410 5 410 5 2 88 c1
107 -15 163 -64 213 -47 49 -106 74 -175 74 l-56 0 -38 -52 c-45 -64 -111
-128 -129 -128 -37 0 -70 30 -120 107 -59 90 -67 94 -126 63z m640 -254 c46
-42 10 -87 -72 -93 -28 -2 -83 -1 -122 4 -64 7 -70 10 -79 36 -12 34 1 59 33
67 12 3 67 5 121 5 82 -1 102 -4 119 -19z m-1819 -241 c7 -9 8 -15 2 -15 -5 0
-12 7 -16 15 -3 8 -4 15 -2 15 2 0 9 -7 16 -15z m80 -25 c0 -5 -5 -10 -11 -10
-5 0 -7 5 -4 10 3 6 8 10 11 10 2 0 4 -4 4 -10z m290 -6 c0 -2 -9 -4 -21 -4
-11 0 -18 4 -14 10 5 8 35 3 35 -6z m40 6 c0 -5 -8 -10 -17 -10 -15 0 -16 2
-3 10 19 12 20 12 20 0z m215 0 c3 -5 -1 -10 -10 -10 -9 0 -13 5 -10 10 3 6 8
10 10 10 2 0 7 -4 10 -10z m629 2 c3 -5 -21 -9 -52 -9 l-57 0 50 7 c28 4 51 8
52 8 1 1 4 -2 7 -6z m416 -8 c0 -2 -15 -4 -32 -4 -23 0 -29 3 -19 9 12 8 51 4
51 -5z m364 8 c3 -5 -1 -9 -9 -9 -8 0 -12 4 -9 9 3 4 7 8 9 8 2 0 6 -4 9 -8z
m70 0 c3 -5 -1 -9 -9 -9 -8 0 -12 4 -9 9 3 4 7 8 9 8 2 0 6 -4 9 -8z m171 -2
c-3 -5 -12 -10 -18 -10 -7 0 -6 4 3 10 19 12 23 12 15 0z m184 -6 c2 -2 -19
-4 -48 -4 -29 0 -50 4 -47 9 5 8 85 4 95 -5z m135 8 c3 -5 -1 -9 -9 -9 -8 0
-12 4 -9 9 3 4 7 8 9 8 2 0 6 -4 9 -8z m-2277 -8 c-3 -3 -12 -4 -19 -1 -8 3
-5 6 6 6 11 1 17 -2 13 -5z m226 -1 c-7 -2 -21 -2 -30 0 -10 3 -4 5 12 5 17 0
24 -2 18 -5z m44 1 c-3 -3 -12 -4 -19 -1 -8 3 -5 6 6 6 11 1 17 -2 13 -5z
m256 -1 c-7 -2 -19 -2 -25 0 -7 3 -2 5 12 5 14 0 19 -2 13 -5z m114 1 c-3 -3
-12 -4 -19 -1 -8 3 -5 6 6 6 11 1 17 -2 13 -5z m70 0 c-3 -3 -12 -4 -19 -1 -8
3 -5 6 6 6 11 1 17 -2 13 -5z m566 -1 c-7 -2 -21 -2 -30 0 -10 3 -4 5 12 5 17
0 24 -2 18 -5z m114 1 c-3 -3 -12 -4 -19 -1 -8 3 -5 6 6 6 11 1 17 -2 13 -5z
m66 -1 c-7 -2 -19 -2 -25 0 -7 3 -2 5 12 5 14 0 19 -2 13 -5z m570 0 c-7 -2
-21 -2 -30 0 -10 3 -4 5 12 5 17 0 24 -2 18 -5z m184 1 c-3 -3 -12 -4 -19 -1
-8 3 -5 6 6 6 11 1 17 -2 13 -5z"/>
<path d="M1668 1622 c-22 -4 -31 -31 -17 -49 9 -10 39 -13 133 -11 116 3 121
4 124 25 5 34 -28 45 -131 41 -51 -2 -99 -4 -109 -6z"/>
<path d="M1 673 l-1 -673 1500 0 1500 0 -1 673 c0 420 -4 663 -9 649 -6 -13
-23 -28 -40 -33 -23 -9 -31 -18 -36 -47 -131 -765 -834 -1288 -1594 -1188
-146 19 -237 43 -368 97 -195 80 -394 221 -528 377 -177 206 -278 416 -334
694 -10 49 -15 58 -41 67 -16 5 -33 20 -39 33 -5 14 -9 -229 -9 -649z"/>
<path d="M104 1263 c2 -10 16 -67 30 -126 41 -172 108 -319 220 -481 l61 -88
5 214 c5 233 11 258 66 278 14 6 172 10 362 10 370 0 366 1 397 -60 13 -24 15
-99 15 -479 l0 -449 98 -8 c53 -5 140 -7 192 -5 52 2 116 5 143 5 l47 1 0 453
c0 497 0 496 60 527 24 13 81 15 367 13 l338 -2 -255 -6 c-140 -3 -256 -7
-258 -8 -1 -1 -11 -17 -22 -34 -11 -18 -20 -28 -20 -23 0 6 7 21 16 33 8 12
14 23 12 23 -2 1 -30 3 -63 5 -79 4 -120 -10 -143 -49 -18 -30 -19 -55 -18
-472 l1 -440 25 2 c38 4 179 43 235 65 52 21 256 126 265 137 3 3 25 20 50 36
24 17 88 72 142 124 l98 93 0 223 0 223 -31 31 c-17 17 -26 31 -22 31 5 0 20
-12 34 -26 24 -25 24 -30 29 -246 l5 -220 45 64 c25 34 47 67 49 73 2 5 12 22
22 36 69 99 157 326 183 472 4 21 10 45 13 53 4 12 -186 14 -1397 14 -1330 0
-1401 -1 -1396 -17z m1843 -871 c-1 -75 -3 -13 -3 138 0 151 2 213 3 138 2
-76 2 -200 0 -276z m0 -219 c-2 -16 -4 -3 -4 27 0 30 2 43 4 28 2 -16 2 -40 0
-55z"/>
<path d="M493 1049 c-50 -19 -55 -42 -57 -276 l-1 -218 45 -50 c25 -27 58 -60
74 -74 15 -13 34 -31 41 -38 8 -7 16 -13 19 -13 3 0 7 134 9 298 l2 297 3
-308 2 -307 84 -54 c95 -62 172 -102 266 -139 70 -28 234 -77 256 -77 21 0 21
878 0 918 -26 50 -41 53 -311 50 l-249 -3 -23 -34 c-13 -19 -23 -27 -23 -19 0
9 7 21 15 28 8 7 15 16 15 21 0 11 -138 10 -167 -2z"/>
</g>
</svg>
