<?xml version="1.0" standalone="no"?>
<!DOCTYPE svg PUBLIC "-//W3C//DTD SVG 20010904//EN"
 "http://www.w3.org/TR/2001/REC-SVG-20010904/DTD/svg10.dtd">
<svg version="1.0" xmlns="http://www.w3.org/2000/svg"
 width="300.000000pt" height="300.000000pt" viewBox="0 0 300.000000 300.000000"
 preserveAspectRatio="xMidYMid meet">
<metadata>
Created by potrace 1.10, written by Peter Selinger 2001-2011
</metadata>
<g transform="translate(0.000000,300.000000) scale(0.100000,-0.100000)"
fill="#000000" stroke="none">
<path d="M610 2611 c-80 -25 -159 -91 -198 -165 l-27 -51 -3 -267 -3 -268 235
0 236 0 0 59 c0 118 62 227 164 285 72 43 134 48 526 44 414 -3 412 -3 505
-89 67 -62 97 -127 103 -221 l5 -78 234 0 234 0 -3 268 c-3 256 -4 269 -26
310 -34 63 -89 120 -146 150 l-51 27 -880 2 c-484 1 -891 -2 -905 -6z"/>
<path d="M1100 2051 c-44 -23 -80 -90 -80 -148 l0 -43 480 0 480 0 0 43 c0 58
-36 125 -80 148 -32 18 -63 19 -400 19 -337 0 -368 -1 -400 -19z"/>
<path d="M220 1665 c-71 -23 -138 -81 -179 -155 l-36 -65 -4 -162 -3 -163
1502 0 1502 0 -3 163 -4 162 -36 65 c-42 76 -109 133 -183 155 -72 22 -2487
21 -2556 0z"/>
<path d="M0 695 c0 -299 5 -315 94 -315 52 0 79 37 84 115 l4 65 1318 0 1318
0 4 -65 c5 -78 32 -115 84 -115 89 0 94 16 94 315 l0 245 -1500 0 -1500 0 0
-245z"/>
</g>
</svg>
