<?xml version="1.0" standalone="no"?>
<!DOCTYPE svg PUBLIC "-//W3C//DTD SVG 20010904//EN"
 "http://www.w3.org/TR/2001/REC-SVG-20010904/DTD/svg10.dtd">
<svg version="1.0" xmlns="http://www.w3.org/2000/svg"
 width="225.000000pt" height="225.000000pt" viewBox="0 0 225.000000 225.000000"
 preserveAspectRatio="xMidYMid meet">
<metadata>
Created by potrace 1.10, written by Peter Selinger 2001-2011
</metadata>
<g transform="translate(0.000000,225.000000) scale(0.100000,-0.100000)"
fill="#000000" stroke="none">
<path d="M1110 2235 c-19 -7 -217 -90 -440 -183 l-405 -170 -1 -304 c0 -166 2
-496 5 -733 5 -374 4 -432 -9 -445 -13 -13 -17 -12 -30 14 -31 60 -126 64
-150 6 -21 -50 -10 -72 45 -92 28 -10 59 -16 69 -14 11 3 30 -4 44 -15 14 -10
33 -19 43 -19 10 0 21 -5 25 -11 4 -6 19 -9 37 -5 23 5 33 2 44 -14 8 -11 23
-20 33 -20 10 0 22 -4 25 -10 3 -5 1 -10 -4 -10 -6 0 -11 -5 -11 -11 0 -6 8
-9 18 -7 9 2 16 9 15 14 -1 5 16 8 38 6 31 -3 40 0 46 14 6 17 8 16 13 -6 7
-29 45 -50 104 -57 22 -3 48 -12 57 -19 8 -8 30 -17 47 -20 18 -4 35 -10 38
-15 2 -5 17 -6 33 -3 20 4 30 1 34 -9 3 -8 20 -18 37 -22 24 -5 29 -10 20 -20
-8 -9 -8 -15 0 -20 12 -7 32 3 26 14 -3 4 11 5 30 3 19 -2 41 1 49 8 12 10 15
9 15 -9 0 -19 16 -27 45 -21 5 1 23 2 40 2 16 0 40 6 51 14 12 7 30 10 41 8
11 -3 44 -1 74 5 30 6 87 13 128 16 95 6 125 24 119 71 -4 30 -1 35 21 40 15
3 42 10 61 15 19 5 37 9 41 9 3 0 5 -16 5 -36 0 -20 6 -39 15 -45 16 -10 108
-1 126 13 6 5 42 10 80 11 37 2 74 6 82 11 7 5 46 10 85 12 39 2 81 9 94 15
31 17 30 68 -3 103 -34 37 -105 37 -141 1 -23 -23 -27 -24 -47 -10 -14 10 -33
13 -54 9 l-33 -6 0 120 c0 101 3 121 16 126 15 6 15 8 0 31 -21 32 -22 105 -1
105 12 0 15 13 15 59 0 36 -5 61 -12 63 -13 5 -12 149 1 158 4 3 11 31 15 63
5 47 4 57 -9 57 -12 0 -15 15 -15 80 0 64 3 80 15 80 23 0 21 115 -2 124 -15
6 -16 30 -10 264 l6 257 -347 174 c-428 215 -398 202 -442 186z m26 -816 c1
-579 -2 -799 -10 -796 -6 2 -188 33 -405 68 -217 35 -387 65 -377 67 15 3 249
-29 314 -43 21 -5 22 -3 22 60 0 49 -4 67 -15 71 -11 5 -15 23 -15 75 l0 69
-115 2 c-63 1 -132 2 -152 3 l-37 0 3 -52 2 -53 -30 0 -31 0 0 69 0 69 43 -4
c23 -2 111 -5 195 -8 l152 -4 0 69 c0 55 -3 69 -15 69 -12 0 -15 14 -15 63 0
35 -2 66 -5 68 -2 3 -59 -1 -127 -8 -68 -6 -135 -12 -150 -12 -27 -1 -28 -3
-28 -56 0 -52 -1 -55 -25 -55 -24 0 -25 2 -25 70 0 56 3 68 14 64 14 -5 303
21 354 32 20 4 22 10 22 69 0 51 -3 65 -15 65 -12 0 -15 14 -15 65 0 51 -3 65
-15 65 -8 0 -76 -13 -152 -30 -75 -16 -138 -30 -139 -30 -2 0 -4 -24 -6 -52
-3 -48 -5 -53 -28 -56 -24 -3 -25 -1 -27 68 -1 58 1 71 13 66 11 -4 287 56
367 80 14 4 17 17 17 69 0 47 -4 64 -15 69 -11 4 -15 21 -15 66 0 35 -4 60
-11 60 -5 0 -75 -23 -155 -52 l-144 -51 0 -47 c0 -34 -4 -50 -16 -54 -41 -16
-44 -10 -44 88 0 89 1 94 23 100 12 3 202 82 422 175 220 93 402 170 405 170
3 1 5 -359 6 -800z m734 194 l0 -252 -22 8 c-18 6 -21 16 -22 62 l-1 54 -110
37 c-159 52 -155 53 -155 -34 0 -49 -3 -68 -10 -58 -5 8 -26 19 -47 25 l-38
11 -1 64 c-1 44 -6 67 -15 72 -12 6 -82 29 -226 73 -23 6 -23 5 -23 -73 0 -63
-3 -81 -15 -86 -13 -5 -15 -20 -13 -78 l3 -73 100 -22 c55 -12 134 -28 175
-34 41 -6 84 -15 95 -19 31 -13 264 -60 296 -60 l29 0 0 -75 c0 -73 -1 -75
-25 -75 -24 0 -25 2 -25 63 l0 62 -102 19 c-57 10 -115 20 -130 23 l-28 6 0
-70 0 -70 -50 10 -50 10 0 68 c0 78 10 70 -125 94 -49 9 -100 19 -112 22 -23
5 -23 3 -23 -81 0 -70 -3 -86 -15 -86 -12 0 -15 -15 -15 -74 l0 -73 68 -7 c37
-4 128 -11 202 -17 292 -21 425 -34 423 -41 -2 -5 -3 -39 -3 -78 0 -63 -2 -70
-20 -70 -18 0 -20 7 -20 64 l0 65 -52 5 c-29 3 -88 8 -130 11 l-78 6 0 -77 c0
-74 -1 -76 -22 -70 -13 3 -35 6 -50 6 -28 0 -28 0 -28 70 0 48 -4 72 -12 75
-7 2 -66 6 -130 10 l-118 6 0 -86 c0 -69 -3 -85 -15 -85 -12 0 -15 -15 -15
-75 l0 -75 38 0 c21 0 119 4 218 9 287 16 443 20 399 11 -22 -4 -148 -13 -280
-19 -132 -6 -273 -14 -312 -17 l-73 -6 0 801 0 801 355 -177 355 -178 0 -252z
m-1243 206 c-2 -44 -11 -51 -100 -73 -28 -7 -28 -6 -25 35 3 41 5 43 53 60 72
25 73 25 72 -22z m-147 -48 c0 -39 0 -40 -54 -55 -30 -9 -57 -16 -61 -16 -3 0
-5 17 -3 37 3 34 6 38 53 54 67 23 65 24 65 -20z m140 -65 c0 -34 -4 -46 -17
-50 -21 -6 -313 -76 -319 -76 -2 0 -4 15 -4 34 l0 35 83 25 c45 13 118 35 162
49 44 14 83 25 88 26 4 1 7 -19 7 -43z m38 -16 c-2 -24 -7 -45 -13 -47 -6 -2
-9 19 -7 53 3 36 7 53 14 46 5 -5 8 -29 6 -52z m612 -54 l45 -13 3 -63 c3 -57
1 -62 -15 -55 -10 3 -33 9 -50 12 l-33 6 0 63 c0 35 1 64 3 64 1 0 22 -6 47
-14z m143 -42 c26 -6 27 -9 27 -66 0 -48 -3 -59 -14 -55 -8 3 -31 9 -50 13
l-36 6 0 60 c0 58 1 60 23 54 12 -4 34 -9 50 -12z m-783 -83 l0 -48 -60 -10
-60 -10 0 39 c0 21 0 41 0 46 0 6 74 28 108 31 8 1 12 -15 12 -48z m1003 13
l47 -16 0 -50 c0 -39 -3 -49 -14 -45 -8 3 -30 9 -48 12 -33 6 -34 7 -34 61 0
30 1 54 1 54 1 0 22 -7 48 -16z m-1168 -85 c-11 -3 -39 -9 -62 -13 l-43 -6 0
40 c0 35 3 40 28 46 15 3 41 9 57 13 29 7 30 6 35 -33 4 -35 2 -42 -15 -47z
m775 -5 c0 -56 -2 -65 -16 -60 -9 3 -20 6 -25 6 -10 0 -13 103 -2 113 3 4 15
7 25 7 16 0 18 -9 18 -66z m527 47 c37 -10 38 -12 38 -56 0 -45 0 -45 -30 -39
-65 14 -69 18 -70 68 0 32 4 45 12 42 6 -3 29 -10 50 -15z m-354 -26 l117 -29
0 -48 c0 -26 -3 -48 -7 -48 -5 0 -65 12 -135 27 l-128 26 0 55 c0 47 2 54 18
50 9 -3 70 -18 135 -33z m-793 -59 c0 -51 11 -47 -180 -66 -58 -6 -115 -13
-127 -16 -21 -4 -23 -1 -23 34 l0 39 153 25 c83 14 158 26 165 27 8 1 12 -14
12 -43z m40 -11 c0 -24 -4 -47 -10 -50 -6 -4 -10 15 -10 50 0 35 4 54 10 50 6
-3 10 -26 10 -50z m940 -30 c0 -48 -2 -55 -20 -55 -17 0 -20 7 -20 48 0 51 5
62 27 62 9 0 13 -16 13 -55z m173 10 l117 -29 0 -42 0 -41 -117 24 c-164 33
-153 27 -153 80 0 38 3 45 18 41 9 -3 70 -18 135 -33z m-490 -81 l37 -7 0 -65
0 -65 -37 7 c-21 3 -44 6 -50 6 -9 0 -13 20 -13 65 0 70 -1 69 63 59z m150
-31 c4 -2 7 -31 7 -65 0 -51 -2 -59 -16 -54 -9 3 -31 6 -50 6 l-34 0 0 66 0
66 43 -7 c23 -4 45 -9 50 -12z m-803 -42 l0 -49 -60 -4 -60 -3 0 47 c0 52 4
55 78 57 l42 1 0 -49z m-144 -8 l-1 -48 -58 -3 -57 -3 0 30 c0 16 -3 36 -6 45
-6 15 -1 16 102 24 19 2 21 -3 20 -45z m1162 12 c31 -6 32 -8 32 -62 0 -46 -3
-54 -16 -49 -9 3 -31 6 -50 6 l-34 0 0 61 c0 53 2 60 18 55 9 -2 32 -7 50 -11z
m115 -21 c37 -7 37 -7 37 -55 0 -47 -1 -49 -27 -49 -63 0 -73 8 -73 61 0 53 0
53 63 43z m-1143 -99 l0 -45 -165 0 -165 0 0 40 0 39 143 4 c78 1 152 4 165 5
20 2 22 -2 22 -43z m618 -18 c3 -55 2 -57 -23 -57 -24 0 -25 3 -25 53 0 58 5
69 30 65 11 -2 16 -18 18 -61z m-578 3 c0 -27 -4 -50 -10 -50 -5 0 -10 23 -10
50 0 28 5 50 10 50 6 0 10 -22 10 -50z m793 29 l77 -11 0 -50 0 -50 -32 5
c-18 3 -79 9 -135 13 l-103 7 0 55 0 55 58 -7 c31 -3 92 -11 135 -17z m147
-69 c0 -46 -2 -50 -24 -50 -22 0 -23 3 -21 48 2 26 4 48 4 50 1 1 10 2 21 2
17 0 20 -7 20 -50z m150 30 c146 -17 140 -14 140 -61 0 -41 0 -41 -32 -36 -18
3 -79 9 -135 13 l-103 7 0 49 c0 42 3 49 18 44 9 -2 60 -10 112 -16z m-1304
-100 l44 0 0 -51 0 -51 -31 6 c-17 3 -44 6 -60 6 -28 0 -29 1 -29 51 0 43 3
50 16 45 9 -3 36 -6 60 -6z m184 -55 l0 -55 -37 0 c-74 0 -83 7 -83 61 l0 49
60 0 60 0 0 -55z m671 15 c17 0 19 -8 19 -65 l0 -65 -34 0 c-19 0 -41 -3 -50
-6 -14 -5 -16 5 -16 71 l0 78 31 -7 c17 -3 40 -6 50 -6z m139 -67 l0 -68 -50
3 -50 4 0 64 0 64 50 0 50 0 0 -67z m240 -13 l0 -58 -50 1 -50 2 0 60 0 60 50
-3 50 -4 0 -58z m89 54 c30 -6 31 -8 31 -60 l0 -54 -50 0 -50 0 0 60 c0 66 2
67 69 54z m-1291 -55 l142 -12 0 -47 0 -46 -162 25 -163 26 -3 39 c-3 36 -2
38 20 33 13 -3 87 -11 166 -18z m184 -54 c0 -19 1 -40 2 -47 1 -6 -5 -13 -11
-15 -9 -3 -13 10 -13 46 0 57 19 71 22 16z m868 -76 l0 -49 -112 0 c-62 0
-123 -3 -135 -6 -22 -6 -23 -4 -23 52 l0 59 135 -3 135 -3 0 -50z m-290 -4 c0
-52 -1 -55 -25 -55 -24 0 -25 3 -25 55 0 52 1 55 25 55 24 0 25 -3 25 -55z
m356 10 c-1 -40 -4 -45 -23 -45 -21 0 -23 5 -23 45 0 40 2 45 23 45 21 0 24
-4 23 -45z m294 5 c0 -37 -2 -40 -27 -40 -16 0 -76 -3 -135 -7 l-108 -6 0 47
0 46 135 0 135 0 0 -40z m-1165 -60 c226 -38 410 -70 410 -70 0 0 0 -97 0
-215 0 -184 -2 -215 -15 -215 -8 0 -27 -6 -42 -14 -25 -13 -28 -13 -33 5 -10
31 -62 52 -110 46 -36 -5 -45 -3 -63 18 -25 28 -61 40 -100 32 -19 -4 -38 2
-65 20 -21 15 -55 27 -77 29 -50 3 -80 13 -80 25 0 14 -71 40 -100 37 -14 -2
-53 11 -87 27 l-62 30 -1 85 c0 47 -3 118 -7 158 -4 57 -3 72 8 72 8 0 198
-32 424 -70z m1135 -53 l0 -24 -64 16 c-36 9 -68 19 -72 24 -4 4 25 7 64 7 69
0 72 -1 72 -23z m-397 -13 c-74 -16 -158 -57 -173 -83 -8 -15 -16 -18 -37 -12
-38 10 -34 21 18 54 48 29 149 56 214 55 36 0 34 -1 -22 -14z m-194 -19 c-53
-28 -72 -47 -67 -72 4 -23 68 -36 141 -28 l57 6 0 -138 c-1 -120 -3 -141 -19
-161 -19 -21 -20 -21 -48 -6 -37 22 -95 12 -121 -20 -14 -18 -22 -22 -35 -14
-15 8 -17 33 -17 228 l0 219 38 4 c20 2 55 4 77 5 l40 1 -46 -24z m559 -4 c23
-7 42 -15 42 -20 0 -5 -64 -14 -142 -20 -79 -7 -205 -19 -282 -27 -76 -8 -140
-13 -143 -11 -9 10 62 51 120 69 109 35 292 39 405 9z m32 -181 c0 -117 -2
-130 -17 -131 -10 -1 -44 -2 -75 -3 -35 -1 -64 -8 -75 -18 -10 -8 -30 -18 -45
-22 l-28 -6 0 144 0 144 68 7 c37 4 72 8 77 10 6 2 29 4 53 4 l42 1 0 -130z
m-260 -35 l0 -144 -37 -10 c-28 -8 -42 -7 -58 3 -11 7 -34 11 -53 8 l-32 -4 0
135 0 136 58 6 c31 3 66 7 77 9 11 2 26 4 33 5 9 1 12 -34 12 -144z m-1392 30
c31 -26 57 -32 67 -15 10 17 43 11 95 -15 27 -14 65 -25 83 -25 47 0 89 -34
85 -69 -3 -22 -8 -26 -34 -25 -17 1 -55 13 -84 28 -28 14 -64 26 -79 26 -16 0
-48 11 -72 23 -24 13 -63 26 -87 29 -55 8 -75 24 -61 49 14 26 52 24 87 -6z
m1910 -121 c48 -34 17 -66 -65 -66 -32 0 -78 -6 -102 -14 -26 -9 -57 -12 -74
-8 -19 4 -50 0 -82 -11 -60 -21 -85 -15 -85 18 0 37 23 50 75 45 30 -4 42 -2
38 5 -4 6 0 8 10 4 9 -3 19 -2 22 3 8 13 78 13 108 -1 19 -9 32 -6 72 15 57
31 54 30 83 10z m-1435 -16 c23 -12 62 -23 86 -25 27 -1 59 -12 82 -28 26 -17
52 -25 81 -25 30 0 55 -8 82 -26 35 -24 43 -26 82 -17 31 7 51 6 72 -3 27 -11
34 -10 63 12 36 26 65 30 103 13 20 -10 29 -8 54 10 61 43 146 14 112 -39 -6
-10 -35 -17 -87 -22 -141 -13 -227 -25 -269 -38 -35 -10 -46 -9 -72 4 -17 9
-49 16 -72 16 -24 0 -61 10 -90 25 -27 14 -59 25 -71 25 -12 0 -47 12 -78 27
-31 14 -66 26 -78 25 -25 -2 -89 23 -98 38 -8 14 23 50 42 50 8 0 33 -10 56
-22z"/>
<path d="M920 1994 l-145 -52 -5 -63 c-5 -61 -6 -63 -40 -74 -35 -12 -35 -12
-38 -77 -3 -64 -2 -66 25 -73 19 -5 85 6 210 36 l183 44 0 78 c0 62 -3 77 -15
77 -12 0 -15 15 -15 74 0 41 -3 76 -7 79 -5 2 -73 -20 -153 -49z m140 -33 l0
-58 -58 -17 c-32 -9 -60 -16 -63 -16 -2 0 -2 24 -1 54 l4 54 51 20 c29 11 55
20 60 21 4 0 7 -25 7 -58z m-152 -72 c-3 -29 -8 -33 -61 -49 l-58 -18 3 51 3
51 55 21 55 21 3 -23 c2 -12 2 -37 0 -54z m182 -80 c0 -33 -4 -59 -10 -59 -6
0 -10 29 -10 66 0 41 4 63 10 59 6 -3 10 -33 10 -66z m-42 9 l-3 -52 -150 -38
c-82 -20 -158 -38 -167 -38 -14 0 -18 8 -18 39 0 22 5 43 12 47 17 11 289 92
311 93 16 1 18 -6 15 -51z"/>
<path d="M910 1646 l-135 -31 -3 -67 -3 -68 -34 0 c-19 0 -36 -3 -38 -7 -3 -5
-2 -37 2 -73 5 -60 8 -65 31 -69 14 -2 105 5 203 15 l177 18 0 78 c0 63 -3 78
-15 78 -12 0 -15 16 -15 80 0 70 -2 80 -17 79 -10 -1 -79 -15 -153 -33z m148
-112 c-2 -2 -29 -7 -61 -12 l-57 -9 0 57 0 58 58 14 57 14 3 -59 c2 -33 1 -61
0 -63z m-148 32 c0 -60 1 -59 -77 -71 l-43 -7 0 55 0 54 43 10 c77 19 77 19
77 -41z m140 -111 c0 -63 12 -58 -150 -75 -58 -6 -124 -13 -146 -16 l-42 -6 3
49 3 48 159 26 c87 15 161 27 166 28 4 1 7 -24 7 -54z m40 -16 c0 -33 -4 -59
-10 -59 -6 0 -10 29 -10 66 0 41 4 63 10 59 6 -3 10 -33 10 -66z"/>
<path d="M890 1309 c-52 -5 -101 -11 -107 -14 -9 -3 -13 -27 -13 -70 l0 -65
-35 0 -35 0 0 -69 0 -70 43 -5 c23 -3 115 -7 205 -9 l162 -3 0 78 c0 63 -3 78
-15 78 -12 0 -15 16 -15 80 l0 80 -47 -1 c-27 -1 -91 -6 -143 -10z m170 -74
l0 -65 -60 0 -60 0 0 59 0 60 33 4 c92 11 87 14 87 -58z m-145 -4 l0 -59 -53
-6 c-29 -4 -58 -4 -63 -1 -5 4 -9 30 -9 60 l0 54 48 4 c26 2 54 4 62 5 12 2
15 -10 15 -57z m135 -136 l0 -56 -165 2 -165 1 0 48 0 49 103 4 c56 1 130 4
165 5 l62 2 0 -55z m40 -11 c0 -30 -4 -54 -10 -54 -6 0 -10 27 -10 61 0 37 4
58 10 54 6 -3 10 -31 10 -61z"/>
<path d="M770 910 l0 -72 -35 6 -35 7 0 -69 0 -69 58 -12 c31 -6 123 -22 205
-35 l147 -23 0 79 c0 63 -3 78 -15 78 -12 0 -15 16 -15 85 l0 85 -63 0 c-35 0
-105 3 -155 6 l-92 7 0 -73z m121 40 c29 0 29 -1 29 -60 l0 -60 -42 0 c-80 0
-83 3 -80 72 l4 60 30 -6 c17 -3 43 -6 59 -6z m169 -71 l0 -71 -31 6 c-17 3
-44 6 -60 6 -29 0 -29 0 -29 65 l0 65 60 0 60 0 0 -71z m-160 -74 c74 -8 138
-15 143 -15 8 0 10 -110 2 -110 -9 0 -197 30 -262 41 l-63 11 0 44 c0 52 -13
50 180 29z m190 -80 c0 -30 -4 -55 -10 -55 -5 0 -10 25 -10 55 0 30 5 55 10
55 6 0 10 -25 10 -55z"/>
<path d="M1190 2048 c0 -18 3 -56 6 -84 6 -47 10 -53 41 -68 l35 -17 -4 31
c-3 16 -1 30 4 30 4 0 8 -14 8 -30 0 -23 7 -35 32 -50 18 -10 34 -18 35 -16 2
2 1 40 -3 86 -7 78 -9 83 -38 101 l-31 19 -6 -33 c-5 -27 -7 -28 -8 -7 -2 31
-10 44 -38 59 -31 16 -33 15 -33 -21z m34 6 c9 -3 16 -17 16 -29 0 -24 24 -55
42 -55 6 0 8 11 6 25 -6 29 16 35 30 8 12 -23 23 -133 14 -133 -17 1 -31 17
-38 45 -11 47 -50 65 -42 20 5 -25 -6 -32 -28 -17 -10 7 -30 142 -20 142 2 0
11 -3 20 -6z"/>
<path d="M1358 1965 c-23 -51 39 -165 89 -165 24 0 43 19 43 43 0 37 25 10 28
-31 2 -29 10 -46 25 -57 38 -27 50 -20 43 25 -4 25 -2 40 4 40 13 0 30 -43 30
-75 0 -19 11 -30 50 -50 27 -14 52 -25 55 -25 12 0 4 51 -9 56 -8 3 -12 13 -9
25 3 10 -1 27 -8 36 -12 15 -12 16 3 10 11 -4 18 0 20 11 2 9 7 -19 12 -64 l7
-80 55 -27 54 -27 0 29 c0 20 -7 31 -25 39 -18 9 -25 19 -25 41 0 80 -3 84
-133 146 -193 91 -187 89 -187 63 0 -21 -2 -20 -20 9 -34 56 -83 70 -102 28z
m85 -25 c47 -55 48 -120 4 -120 -44 0 -96 86 -81 132 9 28 49 22 77 -12z m147
-83 c0 -16 -4 -26 -10 -22 -6 4 -10 -10 -10 -34 0 -23 -4 -41 -8 -41 -18 0
-32 26 -32 62 0 25 -6 40 -18 47 -10 5 -18 21 -20 34 l-2 25 50 -21 c43 -18
50 -25 50 -50z m118 -37 c3 -7 -5 -9 -22 -4 -31 8 -35 -10 -6 -28 23 -15 27
-33 5 -24 -26 10 -17 -30 10 -42 14 -6 25 -16 25 -22 0 -14 -5 -13 -49 9 -35
18 -39 24 -44 73 -12 93 -13 90 35 68 24 -10 44 -24 46 -30z m56 -16 c9 -4 16
-18 16 -34 0 -56 13 -92 36 -102 13 -6 24 -17 24 -25 0 -10 -11 -8 -42 8 -24
12 -44 22 -45 23 -4 4 -14 136 -10 136 3 0 12 -3 21 -6z"/>
<path d="M1404 1916 c-6 -16 11 -46 27 -46 15 0 10 37 -6 50 -12 10 -16 9 -21
-4z"/>
<path d="M362 533 l3 -87 85 -27 c47 -15 91 -28 98 -28 9 -1 12 24 12 93 l0
94 -92 21 c-51 12 -97 21 -101 21 -4 0 -6 -39 -5 -87z m178 -44 c0 -38 -3 -69
-6 -69 -3 0 -39 10 -80 22 l-74 21 0 67 0 68 80 -20 80 -20 0 -69z"/>
<path d="M612 465 l3 -97 90 -29 c50 -16 96 -27 103 -24 9 3 12 30 10 102 l-3
98 -62 16 c-33 9 -80 20 -102 24 l-42 7 3 -97z m173 33 c8 -9 9 -158 1 -158
-5 0 -40 10 -77 22 l-68 21 -3 75 c-2 40 -2 75 0 76 3 3 142 -31 147 -36z"/>
<path d="M872 393 l3 -107 90 -28 c50 -15 93 -28 98 -28 4 0 7 51 7 114 l0
114 -91 21 c-50 12 -95 21 -100 21 -6 0 -9 -43 -7 -107z m178 -45 c0 -81 -2
-90 -17 -85 -10 2 -46 13 -80 22 l-63 18 0 87 0 88 80 -20 80 -20 0 -90z"/>
<path d="M1248 453 l-38 -4 0 -115 c0 -130 -9 -121 100 -101 l65 12 3 108 3
107 -48 -2 c-26 -1 -65 -3 -85 -5z m112 -102 l0 -88 -50 -7 c-28 -4 -57 -9
-65 -12 -13 -5 -15 9 -15 89 l0 96 38 4 c20 2 49 4 65 5 l27 2 0 -89z"/>
<path d="M1683 503 l-41 -4 -7 -84 c-4 -47 -5 -92 -1 -101 7 -17 14 -17 129 8
l47 10 0 89 0 89 -42 -2 c-24 -1 -62 -3 -85 -5z m107 -83 c0 -64 -2 -70 -22
-75 -81 -18 -108 -22 -111 -16 -1 3 -1 38 1 78 l4 72 31 4 c18 2 47 5 65 5
l32 2 0 -70z"/>
</g>
</svg>
