<?xml version="1.0" standalone="no"?>
<!DOCTYPE svg PUBLIC "-//W3C//DTD SVG 20010904//EN"
 "http://www.w3.org/TR/2001/REC-SVG-20010904/DTD/svg10.dtd">
<svg version="1.0" xmlns="http://www.w3.org/2000/svg"
 width="300.000000pt" height="300.000000pt" viewBox="0 0 300.000000 300.000000"
 preserveAspectRatio="xMidYMid meet">
<metadata>
Created by potrace 1.10, written by Peter Selinger 2001-2011
</metadata>
<g transform="translate(0.000000,300.000000) scale(0.100000,-0.100000)"
fill="#000000" stroke="none">
<path d="M0 1723 l0 -1276 34 -71 c35 -75 50 -92 106 -122 63 -34 70 -44 70
-95 0 -58 30 -99 91 -123 40 -16 43 -16 86 5 52 25 83 69 83 117 0 73 -3 72
224 72 229 0 236 -2 236 -74 0 -50 32 -94 87 -118 43 -19 43 -19 88 1 54 24
85 70 85 127 0 46 12 60 77 93 24 12 54 38 68 59 l25 38 0 753 c0 717 0 754
-18 795 -39 86 -130 152 -225 163 -32 3 -61 14 -74 26 -22 19 -23 28 -23 154
0 143 6 168 46 183 23 9 24 12 24 115 l0 105 -392 -2 -393 -3 0 -105 c0 -97 1
-105 20 -108 40 -7 45 -29 45 -182 0 -170 -2 -174 -89 -183 -112 -13 -207 -97
-248 -220 l-21 -62 -1 46 c-3 124 133 256 283 274 l51 7 0 144 c0 140 -1 144
-21 144 -44 0 -54 28 -54 146 0 72 4 114 12 122 9 9 116 12 420 12 392 0 408
-1 418 -19 5 -11 10 -67 10 -124 0 -112 -11 -137 -58 -137 -22 0 -22 -3 -22
-144 l0 -144 55 -7 c70 -8 165 -56 206 -103 18 -20 44 -61 58 -92 l26 -55 0
-745 0 -745 -23 -43 c-23 -44 -88 -98 -129 -108 -19 -5 -23 -13 -23 -45 0 -55
-22 -102 -62 -133 -29 -22 -45 -26 -98 -26 -53 0 -69 4 -98 26 -39 30 -62 78
-62 129 l0 35 -200 0 -200 0 0 -35 c0 -46 -32 -108 -69 -134 -22 -16 -44 -21
-94 -21 -56 0 -70 4 -97 26 -41 35 -60 74 -60 126 -1 42 -2 44 -53 68 -65 32
-106 83 -116 146 -6 34 -9 -16 -10 -163 l-1 -213 822 0 c704 0 819 2 803 14
-17 12 -19 25 -16 95 l2 81 -74 0 c-105 0 -110 6 -105 152 3 126 15 154 75
183 l32 15 3 178 c3 168 4 179 27 211 13 18 42 42 65 52 38 17 76 19 581 19
505 0 543 -2 581 -19 23 -10 52 -34 65 -52 23 -32 24 -43 27 -211 l3 -178 32
-15 c36 -17 57 -45 68 -90 4 -16 7 231 7 550 l1 580 -24 -94 c-13 -51 -30 -99
-36 -107 -29 -35 -54 -15 -321 254 l-267 267 -48 -60 c-26 -33 -62 -78 -80
-101 l-32 -42 33 -114 c18 -63 30 -121 27 -129 -3 -8 -32 -49 -65 -92 -76
-100 -86 -100 -162 -7 -32 39 -58 70 -59 70 0 0 -15 -4 -32 -9 -71 -21 -164
38 -178 112 -4 21 -14 38 -24 41 -152 43 -161 47 -166 69 -6 24 72 181 101
203 8 7 65 17 127 24 l112 13 62 117 61 117 -355 133 c-227 86 -358 140 -364
151 -5 10 -6 24 -3 33 9 24 163 146 184 146 27 0 680 -59 710 -64 23 -4 30 5
90 121 59 113 74 133 156 211 50 48 117 103 149 122 51 30 70 35 136 38 73 4
78 3 111 -27 63 -55 74 -155 34 -312 -35 -137 -63 -193 -158 -311 l-85 -105
184 -329 183 -329 0 713 0 712 -1500 0 -1500 -1 0 -1276z m1044 881 c10 -10
16 -33 16 -63 0 -83 11 -80 -360 -80 -185 1 -332 5 -342 10 -14 8 -18 22 -18
67 0 32 5 63 12 70 9 9 99 12 344 12 289 0 335 -2 348 -16z m-72 -191 c16 -14
18 -33 18 -160 0 -199 24 -183 -288 -183 -208 0 -251 2 -270 16 -21 14 -22 22
-22 160 0 81 5 154 10 165 10 18 24 19 272 19 229 0 264 -2 280 -17z m184
-388 c13 -8 24 -21 24 -28 0 -7 -21 -32 -46 -57 -25 -24 -54 -60 -64 -80 -23
-45 -40 -127 -40 -190 0 -36 -5 -55 -20 -70 -18 -18 -35 -19 -310 -19 -345 0
-323 -7 -333 116 -9 115 -35 178 -103 243 -55 53 -55 53 -35 73 11 11 36 23
57 26 20 3 219 5 441 4 350 -2 408 -4 429 -18z m-940 -94 c42 -25 78 -74 100
-136 18 -47 19 -100 22 -772 3 -717 3 -722 -17 -742 -40 -40 -166 -18 -214 37
-46 51 -46 59 -47 788 0 585 2 698 15 741 29 98 74 125 141 84z m1072 -8 c47
-68 47 -65 47 -818 l0 -710 -25 -45 c-32 -58 -92 -90 -167 -90 -90 0 -84 -57
-81 771 l3 724 22 56 c47 115 156 176 201 112z m-280 -385 c16 -16 16 -150 0
-166 -9 -9 -91 -12 -309 -12 -296 0 -298 0 -313 22 -22 31 -21 126 1 150 15
17 38 18 313 18 217 0 299 -3 308 -12z m6 -226 c14 -16 16 -45 16 -209 -1
-152 -4 -195 -16 -212 -15 -21 -20 -21 -314 -21 -298 0 -299 0 -314 22 -24 34
-23 393 1 420 15 17 38 18 313 18 276 0 298 -1 314 -18z m0 -491 c15 -16 16
-47 15 -267 -1 -236 -2 -250 -21 -271 -20 -22 -25 -22 -306 -23 -281 -1 -286
0 -309 21 -23 22 -23 23 -23 272 0 219 2 253 17 269 15 17 38 18 313 18 277 0
298 -1 314 -19z m-596 -603 c16 -16 15 -73 -3 -107 -18 -36 -67 -58 -103 -45
-32 11 -72 68 -72 102 0 46 26 62 100 62 38 0 71 -5 78 -12z m720 0 c7 -7 12
-32 12 -56 0 -55 -41 -102 -90 -102 -49 0 -90 47 -90 102 0 24 5 49 12 56 16
16 140 16 156 0z"/>
<path d="M360 2543 l0 -48 336 2 337 3 1 45 1 45 -337 0 -338 0 0 -47z"/>
<path d="M440 2255 l0 -145 260 0 260 0 0 145 0 145 -260 0 -260 0 0 -145z"/>
<path d="M252 2001 c-9 -5 -2 -15 25 -33 66 -44 122 -181 123 -300 l0 -48 299
0 298 0 6 78 c10 125 60 237 124 274 25 15 31 23 21 29 -17 11 -879 11 -896 0z"/>
<path d="M118 1882 l-23 -47 -3 -706 c-2 -551 0 -714 10 -745 19 -57 65 -84
144 -84 l64 0 0 688 c0 454 -4 708 -11 747 -19 101 -60 161 -126 183 -31 10
-32 10 -55 -36z"/>
<path d="M1204 1910 c-29 -11 -78 -73 -95 -118 -11 -30 -14 -180 -17 -764 l-3
-728 61 0 c35 0 74 6 90 15 62 32 60 3 60 799 0 712 0 727 -20 766 -21 41 -36
47 -76 30z"/>
<path d="M400 1455 l0 -65 300 0 300 0 0 65 0 65 -300 0 -300 0 0 -65z"/>
<path d="M400 1100 l0 -200 300 0 300 0 0 200 0 200 -300 0 -300 0 0 -200z"/>
<path d="M400 555 l0 -255 300 0 300 0 0 255 0 255 -300 0 -300 0 0 -255z"/>
<path d="M270 171 c0 -42 30 -74 69 -74 40 0 60 19 68 66 l6 37 -72 0 -71 0 0
-29z"/>
<path d="M990 171 c0 -42 30 -74 70 -74 40 0 70 32 70 74 l0 29 -70 0 -70 0 0
-29z"/>
<path d="M2690 2957 c-148 -53 -286 -184 -375 -354 -32 -62 -65 -119 -75 -128
-15 -14 -49 -12 -346 15 -181 16 -348 32 -371 34 -38 5 -46 2 -110 -51 -37
-31 -68 -62 -68 -71 0 -10 83 -46 275 -119 151 -57 305 -115 343 -129 99 -38
100 -45 33 -179 -31 -62 -64 -119 -74 -128 -10 -9 -59 -21 -126 -30 -60 -9
-114 -21 -121 -29 -27 -27 -87 -150 -79 -158 5 -5 43 -18 84 -29 79 -22 100
-39 100 -79 0 -14 14 -38 35 -59 35 -35 37 -36 97 -30 l62 5 36 -40 c19 -23
46 -54 60 -70 16 -18 31 -27 40 -23 23 9 110 130 110 152 0 10 -11 57 -25 104
-37 126 -36 130 53 238 42 52 85 99 94 105 15 9 56 -28 286 -257 147 -147 273
-267 279 -267 7 0 22 33 33 73 11 39 24 81 29 92 6 14 1 31 -14 55 -60 96
-345 618 -345 632 0 9 34 58 76 109 92 113 129 183 160 307 27 106 31 197 11
245 -16 38 -32 52 -78 70 -30 12 -40 12 -89 -6z m111 -46 c28 -28 29 -34 29
-116 0 -70 -6 -105 -31 -179 -41 -123 -55 -146 -232 -363 -84 -103 -258 -318
-386 -478 -129 -159 -241 -296 -249 -302 -27 -22 -69 -15 -91 13 -12 15 -21
34 -21 43 0 14 132 279 463 931 99 194 124 235 183 298 97 105 212 179 282
181 13 1 36 -12 53 -28z m-931 -446 c157 -14 293 -28 302 -31 35 -11 30 -42
-22 -147 -75 -147 -70 -144 -161 -111 -41 15 -78 31 -83 36 -6 4 -16 8 -23 8
-8 0 -64 20 -126 44 -62 24 -158 60 -215 81 -131 48 -141 63 -83 117 38 36 45
39 84 34 23 -4 170 -17 327 -31z m838 -500 c62 -110 138 -247 169 -304 56
-104 56 -104 42 -144 -29 -83 -27 -84 -275 163 -222 222 -262 269 -248 293 4
7 41 54 82 105 57 72 79 92 96 90 16 -2 48 -51 134 -203z m-838 -195 c8 -16 4
-32 -19 -78 -39 -77 -51 -86 -105 -78 -58 9 -99 40 -90 70 12 39 54 85 87 95
59 17 115 13 127 -9z m278 -188 c25 -64 34 -105 28 -127 -8 -33 -54 -85 -76
-85 -15 0 -70 57 -93 97 -16 26 89 158 116 147 9 -3 20 -17 25 -32z"/>
<path d="M2661 2879 c-37 -18 -95 -63 -146 -111 l-84 -80 -125 -246 c-69 -136
-201 -397 -294 -579 -154 -304 -168 -335 -155 -353 32 -46 49 -30 273 248 593
735 594 737 622 804 35 85 62 219 55 272 -6 43 -35 76 -67 76 -9 0 -45 -14
-79 -31z"/>
<path d="M1473 2442 l-31 -26 296 -111 c164 -62 304 -115 312 -119 12 -5 28
19 70 101 30 60 56 110 57 113 2 3 -140 18 -314 33 -175 16 -327 30 -338 32
-11 2 -34 -8 -52 -23z"/>
<path d="M2495 2058 c-38 -50 -71 -94 -73 -99 -5 -12 455 -475 463 -467 4 4 8
24 8 45 2 32 -23 84 -158 325 -88 158 -162 287 -165 287 -3 0 -36 -41 -75 -91z"/>
<path d="M1782 1756 c-58 -10 -66 -14 -83 -46 -10 -19 -18 -38 -19 -41 0 -6
110 -33 115 -27 11 12 64 128 58 127 -5 -1 -37 -7 -71 -13z"/>
<path d="M2070 1536 l-42 -55 37 -46 38 -45 27 36 27 36 -16 58 c-9 32 -19 61
-22 65 -4 3 -25 -19 -49 -49z"/>
<path d="M1626 941 c-51 -34 -55 -52 -56 -232 l0 -167 -26 -23 c-90 -81 -84
-67 -84 -182 l0 -105 31 -6 c17 -3 50 -6 73 -6 23 0 47 -5 54 -12 7 -7 12 -43
12 -89 0 -66 3 -80 20 -92 11 -8 17 -17 13 -20 -3 -4 22 -7 57 -7 35 0 61 2
58 5 -2 3 21 31 52 63 31 31 73 77 93 102 37 44 39 45 115 52 42 4 156 4 252
1 l174 -6 40 -46 c23 -25 66 -72 97 -103 30 -32 51 -60 45 -62 -6 -2 20 -5 57
-5 38 -1 66 3 63 8 -3 5 1 11 9 15 12 4 15 23 15 84 0 97 9 108 101 114 96 8
109 19 109 94 0 73 -32 141 -83 175 -57 39 -57 40 -57 219 0 176 -3 188 -55
232 -18 16 -66 17 -585 18 -542 0 -566 -1 -594 -19z m1166 -39 l33 -32 3 -156
c4 -189 -2 -204 -75 -204 -64 0 -83 19 -83 85 0 83 -12 89 -184 93 -174 4
-184 -1 -195 -93 -4 -33 -10 -66 -14 -73 -5 -7 -30 -12 -62 -12 -67 0 -87 23
-84 94 4 77 -6 81 -180 81 -179 0 -191 -6 -191 -88 0 -67 -18 -87 -81 -87 -74
0 -79 13 -79 196 0 151 0 153 27 184 14 18 36 36 47 40 12 5 261 8 553 7 l533
-2 32 -33z m-710 -259 c23 -21 24 -89 1 -115 -14 -15 -32 -18 -134 -18 -137 0
-149 6 -149 75 0 66 19 75 154 75 88 0 113 -3 128 -17z m530 0 c12 -11 18 -30
18 -59 0 -68 -13 -74 -147 -74 -136 0 -153 8 -153 73 0 69 15 77 148 77 93 0
119 -3 134 -17z m293 -188 c22 -21 25 -33 25 -99 0 -54 -4 -79 -16 -90 -14
-14 -91 -16 -695 -16 -450 0 -687 4 -700 10 -16 9 -19 22 -19 95 0 137 -70
125 717 125 l664 0 24 -25z m-1037 -263 c3 -16 -11 -40 -43 -78 -40 -47 -51
-54 -82 -54 -51 0 -73 23 -73 77 0 78 8 84 108 81 82 -3 87 -4 90 -26z m882 9
c16 -31 12 -102 -7 -123 -10 -11 -30 -18 -53 -18 -31 0 -44 7 -73 39 -92 102
-86 121 39 121 72 0 85 -3 94 -19z"/>
<path d="M1675 898 c-42 -23 -45 -36 -45 -200 l0 -158 50 0 50 0 0 50 c0 61
22 107 56 120 14 6 90 10 169 10 140 0 144 -1 174 -26 29 -24 31 -31 31 -90
l0 -64 55 0 55 0 0 64 c0 59 2 66 31 90 30 25 34 26 174 26 90 0 154 -4 170
-12 36 -16 55 -57 55 -118 l0 -50 50 0 50 0 0 154 c0 85 -3 162 -6 171 -17 44
-34 45 -581 45 -356 -1 -524 -4 -538 -12z"/>
<path d="M1820 585 l0 -45 125 0 125 0 0 45 0 45 -125 0 -125 0 0 -45z"/>
<path d="M2360 585 l0 -45 125 0 125 0 0 45 0 45 -125 0 -125 0 0 -45z"/>
<path d="M1537 432 c-12 -13 -17 -37 -17 -80 l0 -62 695 0 695 0 0 58 c0 36
-6 66 -16 80 l-15 22 -663 0 c-630 0 -664 -1 -679 -18z"/>
<path d="M1700 143 l0 -53 34 0 c29 0 41 8 75 49 23 27 41 50 41 52 0 2 -34 4
-75 4 l-75 0 0 -52z"/>
<path d="M2580 191 c0 -2 18 -25 41 -52 34 -41 46 -49 75 -49 l34 0 0 53 0 52
-75 0 c-41 0 -75 -2 -75 -4z"/>
<path d="M2982 210 c-10 -17 -23 -20 -87 -20 l-75 0 0 -85 c0 -69 -3 -86 -17
-94 -13 -8 12 -10 90 -11 l107 0 0 115 c0 63 -1 115 -3 115 -1 0 -8 -9 -15
-20z"/>
<path d="M1915 119 c-32 -39 -72 -81 -88 -95 l-29 -24 417 0 417 0 -29 24
c-16 14 -56 56 -88 95 l-59 71 -241 0 -241 0 -59 -71z"/>
</g>
</svg>
