<?xml version="1.0" standalone="no"?>
<!DOCTYPE svg PUBLIC "-//W3C//DTD SVG 20010904//EN"
 "http://www.w3.org/TR/2001/REC-SVG-20010904/DTD/svg10.dtd">
<svg version="1.0" xmlns="http://www.w3.org/2000/svg"
 width="300.000000pt" height="300.000000pt" viewBox="0 0 300.000000 300.000000"
 preserveAspectRatio="xMidYMid meet">
<metadata>
Created by potrace 1.10, written by Peter Selinger 2001-2011
</metadata>
<g transform="translate(0.000000,300.000000) scale(0.100000,-0.100000)"
fill="#000000" stroke="none">
<path d="M2641 2975 c-55 -24 -151 -99 -222 -172 -52 -53 -81 -96 -130 -190
-58 -114 -64 -122 -88 -117 -28 5 -688 64 -714 64 -18 0 -173 -124 -181 -146
-3 -9 -2 -23 3 -33 6 -10 142 -67 365 -151 l355 -133 -62 -117 -62 -117 -113
-13 c-62 -7 -119 -18 -127 -24 -7 -6 -34 -49 -60 -96 -67 -122 -64 -126 104
-167 30 -8 36 -15 48 -55 22 -77 105 -128 176 -107 17 5 32 9 32 9 1 0 27 -32
59 -70 76 -93 86 -93 164 10 35 46 62 91 62 104 0 13 -14 69 -30 125 -25 85
-28 105 -18 120 7 9 44 55 81 102 l68 85 266 -268 c267 -268 293 -289 321
-255 14 16 53 159 54 196 1 26 -119 251 -313 589 l-48 83 86 106 c96 119 124
175 159 312 40 156 29 257 -33 311 -30 27 -40 30 -101 30 -37 -1 -82 -7 -101
-15z m159 -35 l25 -21 -32 15 c-18 9 -44 16 -59 16 -26 0 -27 1 -9 14 21 15
32 12 75 -24z m-14 -51 c40 -44 16 -225 -47 -354 -18 -38 -137 -193 -324 -425
-163 -201 -342 -422 -398 -492 -106 -132 -127 -147 -160 -110 -14 16 -4 40
139 322 85 168 214 424 287 570 l132 265 90 91 c63 63 109 100 154 122 75 37
101 40 127 11z m-1330 -413 c-38 -36 -46 -66 -21 -86 28 -23 15 -29 -30 -13
-25 8 -45 21 -45 28 0 13 107 104 123 105 5 0 -8 -15 -27 -34z m722 -195 c-97
-190 -114 -217 -120 -195 -4 14 -15 35 -24 45 -16 18 -16 19 10 19 37 0 71 37
124 137 45 86 51 113 27 133 -24 20 -18 40 13 40 17 0 38 10 52 25 13 14 25
23 27 21 2 -2 -47 -103 -109 -225z m-310 153 c172 -15 311 -30 310 -34 -2 -3
-28 -54 -58 -113 -41 -81 -59 -105 -70 -101 -8 4 -149 57 -313 119 l-297 112
32 26 c22 17 42 25 58 22 14 -2 166 -16 338 -31z m745 -169 c-16 -34 -16 -38
4 -85 l21 -51 -30 26 c-16 14 -35 25 -41 25 -18 -1 -59 -40 -115 -111 -72 -92
-77 -109 -47 -154 14 -20 25 -38 25 -40 0 -2 -16 7 -36 20 -33 23 -38 23 -64
10 -16 -8 -36 -25 -44 -37 -9 -12 -16 -18 -16 -12 0 5 34 53 76 105 42 51 110
137 152 189 73 92 123 150 129 150 1 0 -5 -16 -14 -35z m122 -403 c135 -241
160 -293 158 -325 0 -21 -4 -41 -8 -45 -7 -7 -464 447 -465 461 0 10 142 196
150 196 3 0 77 -129 165 -287z m-791 -44 c-20 -46 -84 -157 -84 -147 0 4 7 23
15 42 14 34 14 37 -10 65 -27 32 -24 42 11 42 13 0 36 11 51 24 15 13 30 22
32 20 2 -2 -4 -23 -15 -46z m241 -74 c-21 -32 -28 -49 -27 -74 0 -3 3 -25 7
-50 l7 -45 -26 25 c-25 23 -29 24 -54 10 -37 -21 -92 -97 -92 -126 0 -34 39
-90 76 -110 30 -17 33 -16 61 4 17 12 36 35 43 52 7 16 17 30 22 30 6 0 2 -12
-7 -27 -30 -47 -86 -113 -95 -113 -5 0 -24 20 -42 44 -39 52 -92 91 -113 82
-16 -6 -21 9 -6 19 5 3 45 49 87 103 77 95 176 212 181 212 1 0 -9 -16 -22
-36z m-327 19 c-7 -16 -61 -118 -63 -121 -6 -7 -115 21 -115 29 0 5 9 23 20
41 19 32 41 40 153 57 5 0 7 -2 5 -6z m-187 -129 c19 -21 19 -21 -11 -16 -45
6 -55 25 -33 62 l18 32 3 -29 c2 -15 12 -37 23 -49z m167 -21 c-11 -27 -23
-58 -27 -69 -5 -20 -8 -18 -33 17 l-28 39 23 0 c13 0 36 14 52 30 16 17 30 30
32 30 1 0 -7 -21 -19 -47z m1118 -68 c-9 -34 -12 -31 -19 19 -6 36 -5 38 10
24 11 -11 13 -25 9 -43z m-815 -25 l16 -58 -27 -36 -27 -36 -38 45 -37 46 42
55 c24 30 45 52 49 49 3 -4 13 -33 22 -65z m788 -64 c-6 -25 -16 -49 -21 -52
-6 -4 -33 17 -62 46 -37 38 -42 47 -19 31 41 -28 69 -27 89 4 23 35 27 26 13
-29z"/>
<path d="M282 2668 c-8 -8 -12 -50 -12 -124 0 -121 9 -144 53 -144 22 0 22 -2
20 -146 l-2 -146 -47 -4 c-137 -11 -267 -129 -281 -255 -6 -61 4 -59 36 6 l20
40 -7 -40 c-4 -22 -7 -364 -7 -760 l0 -720 23 -37 c13 -21 28 -38 33 -38 5 0
9 -5 9 -11 0 -21 -29 11 -68 75 -37 61 -37 61 -40 29 -6 -63 58 -147 133 -174
33 -12 35 -15 35 -60 0 -50 25 -98 71 -131 35 -26 128 -26 172 -1 41 24 77 87
77 136 l0 37 200 0 200 0 0 -37 c0 -91 66 -153 160 -153 96 0 160 62 160 156
0 35 4 43 23 48 41 10 106 64 129 108 l23 43 0 745 0 745 -26 55 c-14 31 -40
72 -58 92 -41 47 -136 95 -206 103 l-55 7 0 144 0 144 23 0 c46 0 57 27 57
139 0 56 -5 111 -10 122 -10 18 -26 19 -418 19 -304 0 -411 -3 -420 -12z m66
-58 c-24 -32 -38 -38 -38 -16 0 30 13 46 36 46 l25 0 -23 -30z m730 -5 l4 -30
-26 24 c-32 30 -33 43 -3 39 16 -2 23 -11 25 -33z m-44 -60 l-2 -46 -336 -2
-336 -2 0 48 0 47 338 0 338 0 -2 -45z m-682 -70 c17 -14 42 -25 59 -25 35 0
36 -4 6 -39 l-23 -28 -42 42 c-23 23 -42 49 -42 58 0 23 7 21 42 -8z m691 -53
l-38 -38 -27 32 -28 31 42 6 c22 3 50 15 62 27 21 20 21 20 24 1 2 -12 -11
-34 -35 -59z m-83 -167 l0 -145 -260 0 -260 0 0 145 0 145 260 0 260 0 0 -145z
m-540 -157 c16 -18 30 -36 30 -39 0 -6 -21 -6 -92 -1 l-27 2 24 25 c14 13 25
29 25 35 0 17 9 12 40 -22z m607 -41 c-16 -5 -41 -6 -54 -2 l-24 6 28 33 28
33 27 -31 26 -31 -31 -8z m-796 -33 c-12 -15 -21 -30 -21 -34 0 -4 19 -29 42
-56 23 -27 31 -39 18 -28 -34 30 -85 54 -111 54 -13 0 -33 -10 -46 -22 -38
-35 -36 -15 3 31 54 62 162 114 115 55z m989 -1 c40 -25 71 -56 87 -88 l15
-30 -29 28 c-44 41 -94 33 -163 -27 -33 -30 -22 -7 11 24 10 8 24 27 33 41 15
24 15 28 -6 54 l-21 27 24 -7 c13 -4 35 -14 49 -22z m-72 -22 c9 -5 2 -15 -27
-34 -66 -44 -121 -181 -121 -303 l0 -44 -299 0 -298 0 -6 73 c-11 131 -60 241
-126 280 -17 10 -29 23 -26 28 8 11 885 12 903 0z m-938 -100 c32 -22 66 -73
82 -120 9 -27 13 -222 16 -758 l3 -723 -63 0 c-46 0 -72 6 -96 20 -65 40 -63
16 -60 803 l3 712 24 48 c25 52 39 55 91 18z m1072 -18 l23 -48 0 -720 c0
-669 -1 -722 -18 -752 -24 -45 -64 -63 -137 -63 l-61 0 3 728 c3 670 5 731 21
772 21 53 60 97 102 116 42 19 41 19 67 -33z m-901 -348 l-31 -36 0 71 0 71
31 -36 31 -35 -31 -35z m669 33 l0 -63 -32 32 -32 33 29 30 c16 16 30 30 32
30 2 0 3 -28 3 -62z m-50 -113 l0 -65 -300 0 -300 0 0 65 0 65 300 0 300 0 0
-65z m-610 -80 l24 -26 -32 -32 -32 -32 0 58 c0 31 4 57 8 57 5 0 19 -11 32
-25z m660 -32 l0 -58 -32 32 -32 32 24 26 c13 14 27 25 32 25 4 0 8 -26 8 -57z
m-50 -243 l0 -200 -300 0 -300 0 0 200 0 200 300 0 300 0 0 -200z m-610 -215
l24 -26 -32 -32 -32 -32 0 58 c0 31 4 57 8 57 5 0 19 -11 32 -25z m660 -30 l0
-56 -35 28 -34 28 26 27 c15 16 30 28 35 28 4 0 8 -25 8 -55z m-50 -300 l0
-255 -300 0 -300 0 0 255 0 255 300 0 300 0 0 -255z m79 -279 c32 -29 26 -36
-34 -36 -49 0 -57 -3 -76 -29 l-22 -29 -23 28 c-13 15 -24 30 -24 33 0 3 21 8
48 12 49 7 92 37 93 64 0 12 3 10 8 -4 5 -11 18 -29 30 -39z m-628 -21 l52
-10 -25 -29 -24 -29 -27 27 c-20 20 -36 26 -70 26 -24 0 -47 3 -50 6 -4 4 6
21 21 38 l27 31 22 -25 c14 -17 38 -28 74 -35z m-178 -1 c4 -4 -6 -21 -21 -38
l-27 -31 -22 33 c-13 18 -23 35 -23 37 0 8 86 6 93 -1z m947 -1 c-1 -5 -11
-21 -24 -36 l-23 -29 -30 31 c-25 24 -27 31 -14 34 28 8 91 7 91 0z m-813 -90
c-7 -43 -21 -59 -59 -68 -36 -9 -78 31 -78 75 l0 30 71 0 72 0 -6 -37z m723 7
c0 -36 -39 -80 -70 -80 -31 0 -70 44 -70 80 l0 30 70 0 70 0 0 -30z m-790
-115 c30 0 47 8 71 30 26 24 29 26 16 6 -17 -25 -70 -61 -90 -61 -20 0 -86 49
-98 73 -8 16 -2 13 25 -13 29 -27 45 -35 76 -35z m720 0 c30 0 47 8 71 30 25
23 29 25 21 9 -12 -23 -74 -64 -96 -64 -19 0 -96 58 -96 72 0 6 14 -1 30 -17
23 -22 40 -30 70 -30z"/>
<path d="M1634 981 c-23 -10 -52 -34 -65 -52 -23 -32 -24 -43 -27 -211 l-3
-178 -33 -15 c-57 -27 -76 -77 -76 -197 0 -132 6 -141 107 -137 l68 3 3 -87
c2 -76 5 -88 23 -98 23 -12 51 3 30 15 -6 4 -11 25 -11 46 l0 38 29 -29 c39
-38 76 -38 131 2 l44 32 -37 -45 c-36 -44 -46 -68 -28 -68 16 0 65 46 126 119
l59 71 241 0 241 0 59 -71 c82 -98 135 -141 135 -108 0 6 -15 30 -32 52 l-33
41 40 -27 c52 -35 89 -35 126 2 l29 29 0 -37 c0 -20 -5 -42 -11 -48 -16 -16 6
-26 30 -13 17 9 21 22 23 97 l3 86 71 -2 c65 -2 74 0 88 21 23 32 21 52 -3 38
-11 -5 -34 -10 -52 -10 l-32 0 24 26 c20 22 24 35 24 94 0 63 -3 72 -29 99
-24 25 -38 31 -73 31 -24 0 -43 2 -43 6 0 3 11 22 25 42 14 20 25 30 25 22 0
-14 130 -160 142 -160 3 0 2 16 -2 36 -9 40 -43 82 -77 95 -21 8 -22 14 -25
186 -3 169 -4 180 -27 212 -13 18 -42 42 -65 52 -38 17 -76 19 -581 19 -505 0
-543 -2 -581 -19z m1125 -86 c16 -8 31 -22 35 -30 3 -9 6 -86 6 -171 l0 -154
-50 0 -50 0 0 50 c0 61 -19 102 -55 118 -16 8 -80 12 -170 12 -140 0 -144 -1
-174 -26 -29 -24 -31 -31 -31 -90 l0 -64 -55 0 -55 0 0 64 c0 59 -2 66 -31 90
-30 25 -34 26 -174 26 -79 0 -155 -4 -169 -10 -34 -13 -56 -59 -56 -120 l0
-50 -50 0 -50 0 0 158 c0 164 3 177 45 200 14 8 182 11 538 12 435 0 522 -2
546 -15z m-939 -233 c0 -5 -9 -17 -20 -27 -16 -14 -20 -15 -20 -4 0 16 19 39
32 39 4 0 8 -4 8 -8z m290 -13 c17 -31 7 -33 -20 -4 -19 20 -20 25 -7 25 9 0
21 -9 27 -21z m230 -4 c-27 -29 -37 -27 -20 4 6 12 18 21 27 21 13 0 12 -5 -7
-25z m298 13 c7 -7 12 -19 12 -27 0 -11 -4 -10 -20 4 -21 19 -26 35 -12 35 4
0 13 -5 20 -12z m-568 -73 l0 -45 -125 0 -125 0 0 45 0 45 125 0 125 0 0 -45z
m540 0 l0 -45 -125 0 -125 0 0 45 0 45 125 0 125 0 0 -45z m-980 -90 c0 -3
-18 -5 -40 -5 -30 0 -48 -8 -76 -32 -30 -27 -35 -29 -25 -10 6 12 22 29 35 37
13 9 31 31 41 49 l18 34 24 -35 c13 -18 23 -36 23 -38z m540 3 c0 -5 -25 -8
-56 -8 l-56 0 26 31 c14 17 26 36 26 42 0 12 59 -53 60 -65z m-365 35 c13 -16
25 -31 25 -35 0 -5 -22 -8 -50 -8 -27 0 -50 2 -50 5 0 7 42 65 47 65 2 0 15
-12 28 -27z m538 -8 l28 -35 -56 0 c-30 0 -55 3 -55 6 0 8 43 63 50 63 3 1 18
-15 33 -34z m335 5 c12 -16 22 -32 22 -35 0 -3 -22 -5 -50 -5 -27 0 -50 3 -50
6 0 8 44 63 51 63 3 1 15 -12 27 -29z m216 -99 c13 -14 16 -33 14 -80 l-3 -61
-690 0 -690 0 -3 61 c-5 108 -71 99 693 99 636 0 663 -1 679 -19z m-1379 -189
c-28 -6 -45 7 -45 35 l0 27 31 -30 c24 -23 27 -30 14 -32z m185 -12 c0 -5 -3
-10 -8 -10 -4 0 -14 -11 -22 -25 l-15 -24 -28 34 -28 35 51 0 c27 0 50 -4 50
-10z m215 -50 c-64 -64 -75 -73 -51 -38 21 30 20 47 -6 75 l-21 23 68 0 69 0
-59 -60z m657 37 c-26 -28 -27 -45 -5 -77 9 -14 -11 0 -44 30 -33 30 -61 58
-62 63 0 4 29 7 66 7 l66 0 -21 -23z m232 -11 l-27 -34 -24 28 c-12 15 -23 31
-23 34 0 3 23 6 50 6 l51 0 -27 -34z m-954 -15 c0 -2 -18 -25 -41 -52 -34 -41
-46 -49 -75 -49 l-34 0 0 53 0 52 75 0 c41 0 75 -2 75 -4z m880 -48 l0 -53
-34 0 c-29 0 -41 8 -75 49 -23 27 -41 50 -41 52 0 2 34 4 75 4 l75 0 0 -52z"/>
</g>
</svg>
