<?xml version="1.0" standalone="no"?>
<!DOCTYPE svg PUBLIC "-//W3C//DTD SVG 20010904//EN"
 "http://www.w3.org/TR/2001/REC-SVG-20010904/DTD/svg10.dtd">
<svg version="1.0" xmlns="http://www.w3.org/2000/svg"
 width="300.000000pt" height="300.000000pt" viewBox="0 0 300.000000 300.000000"
 preserveAspectRatio="xMidYMid meet">
<metadata>
Created by potrace 1.10, written by Peter Selinger 2001-2011
</metadata>
<g transform="translate(0.000000,300.000000) scale(0.100000,-0.100000)"
fill="#000000" stroke="none">
<path d="M1383 2590 c-68 -39 -113 -112 -113 -182 0 -61 17 -71 112 -66 l71 3
1 -48 1 -47 -57 0 c-79 0 -88 -12 -88 -111 l0 -79 -43 0 c-96 0 -243 -39 -352
-93 -202 -100 -373 -296 -443 -510 -31 -92 -52 -212 -52 -291 0 -41 -1 -42
-55 -69 -65 -32 -109 -87 -124 -157 -12 -55 -7 -76 20 -90 11 -7 204 -10 511
-10 l493 1 3 -46 3 -45 -487 0 c-340 0 -498 -3 -525 -12 -51 -15 -114 -70
-141 -122 -16 -30 -22 -60 -22 -114 -1 -69 1 -75 27 -98 l28 -24 1349 0 1349
0 28 24 c26 23 28 29 27 98 0 54 -6 84 -22 114 -27 52 -90 107 -141 122 -27 9
-185 12 -525 12 l-487 0 3 45 3 46 497 -1 c489 0 498 0 518 20 17 17 19 28 14
58 -16 89 -58 147 -134 183 -48 23 -50 25 -50 66 0 78 -21 198 -52 290 -70
214 -241 410 -443 510 -109 54 -256 93 -352 93 l-43 0 0 79 c0 99 -9 111 -88
111 l-57 0 1 47 1 48 71 -3 c95 -5 112 5 112 66 0 70 -45 143 -113 182 -43 25
-63 30 -117 30 -54 0 -74 -5 -117 -30z m172 -70 c28 -11 75 -57 75 -74 0 -7
-42 -11 -130 -11 -80 0 -130 4 -130 10 1 17 37 55 67 70 33 17 81 19 118 5z
m-192 -107 l20 -23 -32 0 c-39 0 -48 19 -30 63 14 31 14 31 17 7 2 -14 13 -35
25 -47z m324 -7 c-4 -10 -18 -16 -38 -16 l-32 0 21 23 c12 13 22 34 23 48 0
23 1 22 16 -8 9 -17 13 -38 10 -47z m-151 -14 c8 -5 3 -18 -17 -42 -18 -21
-29 -28 -29 -19 0 9 -9 24 -20 34 -16 14 -17 20 -8 27 16 10 59 10 74 0z m14
-184 c0 -4 -22 -8 -50 -8 -27 0 -50 3 -50 6 0 3 10 18 23 34 l22 28 28 -26
c15 -14 27 -29 27 -34z m-140 -6 c0 -5 -11 -19 -24 -31 -27 -25 -43 -14 -26
19 10 19 50 29 50 12z m228 -27 l4 -30 -26 24 c-32 30 -33 43 -3 39 16 -2 23
-11 25 -33z m-43 -65 l0 -50 -95 0 -95 0 0 50 0 50 95 0 95 0 0 -50z m-210
-57 c13 -16 25 -31 25 -35 0 -5 -22 -8 -50 -8 -27 0 -50 3 -50 6 0 6 43 62 48
63 2 1 14 -11 27 -26z m305 -37 c0 -3 -22 -6 -50 -6 -27 0 -50 3 -50 7 0 4 12
19 26 34 l26 28 24 -29 c13 -15 24 -31 24 -34z m208 -75 c328 -97 555 -373
581 -704 5 -56 7 -105 4 -109 -2 -5 -447 -8 -988 -8 l-984 0 5 73 c21 318 177
558 450 695 142 72 211 81 564 78 270 -3 301 -5 368 -25z m-1385 -863 c-2 -5
-24 -8 -49 -8 l-45 0 20 29 c12 16 21 35 21 42 0 7 13 -2 29 -21 16 -19 27
-38 24 -42z m2045 27 l22 -35 -43 0 c-24 0 -47 3 -50 6 -6 6 32 62 43 63 3 1
15 -15 28 -34z m-2215 -87 c-41 -45 -45 -62 -22 -91 25 -33 24 -37 -11 -37
-23 0 -30 4 -30 20 0 32 25 82 55 113 39 38 45 34 8 -5z m2242 2 c28 -11 75
-57 75 -74 0 -8 -320 -11 -1160 -11 -767 0 -1160 3 -1160 10 1 18 34 54 65 69
26 14 154 16 1092 16 676 0 1071 -4 1088 -10z m125 -69 c15 -45 8 -61 -26 -61
-29 0 -30 5 -4 37 18 24 19 27 3 57 -13 25 -13 29 -1 19 8 -7 21 -30 28 -52z
m-1364 -59 c8 -5 5 -17 -10 -39 l-22 -32 -27 34 c-18 23 -23 35 -14 38 19 8
61 8 73 -1z m378 2 c13 -5 11 -11 -11 -39 l-27 -34 -22 32 c-15 22 -18 34 -10
39 13 9 49 10 70 2z m-84 -96 l0 -48 -140 0 -140 0 0 48 0 47 140 0 140 0 0
-47z m-296 -67 c27 -23 18 -31 -34 -31 l-50 0 28 39 c22 31 28 35 33 22 4 -9
14 -23 23 -30z m370 4 l27 -35 -56 0 -57 0 29 34 c15 19 29 35 29 35 1 1 14
-15 28 -34z m1029 -98 c41 -26 67 -76 67 -124 l0 -43 -1310 0 -1310 0 0 40 c0
67 38 122 96 140 16 5 569 8 1229 7 1139 -2 1202 -3 1228 -20z m-2564 -200 c8
-10 9 -17 3 -17 -16 0 -42 29 -42 46 0 16 8 10 39 -29z m2677 15 c-6 -18 -34
-37 -42 -29 -2 1 7 14 19 29 24 30 32 29 23 0z"/>
<path d="M554 2185 c-87 -67 -214 -198 -276 -285 -25 -36 -66 -105 -91 -153
l-46 -88 25 -9 c14 -6 34 -14 44 -20 16 -9 22 -3 44 45 70 154 245 362 378
450 l57 37 -22 39 c-12 21 -26 39 -32 38 -5 0 -42 -24 -81 -54z"/>
<path d="M2333 2201 l-22 -38 52 -34 c130 -83 313 -300 383 -454 22 -48 28
-54 44 -45 10 6 30 14 44 20 l25 9 -46 88 c-61 117 -121 201 -217 301 -74 77
-214 192 -233 192 -4 0 -18 -18 -30 -39z"/>
<path d="M637 2010 c-77 -62 -146 -136 -210 -226 -37 -51 -122 -213 -115 -219
6 -6 81 -35 83 -33 1 2 12 24 23 50 60 137 192 296 328 395 l27 20 -22 37
c-13 20 -26 36 -31 36 -5 0 -42 -27 -83 -60z"/>
<path d="M2249 2034 l-22 -37 29 -21 c132 -96 261 -251 321 -384 14 -31 27
-58 28 -60 2 -2 77 27 83 33 8 7 -80 171 -125 234 -56 79 -170 194 -235 239
-26 18 -49 32 -51 32 -3 0 -15 -16 -28 -36z"/>
</g>
</svg>
