<?xml version="1.0" standalone="no"?>
<!DOCTYPE svg PUBLIC "-//W3C//DTD SVG 20010904//EN"
 "http://www.w3.org/TR/2001/REC-SVG-20010904/DTD/svg10.dtd">
<svg version="1.0" xmlns="http://www.w3.org/2000/svg"
 width="225.000000pt" height="225.000000pt" viewBox="0 0 225.000000 225.000000"
 preserveAspectRatio="xMidYMid meet">
<metadata>
Created by potrace 1.10, written by Peter Selinger 2001-2011
</metadata>
<g transform="translate(0.000000,225.000000) scale(0.100000,-0.100000)"
fill="#000000" stroke="none">
<path d="M1115 2244 c-5 -1 -27 -5 -48 -9 -73 -12 -146 -105 -147 -185 0 -93
64 -183 149 -208 130 -39 264 61 264 197 0 109 -67 188 -173 203 -19 3 -39 4
-45 2z m53 -35 c2 -5 9 -9 16 -9 17 0 86 -59 86 -75 0 -7 6 -15 13 -18 20 -7
12 -93 -13 -148 -27 -57 -65 -79 -136 -79 -63 0 -104 16 -133 52 -24 30 -56
138 -41 138 4 0 10 12 13 28 3 15 16 38 29 52 13 13 22 28 20 33 -1 5 1 6 5 4
5 -3 28 6 53 18 42 23 81 24 88 4z"/>
<path d="M990 1733 c-42 -7 -74 -22 -93 -46 -10 -12 -106 -136 -213 -276 -180
-236 -194 -256 -194 -295 0 -23 5 -47 11 -53 5 -5 11 -55 12 -109 l1 -99 -53
0 c-43 0 -56 -4 -72 -24 -18 -22 -19 -45 -19 -401 0 -345 1 -380 18 -398 17
-20 62 -39 62 -27 0 4 -9 18 -20 32 -19 25 -20 41 -20 389 l0 364 24 15 c13 8
30 13 39 9 9 -3 30 2 46 12 29 17 32 17 60 1 23 -14 35 -15 57 -6 16 5 25 7
21 3 -3 -4 1 -13 11 -20 16 -11 17 -42 17 -372 0 -237 3 -358 10 -355 6 2 2
-2 -7 -10 -10 -8 -18 -19 -18 -26 0 -6 -4 -11 -10 -11 -5 0 -10 -7 -10 -16 0
-11 6 -14 23 -9 53 16 52 8 55 407 2 258 -1 380 -8 399 -15 35 -57 52 -104 44
l-36 -7 0 81 0 82 30 6 c32 6 70 45 170 178 29 39 55 71 59 73 3 1 5 -264 3
-588 -3 -656 -4 -638 63 -666 43 -18 87 -9 117 23 l23 25 3 363 3 363 79 1 80
1 0 -355 c0 -370 2 -393 44 -413 40 -19 54 -21 90 -11 68 19 66 -7 66 630 0
315 0 589 0 607 0 22 -4 32 -12 30 -13 -5 -31 -58 -20 -58 4 0 4 -80 -1 -177
-4 -98 -6 -355 -5 -571 2 -215 -1 -392 -5 -392 -5 0 -6 -4 -3 -8 3 -5 -8 -16
-24 -25 -27 -17 -30 -16 -59 1 l-30 18 -1 355 0 354 -27 24 c-48 45 -170 40
-201 -9 -8 -14 -12 -114 -12 -365 -1 -324 -2 -347 -20 -365 -10 -10 -16 -21
-14 -24 2 -3 1 -4 -2 -1 -4 2 -16 -1 -28 -7 -11 -6 -18 -7 -13 -3 4 5 -4 16
-19 25 -14 10 -25 20 -24 24 0 3 -2 21 -5 39 -3 17 -7 280 -8 582 -2 303 -6
559 -9 570 -3 12 -12 19 -23 17 -10 -2 -14 1 -10 7 3 6 1 11 -4 11 -6 0 -11
-4 -11 -9 0 -6 -12 -16 -27 -23 -16 -8 -27 -21 -27 -31 1 -9 -2 -15 -6 -12 -5
3 -19 -9 -31 -27 -13 -18 -35 -48 -51 -66 -16 -18 -25 -38 -22 -44 4 -6 3 -8
-4 -4 -6 3 -13 2 -16 -3 -11 -17 -86 -51 -86 -39 0 6 -8 20 -17 31 -10 11 -13
17 -6 14 7 -5 10 4 8 28 -3 28 3 43 26 70 18 20 27 39 23 46 -4 7 -3 9 4 5 6
-3 23 10 39 31 15 21 33 43 38 50 6 6 35 45 65 87 30 43 70 94 87 114 18 20
33 42 33 48 0 6 10 19 23 30 12 11 35 35 51 54 l29 35 126 5 c184 7 217 1 268
-55 23 -25 40 -45 37 -45 -3 0 7 -11 22 -25 15 -14 23 -25 18 -25 -5 -1 2 -10
15 -20 13 -11 20 -20 17 -20 -4 0 -1 -6 6 -14 7 -8 16 -12 20 -9 4 2 6 -2 3
-9 -3 -7 12 -31 32 -53 21 -22 38 -43 38 -47 0 -4 15 -23 33 -42 17 -19 32
-37 32 -41 0 -6 12 -22 40 -53 32 -36 60 -81 60 -96 0 -9 5 -16 10 -16 6 0 3
-15 -7 -32 -9 -18 -16 -37 -15 -41 1 -5 -3 -5 -9 -1 -9 5 -10 2 -6 -10 6 -14
1 -13 -24 6 -42 32 -129 120 -129 132 0 5 -10 17 -22 27 -11 11 -18 19 -14 19
4 0 -11 18 -33 40 -35 36 -61 50 -61 34 0 -8 51 -80 124 -174 45 -58 77 -89
99 -96 l32 -12 3 -82 3 -82 -37 6 c-47 9 -89 -8 -104 -43 -7 -19 -10 -141 -8
-399 3 -404 2 -393 61 -407 l27 -7 -17 30 c-10 17 -21 28 -25 26 -4 -3 -6 161
-5 364 2 406 1 398 64 400 17 0 43 8 58 18 24 16 26 16 38 0 7 -10 32 -20 55
-23 27 -4 46 -13 53 -24 11 -22 18 -719 7 -719 -5 0 -8 -6 -8 -14 0 -7 -7 -19
-15 -26 -8 -7 -15 -17 -15 -22 0 -15 43 2 63 24 16 18 17 53 17 398 0 357 -1
379 -19 401 -16 20 -29 24 -72 24 l-53 0 1 93 c2 65 7 99 18 114 18 26 20 71
4 99 -12 23 -338 449 -394 516 -28 33 -45 43 -85 52 -48 10 -236 13 -290 4z"/>
</g>
</svg>
