<?xml version="1.0" standalone="no"?>
<!DOCTYPE svg PUBLIC "-//W3C//DTD SVG 20010904//EN"
 "http://www.w3.org/TR/2001/REC-SVG-20010904/DTD/svg10.dtd">
<svg version="1.0" xmlns="http://www.w3.org/2000/svg"
 width="300.000000pt" height="300.000000pt" viewBox="0 0 300.000000 300.000000"
 preserveAspectRatio="xMidYMid meet">
<metadata>
Created by potrace 1.10, written by Peter Selinger 2001-2011
</metadata>
<g transform="translate(0.000000,300.000000) scale(0.100000,-0.100000)"
fill="#000000" stroke="none">
<path d="M958 2759 c-25 -14 -24 -65 1 -79 24 -12 171 -14 171 -1 0 17 45 20
74 6 16 -8 35 -15 43 -15 8 0 11 -4 8 -10 -3 -5 -10 -35 -15 -67 -6 -37 -19
-69 -38 -92 -60 -75 -63 -104 -18 -158 34 -41 49 -73 57 -118 6 -39 7 -39 8
-7 1 36 -15 73 -60 135 -16 22 -29 47 -29 56 0 8 18 41 40 72 24 35 44 77 49
106 5 26 14 49 20 51 6 2 8 14 5 27 -4 18 -1 24 21 29 18 5 35 1 51 -9 25 -16
64 -20 64 -6 0 18 52 22 76 6 25 -16 64 -20 64 -6 0 18 52 22 76 6 30 -19 45
-19 82 2 28 16 31 16 55 0 33 -21 48 -21 85 0 28 16 31 16 55 0 24 -15 72 -17
517 -17 l490 0 0 50 0 50 -967 0 c-639 -1 -974 -4 -985 -11z m182 -18 c8 -1
399 0 868 2 695 3 855 2 870 -9 14 -11 -65 -14 -478 -15 -579 -3 -531 -2 -549
-13 -10 -6 -12 -6 -7 2 5 8 -5 12 -33 12 -23 0 -41 -5 -41 -10 0 -7 -6 -7 -20
0 -14 8 -26 8 -41 0 -34 -19 -60 -20 -88 -6 -20 11 -32 11 -46 4 -24 -14 -65
-19 -65 -8 0 5 15 11 33 13 27 3 26 4 -11 5 -27 1 -41 -2 -37 -8 3 -5 2 -10
-4 -10 -5 0 -11 6 -14 13 -3 9 -11 9 -36 0 -18 -7 -29 -7 -25 -1 7 11 -105 6
-124 -6 -7 -4 -12 -2 -12 3 0 6 -19 11 -42 11 -47 0 -48 -8 0 -12 21 -1 28 -6
22 -12 -7 -7 -21 -6 -43 3 -44 18 -71 20 -79 7 -5 -8 -8 -7 -8 2 0 9 -24 12
-87 12 -75 1 -85 3 -71 14 15 11 80 14 168 7z m-110 -41 c0 -5 -7 -10 -16 -10
-8 0 -12 5 -9 10 3 6 10 10 16 10 5 0 9 -4 9 -10z m40 0 c0 -5 -8 -10 -17 -10
-15 0 -16 2 -3 10 19 12 20 12 20 0z m325 0 c-3 -5 -12 -10 -20 -10 -8 0 -17
5 -20 10 -4 6 5 10 20 10 15 0 24 -4 20 -10z m589 -2 c-3 -4 -17 -8 -32 -8
-20 0 -23 3 -13 9 18 11 52 10 45 -1z m141 2 c3 -5 2 -10 -4 -10 -5 0 -13 5
-16 10 -3 6 -2 10 4 10 5 0 13 -4 16 -10z m39 -2 c-3 -4 -9 -8 -15 -8 -5 0 -9
4 -9 8 0 5 7 9 15 9 8 0 12 -4 9 -9z m81 2 c-3 -5 -13 -10 -21 -10 -8 0 -14 5
-14 10 0 6 9 10 21 10 11 0 17 -4 14 -10z m200 0 c-5 -8 -176 -2 -185 6 -2 3
39 4 93 3 53 -1 95 -5 92 -9z m75 0 c0 -5 -5 -10 -11 -10 -5 0 -7 5 -4 10 3 6
8 10 11 10 2 0 4 -4 4 -10z m120 -2 c0 -4 -4 -8 -9 -8 -6 0 -12 4 -15 8 -3 5
1 9 9 9 8 0 15 -4 15 -9z m200 3 c0 -4 -37 -7 -82 -8 -50 0 -76 2 -67 8 15 9
149 9 149 0z m40 3 c0 -8 -19 -13 -24 -6 -3 5 1 9 9 9 8 0 15 -2 15 -3z"/>
<path d="M1638 2713 c12 -2 32 -2 45 0 12 2 2 4 -23 4 -25 0 -35 -2 -22 -4z"/>
<path d="M1106 2648 c-3 -7 -7 -25 -10 -40 -6 -27 -9 -28 -69 -28 -36 0 -68
-5 -75 -12 -20 -20 -15 -66 9 -78 25 -14 69 -5 69 13 0 17 49 69 60 62 11 -7
25 20 33 63 6 30 -9 47 -17 20z m-67 -105 c-13 -15 -79 -18 -79 -4 0 11 22 17
62 17 22 1 25 -2 17 -13z"/>
<path d="M1200 2656 c0 -2 7 -9 15 -16 12 -10 15 -10 15 4 0 9 -7 16 -15 16
-8 0 -15 -2 -15 -4z"/>
<path d="M1358 2649 c19 -21 14 -43 -22 -90 -19 -24 -37 -55 -40 -69 l-6 -25
12 25 c7 14 27 45 46 70 34 46 40 90 12 98 -12 4 -13 2 -2 -9z"/>
<path d="M1395 2650 c-3 -5 -2 -10 4 -10 5 0 13 5 16 10 3 6 2 10 -4 10 -5 0
-13 -4 -16 -10z"/>
<path d="M1490 2650 c0 -5 5 -10 10 -10 6 0 10 5 10 10 0 6 -4 10 -10 10 -5 0
-10 -4 -10 -10z"/>
<path d="M1527 2641 c-2 -10 -1 -25 4 -32 6 -10 9 -8 9 9 0 12 5 22 10 22 6 0
10 5 10 10 0 18 -28 10 -33 -9z"/>
<path d="M1630 2650 c0 -5 5 -10 10 -10 20 0 9 -38 -24 -81 -18 -24 -36 -55
-39 -69 l-7 -25 13 26 c6 14 26 43 44 65 31 39 36 53 34 87 -1 18 -31 25 -31
7z"/>
<path d="M1675 2650 c-3 -5 1 -10 9 -10 9 0 16 5 16 10 0 6 -4 10 -9 10 -6 0
-13 -4 -16 -10z"/>
<path d="M1770 2650 c0 -5 7 -10 16 -10 8 0 12 5 9 10 -3 6 -10 10 -16 10 -5
0 -9 -4 -9 -10z"/>
<path d="M1807 2641 c-2 -10 -1 -25 4 -32 6 -10 9 -8 9 9 0 12 5 22 10 22 6 0
10 5 10 10 0 18 -28 10 -33 -9z"/>
<path d="M1918 2623 c3 -20 11 -43 18 -50 11 -11 106 -14 480 -16 364 -2 468
-5 472 -14 3 -10 -97 -13 -479 -13 -447 0 -483 -1 -495 -17 -7 -10 -17 -19
-23 -19 -6 -1 -15 -2 -19 -3 -5 0 -18 -19 -31 -41 -21 -38 -21 -41 -5 -72 9
-18 30 -50 47 -71 43 -55 50 -172 14 -209 -34 -34 -67 -96 -67 -124 0 -20 11
-45 31 -70 47 -59 59 -88 59 -141 0 -51 -23 -105 -67 -157 -13 -16 -22 -35
-19 -42 4 -11 -7 -14 -46 -14 -28 0 -49 -2 -46 -5 6 -7 108 -17 155 -16 21 1
40 -7 54 -22 l22 -22 -6 23 -5 23 431 -4 c238 -3 439 -8 448 -11 31 -13 40
-56 38 -173 -5 -248 -97 -464 -271 -635 -70 -68 -148 -128 -167 -128 -6 0 -11
-4 -11 -9 0 -9 -86 -50 -161 -77 -55 -19 -191 -44 -245 -44 -59 0 -71 -15 -76
-89 -6 -88 -23 -100 -143 -101 -344 -4 -666 -1 -693 5 -40 8 -64 50 -59 103
l4 37 82 12 c46 6 86 15 89 19 4 4 -4 4 -18 1 -72 -17 -156 -19 -185 -3 -16 9
-49 16 -73 16 -24 0 -89 11 -144 25 -308 79 -550 305 -646 605 -31 96 -42 172
-42 287 0 104 9 143 34 143 7 0 21 9 31 19 21 24 95 32 110 13 16 -21 501 -24
532 -4 14 9 40 13 68 10 l45 -3 0 142 c0 89 4 143 10 143 6 0 10 13 10 29 0
23 5 30 25 34 19 3 29 -1 37 -17 6 -11 24 -37 39 -57 37 -47 36 -67 -2 -115
-37 -46 -59 -94 -58 -126 0 -13 6 -4 13 22 6 25 29 68 49 94 20 27 37 58 37
70 0 12 -18 45 -40 75 -39 52 -50 81 -30 81 6 0 10 24 10 54 0 66 11 99 50
143 41 46 41 101 1 152 -45 57 -51 75 -51 146 0 49 -3 66 -12 63 -7 -3 -13 -9
-14 -14 0 -5 -4 -21 -8 -36 -11 -38 17 -116 59 -166 46 -53 45 -80 -5 -143
-22 -28 -41 -57 -41 -65 -2 -18 -4 -25 -13 -47 -8 -17 -6 -34 9 -69 6 -15 2
-18 -23 -18 -37 0 -57 -23 -54 -61 l2 -29 -79 0 c-98 0 -114 -11 -105 -73 6
-41 11 -48 79 -102 l25 -20 -23 -45 -22 -45 -255 3 -255 3 -17 35 c-26 50 -23
61 22 84 23 12 43 26 45 33 2 7 9 32 15 56 l11 43 52 -6 c49 -6 54 -5 82 24
36 38 49 38 92 0 48 -43 57 -39 50 19 -13 109 -84 170 -207 178 -93 7 -149 -8
-197 -50 -57 -50 -63 -76 -63 -256 l0 -161 -24 -6 c-13 -3 -35 -17 -48 -31
-21 -22 -23 -33 -23 -126 0 -119 7 -177 30 -267 70 -270 278 -511 535 -621 87
-37 201 -65 298 -75 l72 -7 0 -58 c0 -51 4 -63 29 -91 l29 -33 412 0 412 0 29
33 c25 28 29 40 29 90 l0 58 93 11 c107 13 120 16 206 44 298 96 557 383 615
684 4 17 9 41 12 55 3 14 8 80 11 147 l6 122 -36 36 -35 35 -496 -2 c-357 -2
-496 0 -496 8 0 6 16 32 35 57 46 60 55 87 56 159 1 49 -3 65 -27 100 -76 108
-77 119 -24 179 30 35 60 106 60 145 0 37 -27 100 -64 149 -41 53 -43 65 -19
106 l17 29 513 0 513 0 0 50 0 50 -486 0 c-481 0 -485 0 -479 20 8 26 -3 60
-19 60 -8 0 -11 -12 -8 -37z m65 -110 c-7 -2 -21 -2 -30 0 -10 3 -4 5 12 5 17
0 24 -2 18 -5z m80 0 c-13 -2 -33 -2 -45 0 -13 2 -3 4 22 4 25 0 35 -2 23 -4z
m204 1 c-7 -7 -168 -6 -175 1 -3 3 37 5 88 5 51 0 91 -3 87 -6z m501 0 c-7 -6
-480 -5 -487 1 -2 3 107 5 244 5 137 0 246 -3 243 -6z m90 -1 c-16 -2 -40 -2
-55 0 -16 2 -3 4 27 4 30 0 43 -2 28 -4z m-2322 -538 c17 -8 40 -26 53 -41 25
-28 47 -82 38 -91 -6 -6 -11 -2 -76 54 -40 35 -49 38 -116 41 -51 3 -81 0
-102 -11 -58 -31 -57 -24 -75 -297 -1 -14 0 -34 3 -45 3 -16 -2 -21 -23 -23
l-28 -3 0 146 c0 155 7 189 51 235 13 14 35 30 49 37 37 17 190 16 226 -2z
m-8 -75 c25 -23 28 -40 9 -40 -8 0 -22 -9 -32 -20 -14 -15 -31 -20 -71 -20
-45 0 -56 -4 -73 -26 -12 -15 -21 -37 -21 -49 0 -12 -13 -34 -30 -48 l-30 -27
0 96 c0 92 1 97 29 125 28 27 34 29 113 29 71 0 88 -3 106 -20z m395 -117 c-2
-7 -3 -59 -4 -116 l-1 -104 -29 -1 c-32 -1 -34 4 -18 44 13 37 -2 66 -47 90
-34 19 -55 68 -39 94 10 16 141 9 138 -7z"/>
<path d="M1515 2560 c-4 -17 -17 -43 -29 -58 -41 -51 -48 -67 -12 -27 34 38
64 101 53 111 -3 3 -8 -8 -12 -26z"/>
<path d="M1792 2553 c-6 -20 -7 -32 -2 -27 10 10 25 64 18 64 -3 0 -10 -16
-16 -37z"/>
<path d="M1738 2468 c-29 -44 -31 -67 -9 -102 12 -19 29 -40 38 -47 9 -8 3 5
-15 29 -33 46 -35 82 -5 114 9 10 14 20 11 23 -3 3 -12 -5 -20 -17z"/>
<path d="M1280 2422 c-7 -52 18 -123 54 -161 39 -40 43 -81 13 -117 -25 -30
-57 -87 -57 -101 0 -4 13 15 29 42 16 28 36 57 45 64 27 22 19 64 -24 121 -39
52 -47 76 -53 155 l-2 40 -5 -43z"/>
<path d="M1562 2410 c-1 -34 5 -65 14 -80 10 -16 13 -17 8 -5 -4 11 -11 47
-14 80 l-7 60 -1 -55z"/>
<path d="M1435 2419 c-4 -6 -5 -12 -2 -15 2 -3 7 2 10 11 7 17 1 20 -8 4z"/>
<path d="M1440 2384 c0 -6 14 -29 31 -50 41 -51 46 -55 24 -18 -25 45 -55 81
-55 68z"/>
<path d="M1609 2273 c12 -18 26 -35 31 -38 6 -4 10 -21 10 -40 0 -19 -4 -36
-10 -40 -15 -9 -52 -65 -43 -65 17 1 63 79 63 107 -1 18 -14 43 -36 68 -30 33
-32 34 -15 8z"/>
<path d="M1788 2285 c6 -11 13 -42 17 -68 4 -26 9 -46 12 -43 9 8 -9 95 -24
113 -13 17 -14 17 -5 -2z"/>
<path d="M1516 2255 c8 -37 14 -45 14 -19 0 10 -5 26 -10 34 -8 11 -9 7 -4
-15z"/>
<path d="M1241 2163 c0 -12 -4 -30 -7 -40 -5 -17 -5 -17 6 0 6 10 9 28 7 40
-4 22 -4 22 -6 0z"/>
<path d="M1520 2144 c-6 -14 -10 -29 -10 -33 0 -4 -16 -29 -36 -55 -21 -25
-35 -49 -32 -51 8 -8 68 82 83 125 15 43 11 57 -5 14z"/>
<path d="M1791 2120 c-6 -22 -25 -55 -41 -74 -17 -18 -30 -37 -30 -41 0 -18
80 92 86 118 9 44 -1 42 -15 -3z"/>
<path d="M1180 2038 c-16 -22 -30 -50 -29 -62 1 -17 2 -16 9 6 4 15 20 43 35
62 15 20 25 36 21 36 -3 0 -19 -19 -36 -42z"/>
<path d="M1571 2049 c-13 -37 -14 -118 -2 -137 4 -7 6 11 3 42 -2 30 1 69 7
87 6 18 9 34 7 36 -2 2 -9 -10 -15 -28z"/>
<path d="M1284 1964 c3 -66 6 -75 45 -126 22 -30 41 -64 41 -74 0 -11 -12 -36
-26 -55 -27 -36 -53 -81 -37 -64 38 40 73 97 73 118 0 13 -14 42 -31 63 -46
57 -52 73 -60 144 l-8 65 3 -71z"/>
<path d="M1431 1974 c0 -11 3 -14 6 -6 3 7 2 16 -1 19 -3 4 -6 -2 -5 -13z"/>
<path d="M1710 1977 c0 -8 18 -39 40 -70 24 -34 46 -79 54 -114 8 -32 15 -49
15 -38 2 40 -22 101 -60 154 -22 30 -37 61 -35 68 3 7 1 13 -4 13 -6 0 -10 -6
-10 -13z"/>
<path d="M1160 1944 c0 -6 11 -21 25 -34 64 -60 73 -194 19 -270 -16 -22 -35
-51 -43 -63 -23 -37 25 22 59 72 52 77 38 192 -34 276 -14 17 -25 25 -26 19z"/>
<path d="M1454 1930 c9 -14 23 -35 32 -48 9 -12 22 -39 30 -60 7 -20 13 -30
14 -21 0 27 -28 82 -61 119 -18 20 -24 24 -15 10z"/>
<path d="M1580 1883 c0 -6 8 -17 18 -24 16 -13 16 -13 2 6 -8 11 -16 22 -17
24 -2 2 -3 0 -3 -6z"/>
<path d="M1629 1816 c12 -16 21 -38 21 -50 0 -25 -46 -96 -62 -96 -6 0 -9 -3
-6 -6 4 -3 0 -21 -8 -39 -8 -19 -14 -42 -13 -52 0 -10 6 1 13 24 8 23 30 64
50 91 43 59 45 91 10 129 l-26 28 21 -29z"/>
<path d="M2044 1822 c8 -7 126 -5 134 2 3 4 -26 6 -66 5 -40 -1 -70 -4 -68 -7z"/>
<path d="M2462 1824 c8 -7 126 -9 134 -2 2 3 -28 6 -68 7 -40 1 -69 -1 -66 -5z"/>
<path d="M2003 1806 c-13 -6 -23 -14 -23 -19 0 -9 36 9 45 23 3 6 5 9 3 9 -2
-1 -13 -6 -25 -13z"/>
<path d="M2432 1808 c-7 -7 -12 -9 -12 -5 0 4 -13 1 -30 -8 -16 -9 -30 -21
-30 -28 0 -9 2 -9 8 1 5 7 19 14 31 17 13 2 29 9 35 15 7 5 17 6 21 2 5 -4 5
-1 1 6 -9 15 -9 15 -24 0z"/>
<path d="M2220 1800 c0 -5 9 -12 21 -15 12 -4 30 -16 41 -27 11 -11 22 -17 26
-14 3 4 -5 14 -19 24 -39 27 -69 42 -69 32z"/>
<path d="M703 1793 c9 -2 23 -2 30 0 6 3 -1 5 -18 5 -16 0 -22 -2 -12 -5z"/>
<path d="M2645 1791 c2 -5 16 -11 31 -14 15 -2 22 -1 17 4 -12 12 -55 20 -48
10z"/>
<path d="M2710 1761 c0 -6 5 -11 11 -11 5 0 7 -5 3 -12 -4 -7 -3 -8 4 -4 7 4
12 1 12 -9 0 -8 6 -18 14 -21 8 -3 16 -18 20 -35 3 -16 10 -29 16 -29 16 0 12
14 -20 62 -34 52 -60 77 -60 59z"/>
<path d="M508 1750 c-73 -22 -135 -88 -152 -161 -5 -24 -3 -27 18 -25 18 1 26
8 30 27 7 36 54 89 93 105 92 39 197 -10 222 -103 4 -16 15 -27 29 -30 28 -4
28 17 3 73 -40 89 -152 141 -243 114z m-38 -45 c-7 -9 -15 -13 -19 -10 -3 3 1
10 9 15 21 14 24 12 10 -5z"/>
<path d="M2330 1749 c0 -5 5 -7 10 -4 6 3 10 8 10 11 0 2 -4 4 -10 4 -5 0 -10
-5 -10 -11z"/>
<path d="M1516 1706 c-4 -19 -22 -54 -41 -79 -19 -25 -35 -51 -35 -58 0 -7 20
18 45 55 25 38 45 80 45 92 0 34 -7 29 -14 -10z"/>
<path d="M1801 1717 c-1 -25 -29 -75 -57 -106 -13 -14 -24 -33 -23 -41 0 -10
3 -8 9 5 4 12 15 27 25 35 24 20 57 89 52 108 -4 15 -5 15 -6 -1z"/>
<path d="M2050 1672 c-37 -21 -64 -53 -75 -91 -5 -17 -4 -22 6 -19 8 3 16 13
18 23 6 34 46 66 89 72 62 8 89 -3 119 -50 15 -23 28 -44 30 -46 2 -2 6 -2 9
2 10 10 -28 77 -56 97 -42 30 -98 35 -140 12z"/>
<path d="M2492 1683 c-31 -6 -88 -65 -94 -97 -6 -30 8 -35 17 -7 3 11 20 33
37 50 25 24 41 31 72 31 52 0 104 -31 118 -70 10 -30 28 -41 28 -17 0 20 -37
75 -62 91 -26 17 -82 26 -116 19z"/>
<path d="M525 1641 c-31 -13 -80 -81 -58 -81 3 0 12 8 19 18 13 16 13 16 14
-3 0 -18 1 -18 16 3 19 28 65 29 89 2 20 -22 55 -27 55 -7 -1 17 -31 53 -57
66 -25 13 -49 13 -78 2z m105 -46 c7 -9 11 -17 8 -20 -2 -2 -12 4 -21 15 -9
11 -13 20 -8 20 5 0 14 -7 21 -15z"/>
<path d="M1286 1615 c-3 -9 -6 -26 -5 -38 1 -14 4 -9 9 13 9 37 7 52 -4 25z"/>
<path d="M2796 1617 c3 -10 9 -15 12 -12 3 3 0 11 -7 18 -10 9 -11 8 -5 -6z"/>
<path d="M2811 1574 c0 -11 3 -14 6 -6 3 7 2 16 -1 19 -3 4 -6 -2 -5 -13z"/>
<path d="M985 1539 c55 -11 157 -11 175 1 10 7 -22 9 -100 9 -88 -1 -106 -3
-75 -10z"/>
<path d="M1263 1538 c55 -6 124 -6 185 0 93 9 90 9 -88 9 -171 0 -179 0 -97
-9z"/>
<path d="M1550 1540 c0 -4 41 -7 90 -6 50 0 90 4 90 9 0 4 -40 7 -90 6 -49 -1
-90 -5 -90 -9z"/>
<path d="M2408 1503 c6 -2 18 -2 25 0 6 3 1 5 -13 5 -14 0 -19 -2 -12 -5z"/>
<path d="M2463 1503 c9 -2 23 -2 30 0 6 3 -1 5 -18 5 -16 0 -22 -2 -12 -5z"/>
<path d="M1974 1370 c0 -63 1 -89 3 -57 2 31 2 83 0 115 -2 31 -3 5 -3 -58z"/>
<path d="M203 1455 c-21 -15 -38 -55 -22 -55 5 0 9 7 9 15 0 8 10 23 22 35 25
23 21 26 -9 5z"/>
<path d="M263 1443 c12 -13 17 -37 17 -74 0 -35 3 -49 9 -40 5 7 7 21 6 30 -2
9 -4 30 -4 48 -1 23 -8 36 -23 44 -22 12 -22 11 -5 -8z"/>
<path d="M180 1333 c-6 -30 -5 -41 6 -104 15 -82 34 -152 39 -147 2 2 -3 31
-12 63 -8 33 -19 92 -23 130 -4 39 -8 64 -10 58z"/>
<path d="M291 1280 c-2 -93 64 -266 142 -367 137 -178 320 -278 552 -300 75
-8 80 -10 89 -35 8 -23 6 -32 -15 -55 -17 -20 -19 -23 -4 -13 28 21 35 32 35
56 0 36 -30 52 -120 63 -132 16 -184 30 -255 66 -231 117 -374 313 -414 565
-7 43 -9 47 -10 20z"/>
<path d="M1957 1205 c-4 -26 -6 -50 -4 -51 7 -7 22 66 17 82 -5 12 -9 2 -13
-31z"/>
<path d="M1931 1093 c-1 -6 -4 -20 -7 -30 -5 -17 -5 -17 6 0 6 10 9 23 6 30
-3 9 -5 9 -5 0z"/>
<path d="M230 1062 c0 -17 62 -136 97 -188 39 -58 129 -153 178 -188 22 -16
42 -32 45 -35 5 -6 21 -16 84 -50 38 -21 144 -61 159 -61 7 1 -20 13 -59 29
-205 81 -360 220 -457 412 -26 51 -47 88 -47 81z"/>
<path d="M1871 942 c-85 -173 -229 -320 -404 -413 -79 -42 -84 -52 -9 -17 97
45 242 164 318 262 51 64 141 223 132 232 -2 2 -19 -27 -37 -64z"/>
<path d="M844 525 c22 -8 42 -13 44 -10 8 8 -1 12 -43 18 l-40 7 39 -15z"/>
<path d="M900 516 c0 -8 61 -12 66 -4 3 4 -11 8 -30 8 -20 0 -36 -2 -36 -4z"/>
<path d="M1285 455 c-36 -13 -37 -14 -8 -10 17 1 39 8 50 14 24 14 7 12 -42
-4z"/>
</g>
</svg>
