<?xml version="1.0" standalone="no"?>
<!DOCTYPE svg PUBLIC "-//W3C//DTD SVG 20010904//EN"
 "http://www.w3.org/TR/2001/REC-SVG-20010904/DTD/svg10.dtd">
<svg version="1.0" xmlns="http://www.w3.org/2000/svg"
 width="300.000000pt" height="300.000000pt" viewBox="0 0 300.000000 300.000000"
 preserveAspectRatio="xMidYMid meet">
<metadata>
Created by potrace 1.10, written by Peter Selinger 2001-2011
</metadata>
<g transform="translate(0.000000,300.000000) scale(0.100000,-0.100000)"
fill="#000000" stroke="none">
<path d="M193 2823 c-95 -33 -188 -151 -181 -230 l3 -38 29 60 c41 85 69 118
128 151 l53 29 1275 0 1275 0 53 -29 c59 -33 79 -57 125 -149 30 -59 32 -60
35 -32 10 81 -76 198 -174 234 -54 21 -68 21 -1317 20 -1093 0 -1268 -3 -1304
-16z"/>
<path d="M238 2758 c-49 -13 -116 -72 -139 -122 -15 -34 -19 -67 -19 -197 0
-150 1 -156 23 -177 l23 -22 717 0 c706 0 761 -2 716 -31 -8 -5 -334 -9 -726
-9 -705 0 -712 0 -731 -21 -18 -19 -20 -46 -27 -415 -4 -217 -4 -576 0 -799 7
-397 8 -404 29 -424 22 -20 34 -21 562 -23 353 -2 538 -6 537 -13 -2 -6 -204
-11 -573 -13 -497 -2 -575 0 -600 13 -35 18 -41 4 -14 -33 l15 -22 603 0 c455
0 605 3 614 12 17 17 15 64 -4 82 -14 14 -79 16 -570 16 l-554 0 -2 800 -3
800 738 0 c724 0 737 0 757 20 25 25 25 55 0 80 -20 20 -33 20 -757 20 l-738
0 5 167 c6 187 13 208 85 253 l34 21 1262 0 c1260 -1 1261 -1 1295 -22 71 -44
78 -65 84 -252 l5 -167 -416 0 c-390 0 -417 -1 -432 -18 -24 -26 -21 -68 5
-86 19 -14 78 -16 433 -16 l410 0 -3 -550 -2 -550 -194 0 c-184 0 -195 -1
-227 -23 -19 -12 -44 -42 -56 -67 -21 -41 -23 -57 -23 -227 l0 -182 -92 -3
c-88 -3 -93 -4 -107 -29 -13 -24 -13 -29 2 -53 17 -26 18 -26 150 -26 l132 0
262 262 c229 231 296 308 266 308 -4 0 -127 -119 -273 -265 l-266 -265 -112 0
c-93 0 -112 3 -112 15 0 12 14 15 69 15 54 0 74 4 95 21 l26 20 0 175 c0 279
-2 277 265 284 172 4 195 7 214 24 21 19 21 23 21 566 0 536 0 547 -20 568
-21 22 -22 22 -413 22 -216 0 -398 4 -406 9 -42 27 8 31 398 31 l398 0 21 23
c21 22 22 33 22 178 0 128 -4 161 -19 195 -24 53 -91 109 -146 123 -57 14
-2462 14 -2517 -1z"/>
<path d="M320 2649 c-61 -25 -100 -85 -100 -152 0 -113 133 -188 231 -131 102
60 106 194 8 267 -31 23 -103 31 -139 16z m122 -53 c22 -13 48 -66 48 -96 0
-29 -26 -76 -52 -94 -38 -27 -103 -21 -140 13 -29 26 -33 36 -33 79 0 36 6 56
20 72 41 47 107 58 157 26z"/>
<path d="M325 2554 c-35 -37 -32 -76 6 -108 17 -14 37 -26 44 -26 27 0 75 51
75 79 0 37 -41 81 -75 81 -15 0 -36 -11 -50 -26z m85 -34 c23 -44 -29 -80 -64
-44 -19 18 -19 20 -6 45 14 25 56 25 70 -1z"/>
<path d="M715 2646 c-98 -42 -124 -173 -52 -250 99 -104 267 -36 267 108 0
112 -113 187 -215 142z m102 -36 c6 0 25 -14 42 -31 26 -25 31 -39 31 -76 0
-38 -5 -50 -34 -79 -39 -39 -86 -45 -136 -19 -59 31 -76 119 -33 168 24 27 73
48 98 42 11 -3 25 -5 32 -5z"/>
<path d="M726 2549 c-34 -40 -33 -64 3 -100 36 -36 51 -36 90 -3 39 33 41 74
6 109 -33 34 -67 32 -99 -6z m84 -24 c15 -18 10 -45 -12 -59 -33 -20 -69 20
-54 60 7 18 50 18 66 -1z"/>
<path d="M1130 2653 c-37 -14 -74 -49 -91 -87 -24 -53 -24 -80 2 -132 68 -141
270 -105 294 52 16 103 -108 203 -205 167z m87 -43 c8 0 28 -13 44 -29 48 -49
38 -140 -21 -174 -55 -33 -132 -14 -160 38 -20 37 -17 90 6 122 22 29 79 55
102 47 8 -2 20 -4 29 -4z"/>
<path d="M1126 2549 c-34 -40 -33 -64 3 -100 44 -43 87 -35 116 21 18 35 8 70
-27 94 -34 24 -63 19 -92 -15z m84 -24 c15 -18 10 -45 -12 -59 -33 -20 -69 20
-54 60 7 18 50 18 66 -1z"/>
<path d="M1640 2550 c-25 -25 -26 -62 -2 -83 17 -15 68 -17 525 -17 494 0 508
1 527 20 24 24 25 49 6 76 -14 18 -33 19 -525 22 -501 2 -511 2 -531 -18z
m1008 -35 c22 -22 -49 -25 -493 -23 -363 2 -479 6 -482 15 -3 9 20 13 84 15
142 5 885 -1 891 -7z"/>
<path d="M1787 2262 c-26 -28 -21 -69 9 -89 23 -15 29 -15 52 -2 37 21 45 52
21 83 -24 30 -59 34 -82 8z"/>
<path d="M197 1812 c-15 -17 -17 -46 -17 -274 0 -309 -10 -288 139 -288 116 0
163 17 202 72 33 46 38 135 11 183 l-21 35 21 35 c26 46 22 141 -8 182 -45 60
-66 68 -192 71 -105 3 -119 2 -135 -16z m250 -42 c61 -37 78 -105 47 -187 -16
-40 -16 -46 0 -86 32 -86 11 -158 -57 -190 -42 -20 -186 -24 -205 -5 -13 13
-18 441 -6 472 10 25 178 23 221 -4z"/>
<path d="M286 1739 c-23 -18 -26 -28 -26 -78 0 -76 24 -101 96 -101 59 0 90
19 110 66 17 41 7 71 -36 107 -40 34 -105 37 -144 6z m134 -39 c24 -24 25 -48
4 -78 -13 -18 -25 -22 -72 -22 l-57 0 3 60 4 60 49 0 c36 0 54 -5 69 -20z"/>
<path d="M280 1500 c-16 -16 -20 -33 -20 -79 0 -53 3 -62 28 -81 22 -18 36
-21 76 -17 97 9 140 104 77 168 -26 25 -37 29 -85 29 -43 0 -61 -5 -76 -20z
m144 -42 c23 -32 20 -54 -11 -78 -20 -16 -38 -20 -71 -18 l-44 3 -2 58 -1 57
57 0 c47 0 59 -4 72 -22z"/>
<path d="M695 1814 c-88 -46 -104 -89 -105 -273 0 -127 3 -150 21 -189 59
-120 232 -135 315 -27 29 38 29 41 32 189 2 82 1 165 -3 183 -7 41 -59 102
-102 119 -43 19 -121 17 -158 -2z m153 -44 c63 -39 72 -67 72 -231 0 -135 -2
-149 -23 -180 -63 -95 -203 -86 -251 16 -15 30 -17 61 -14 180 3 126 5 147 24
172 44 60 131 80 192 43z"/>
<path d="M744 1750 c-11 -4 -33 -22 -47 -40 -26 -31 -27 -34 -27 -172 l0 -140
34 -34 c48 -48 99 -48 147 2 l34 35 0 137 c0 129 -1 139 -24 169 -13 18 -38
37 -54 43 -34 12 -35 12 -63 0z m86 -56 c20 -19 28 -242 10 -284 -20 -49 -70
-58 -112 -22 -16 13 -18 34 -18 151 0 75 4 141 8 147 23 35 81 39 112 8z"/>
<path d="M1100 1812 c-19 -10 -48 -36 -65 -56 l-30 -38 -3 -163 c-3 -146 -1
-167 16 -202 24 -47 47 -68 95 -88 81 -34 176 -6 224 66 27 41 28 46 31 200 4
179 -6 213 -74 266 -48 36 -142 44 -194 15z m168 -49 c51 -37 62 -75 62 -221
0 -151 -10 -186 -61 -223 -44 -31 -125 -33 -166 -3 -53 39 -63 74 -63 229 0
157 9 186 72 226 41 25 116 21 156 -8z"/>
<path d="M1145 1746 c-57 -25 -65 -50 -65 -205 l0 -140 31 -36 c27 -30 37 -35
74 -35 37 0 47 5 74 35 l31 36 0 142 c0 139 -1 143 -26 170 -23 25 -63 48 -82
47 -4 -1 -21 -7 -37 -14z m69 -37 c39 -18 48 -55 44 -184 -3 -114 -4 -117 -31
-141 -37 -31 -52 -30 -88 5 -29 29 -29 31 -29 146 0 143 12 174 72 184 4 0 18
-4 32 -10z"/>
<path d="M1432 1818 c-9 -9 -12 -84 -12 -274 0 -284 2 -294 55 -294 40 0 55
25 55 93 l0 62 78 -78 c42 -42 86 -77 95 -77 36 0 57 20 57 53 0 27 -15 47
-102 134 l-103 103 103 103 c84 85 102 108 102 133 0 39 -16 54 -56 54 -27 0
-43 -12 -103 -77 l-71 -78 0 66 c0 73 -10 89 -55 89 -17 0 -36 -5 -43 -12z
m61 -79 c6 -43 31 -79 54 -79 8 0 43 27 77 60 35 33 68 60 74 60 26 0 9 -28
-49 -85 -74 -72 -119 -132 -119 -156 0 -11 41 -63 90 -116 50 -54 90 -103 90
-110 0 -25 -24 -12 -86 47 -35 34 -71 60 -83 60 -23 0 -42 -30 -50 -79 -3 -19
-10 -34 -16 -35 -6 -1 -11 86 -13 237 -2 197 0 237 12 237 8 0 15 -15 19 -41z"/>
<path d="M1816 1808 c-13 -19 -16 -62 -16 -268 0 -271 4 -290 59 -290 59 0 61
11 61 292 0 234 -1 256 -18 271 -26 24 -68 21 -86 -5z m59 -268 c0 -178 -3
-234 -12 -237 -10 -4 -13 48 -13 237 0 189 3 241 13 238 9 -4 12 -60 12 -238z"/>
<path d="M1992 1818 c-9 -9 -12 -85 -12 -280 0 -254 1 -268 19 -278 28 -14 57
-12 75 6 13 13 16 43 17 167 0 121 3 148 12 134 7 -10 56 -86 109 -168 88
-135 100 -149 126 -149 60 0 62 10 62 292 0 234 -1 256 -18 271 -28 25 -69 21
-88 -8 -14 -21 -16 -47 -12 -165 2 -77 1 -137 -2 -133 -4 5 -53 79 -110 166
-97 148 -104 157 -134 157 -18 0 -37 -5 -44 -12z m154 -177 c50 -74 101 -141
113 -150 22 -14 25 -13 42 8 16 20 19 41 19 140 0 116 9 156 30 135 7 -7 9
-88 8 -240 -3 -201 -5 -229 -19 -232 -11 -2 -41 36 -96 120 -81 123 -124 178
-141 178 -5 0 -17 -9 -28 -21 -16 -18 -20 -42 -24 -145 -3 -70 -9 -125 -15
-127 -6 -1 -11 84 -13 236 -2 224 -1 238 15 235 10 -2 59 -63 109 -137z"/>
<path d="M2555 1816 c-37 -17 -80 -62 -94 -99 -14 -37 -14 -317 0 -354 26 -70
105 -117 185 -111 108 9 174 87 174 206 0 82 -18 102 -95 102 -42 0 -60 -5
-75 -20 -35 -35 -19 -84 32 -98 25 -6 26 -9 15 -32 -7 -14 -25 -31 -40 -38
-22 -11 -31 -10 -55 2 -16 8 -32 23 -36 31 -3 9 -6 73 -6 141 0 119 1 126 25
149 13 14 31 25 39 25 32 0 67 -24 72 -49 10 -50 29 -76 58 -79 36 -4 66 23
66 60 0 34 -24 95 -48 121 -47 52 -151 72 -217 43z m144 -44 c42 -21 69 -57
73 -96 4 -39 -16 -44 -31 -8 -32 76 -106 107 -166 68 -41 -27 -55 -73 -55
-184 0 -128 6 -157 42 -193 43 -43 98 -41 144 5 41 41 43 65 8 99 -32 32 -26
57 14 57 39 0 52 -17 52 -67 0 -67 -32 -121 -87 -145 -73 -32 -142 -12 -184
55 -18 29 -19 47 -17 188 3 140 5 159 23 179 53 59 121 75 184 42z"/>
<path d="M1460 1140 c-19 -19 -20 -33 -20 -400 0 -367 1 -381 20 -400 39 -39
64 -27 135 66 32 41 60 74 64 74 3 0 24 -32 46 -72 43 -76 68 -94 106 -74 44
21 37 56 -37 187 -86 152 -114 163 -179 70 -15 -23 -30 -41 -34 -41 -3 0 -5
102 -3 226 l3 226 22 -15 c39 -26 331 -193 352 -201 19 -8 19 -9 -5 -16 -14
-5 -39 -8 -56 -9 -35 -1 -64 -28 -64 -59 0 -21 257 -488 288 -524 30 -36 102
-9 102 37 0 6 -54 107 -120 224 -67 117 -120 215 -118 216 2 1 41 8 88 14 47
7 95 19 108 27 27 18 30 64 5 86 -34 28 -649 378 -666 378 -9 0 -26 -9 -37
-20z m188 -104 c70 -41 143 -83 162 -93 209 -118 320 -189 318 -203 -2 -10
-26 -19 -78 -28 -75 -14 -120 -40 -120 -70 0 -15 16 -46 141 -268 43 -77 79
-146 79 -153 0 -32 -36 1 -72 64 -249 438 -244 425 -176 439 35 7 68 32 68 51
0 20 -48 62 -108 96 -32 18 -70 40 -87 49 -16 10 -66 38 -110 64 -44 25 -84
46 -89 46 -6 0 -20 -10 -33 -22 -23 -21 -23 -25 -23 -229 0 -204 0 -208 23
-235 l24 -27 46 42 c27 25 53 41 61 38 16 -6 116 -180 116 -202 0 -29 -20 -15
-54 38 -19 29 -41 59 -50 66 -27 22 -62 4 -112 -57 -54 -67 -73 -80 -85 -61
-10 16 -12 688 -3 713 3 9 12 16 20 16 8 0 72 -33 142 -74z"/>
<path d="M2494 956 l-34 -34 0 -131 c0 -118 2 -133 20 -151 11 -11 25 -20 32
-20 7 0 79 67 161 149 120 119 148 153 145 172 -5 38 -42 49 -171 49 l-119 0
-34 -34z m161 -156 c-82 -82 -152 -150 -155 -150 -3 0 -3 63 0 140 4 110 8
143 20 150 8 5 76 10 150 10 l135 0 -150 -150z"/>
<path d="M1860 273 c-22 -8 -40 -34 -40 -58 0 -51 75 -74 104 -33 22 31 20 45
-9 73 -25 26 -29 27 -55 18z"/>
</g>
</svg>
